/* XPM */
static char * 0_xpm[] = {
"32 32 463 2",
"  	c #2B7300",
". 	c #2C6B02",
"+ 	c #286D01",
"@ 	c #296C01",
"# 	c #286C01",
"$ 	c #367001",
"% 	c #4A7C03",
"& 	c #4F7D00",
"* 	c #507D00",
"= 	c #3C7505",
"- 	c #286B01",
"; 	c #2A6E01",
"> 	c #2C6D02",
", 	c #467B02",
"' 	c #527D01",
") 	c #527C01",
"! 	c #537D02",
"~ 	c #417502",
"{ 	c #2D6B03",
"] 	c #2C6A01",
"^ 	c #5B9002",
"/ 	c #719D01",
"( 	c #759802",
"_ 	c #6B9503",
": 	c #2D6F03",
"< 	c #276A02",
"[ 	c #2C7000",
"} 	c #256B01",
"| 	c #2A6602",
"1 	c #2A6800",
"2 	c #286604",
"3 	c #296705",
"4 	c #296603",
"5 	c #346902",
"6 	c #4E7508",
"7 	c #4F7502",
"8 	c #507501",
"9 	c #3A6F07",
"0 	c #2A6A04",
"a 	c #296803",
"b 	c #467203",
"c 	c #4D7703",
"d 	c #4E7500",
"e 	c #4E7601",
"f 	c #4C7603",
"g 	c #4D7601",
"h 	c #4F7700",
"i 	c #3D7001",
"j 	c #276801",
"k 	c #276903",
"l 	c #296404",
"m 	c #5A8A05",
"n 	c #6F9302",
"o 	c #6D9003",
"p 	c #649005",
"q 	c #2B6A01",
"r 	c #2B6601",
"s 	c #2A6700",
"t 	c #286700",
"u 	c #286801",
"v 	c #286807",
"w 	c #276900",
"x 	c #266702",
"y 	c #316B03",
"z 	c #4D7906",
"A 	c #517701",
"B 	c #517606",
"C 	c #3A6E05",
"D 	c #296501",
"E 	c #266601",
"F 	c #2A6900",
"G 	c #4D7305",
"H 	c #4C7905",
"I 	c #4F7702",
"J 	c #4B7705",
"K 	c #4E7604",
"L 	c #537804",
"M 	c #417005",
"N 	c #286601",
"O 	c #2A6904",
"P 	c #296302",
"Q 	c #598A05",
"R 	c #6F9503",
"S 	c #719301",
"T 	c #669007",
"U 	c #306A01",
"V 	c #286603",
"W 	c #2A6A05",
"X 	c #276B03",
"Y 	c #2A6702",
"Z 	c #2C6A02",
"` 	c #588605",
" .	c #5F8804",
"..	c #608802",
"+.	c #538305",
"@.	c #336B05",
"#.	c #356E05",
"$.	c #346A01",
"%.	c #3E7101",
"&.	c #467504",
"*.	c #457504",
"=.	c #457500",
"-.	c #4C7501",
";.	c #4C7706",
">.	c #517602",
",.	c #497403",
"'.	c #366C02",
").	c #326A00",
"!.	c #336B00",
"~.	c #396F03",
"{.	c #477502",
"].	c #467404",
"^.	c #457402",
"/.	c #3E7203",
"(.	c #3C7301",
"_.	c #3D7301",
":.	c #3B7301",
"<.	c #276601",
"[.	c #286A03",
"}.	c #296A01",
"|.	c #296500",
"1.	c #2B6903",
"2.	c #689003",
"3.	c #729506",
"4.	c #749402",
"5.	c #618C03",
"6.	c #266503",
"7.	c #296702",
"8.	c #276802",
"9.	c #3F6F01",
"0.	c #4F7804",
"a.	c #4E7704",
"b.	c #507600",
"c.	c #4E7701",
"d.	c #4D7503",
"e.	c #527701",
"f.	c #467301",
"g.	c #2D6800",
"h.	c #276701",
"i.	c #266701",
"j.	c #376F04",
"k.	c #537A04",
"l.	c #507503",
"m.	c #507A00",
"n.	c #346803",
"o.	c #266704",
"p.	c #276604",
"q.	c #286701",
"r.	c #2B6901",
"s.	c #286901",
"t.	c #266A02",
"u.	c #2B6C09",
"v.	c #688E01",
"w.	c #6E9303",
"x.	c #6F9504",
"y.	c #5A8B07",
"z.	c #286702",
"A.	c #296802",
"B.	c #417001",
"C.	c #4D7801",
"D.	c #4B7702",
"E.	c #4F7603",
"F.	c #4C7801",
"G.	c #4F7900",
"H.	c #447501",
"I.	c #3E6E02",
"J.	c #517502",
"K.	c #517705",
"L.	c #4A7800",
"M.	c #336A04",
"N.	c #276A05",
"O.	c #286902",
"P.	c #2A6901",
"Q.	c #286705",
"R.	c #276904",
"S.	c #306E02",
"T.	c #316900",
"U.	c #326B01",
"V.	c #648B02",
"W.	c #6D8E0A",
"X.	c #6A9206",
"Y.	c #578702",
"Z.	c #3A6B03",
"`.	c #316B01",
" +	c #457204",
".+	c #4F7501",
"++	c #4F7506",
"@+	c #537C02",
"#+	c #557C02",
"$+	c #577B01",
"%+	c #4D7802",
"&+	c #356C01",
"*+	c #336D03",
"=+	c #336C01",
"-+	c #417101",
";+	c #487706",
">+	c #4A7602",
",+	c #487704",
"'+	c #396D01",
")+	c #346C01",
"!+	c #306C00",
"~+	c #336E01",
"{+	c #296804",
"]+	c #2E6800",
"^+	c #4A7907",
"/+	c #4B7703",
"(+	c #306D03",
"_+	c #2E6C03",
":+	c #2A6B02",
"<+	c #417601",
"[+	c #698E08",
"}+	c #668F03",
"|+	c #659202",
"1+	c #548101",
"2+	c #477201",
"3+	c #447203",
"4+	c #4A7402",
"5+	c #769B02",
"6+	c #80A503",
"7+	c #81A301",
"8+	c #799E02",
"9+	c #517600",
"0+	c #4D7403",
"a+	c #507F06",
"b+	c #276906",
"c+	c #2B6904",
"d+	c #2F6802",
"e+	c #5B8603",
"f+	c #6B9105",
"g+	c #689001",
"h+	c #658C04",
"i+	c #477404",
"j+	c #457002",
"k+	c #497302",
"l+	c #517802",
"m+	c #4E7702",
"n+	c #2E6901",
"o+	c #2C6500",
"p+	c #266705",
"q+	c #3F7303",
"r+	c #709502",
"s+	c #6D9305",
"t+	c #709503",
"u+	c #5A8301",
"v+	c #457101",
"w+	c #447300",
"x+	c #497602",
"y+	c #799E01",
"z+	c #85A802",
"A+	c #82A500",
"B+	c #7A9F01",
"C+	c #537903",
"D+	c #4F7800",
"E+	c #4C7500",
"F+	c #558003",
"G+	c #286802",
"H+	c #5E8A00",
"I+	c #6E9502",
"J+	c #6E9505",
"K+	c #6A8F01",
"L+	c #4C7403",
"M+	c #437203",
"N+	c #487301",
"O+	c #4F7801",
"P+	c #4D7705",
"Q+	c #4D7603",
"R+	c #2B6A04",
"S+	c #296700",
"T+	c #246501",
"U+	c #3D7101",
"V+	c #6D9200",
"W+	c #6C9001",
"X+	c #6D9300",
"Y+	c #578001",
"Z+	c #477007",
"`+	c #467105",
" @	c #487501",
".@	c #769D01",
"+@	c #84A705",
"@@	c #84A702",
"#@	c #799F04",
"$@	c #527802",
"%@	c #4E7804",
"&@	c #548201",
"*@	c #276704",
"=@	c #5C8B0A",
"-@	c #6A9200",
";@	c #497401",
">@	c #427402",
",@	c #467300",
"'@	c #5C8401",
")@	c #588103",
"!@	c #598102",
"~@	c #497B04",
"{@	c #487902",
"]@	c #467903",
"^@	c #779C01",
"/@	c #789B03",
"(@	c #7A9D02",
"_@	c #648C01",
":@	c #567D04",
"<@	c #577E01",
"[@	c #568002",
"}@	c #658D01",
"|@	c #5B8500",
"1@	c #5B8301",
"2@	c #5B8200",
"3@	c #4D7502",
"4@	c #4D7803",
"5@	c #4C7601",
"6@	c #558203",
"7@	c #477902",
"8@	c #467A04",
"9@	c #497802",
"0@	c #588406",
"a@	c #608902",
"b@	c #5F8801",
"c@	c #5E8700",
"d@	c #588005",
"e@	c #547D04",
"f@	c #528004",
"g@	c #6D9501",
"h@	c #6D9203",
"i@	c #6A9101",
"j@	c #507902",
"k@	c #4C7701",
"l@	c #4A7502",
"m@	c #5C8200",
"n@	c #84A901",
"o@	c #83A702",
"p@	c #85A601",
"q@	c #789F01",
"r@	c #6D9302",
"s@	c #6F9501",
"t@	c #6D9306",
"u@	c #567E05",
"v@	c #437001",
"w@	c #456D0C",
"x@	c #487101",
"y@	c #497300",
"z@	c #457201",
"A@	c #447003",
"B@	c #5A8103",
"C@	c #6C9301",
"D@	c #6C9202",
"E@	c #6E9201",
"F@	c #537A00",
"G@	c #446F02",
"H@	c #457302",
"I@	c #4D7504",
"J@	c #4C7604",
"K@	c #446D01",
"L@	c #447302",
"M@	c #6F9702",
"N@	c #6E9001",
"O@	c #6C9006",
"P@	c #517904",
"Q@	c #4B7401",
"R@	c #5F8301",
"S@	c #82A801",
"T@	c #86A701",
"U@	c #87A700",
"V@	c #769C02",
"W@	c #6E9207",
"X@	c #709201",
"Y@	c #547F03",
"Z@	c #487303",
"`@	c #487302",
" #	c #487201",
".#	c #447205",
"+#	c #548402",
"@#	c #6A9305",
"##	c #6F9201",
"$#	c #517A07",
"%#	c #477305",
"&#	c #467200",
"*#	c #4C7704",
"=#	c #437300",
"-#	c #487401",
";#	c #6E9603",
">#	c #688F00",
",#	c #507901",
"'#	c #4B7701",
")#	c #5E8203",
"!#	c #81A604",
"~#	c #82A504",
"{#	c #82A300",
"]#	c #769E02",
"^#	c #6C9205",
"/#	c #6E9301",
"(#	c #6E9404",
"_#	c #588000",
":#	c #497501",
"<#	c #4C7504",
"[#	c #4B7502",
"}#	c #497301",
"|#	c #467302",
"1#	c #457103",
"2#	c #5B8204",
"3#	c #68910A",
"4#	c #689105",
"5#	c #678E00",
"6#	c #517B03",
"7#	c #457001",
"8#	c #487202",
"9#	c #4C7803",
"0#	c #557B04",
"a#	c #487403",
"b#	c #4C7800",
"c#	c #497504",
"d#	c #467201",
"e#	c #477003",
"f#	c #547903",
"g#	c #709601",
"h#	c #709301",
"i#	c #719801",
"j#	c #5D8705",
"k#	c #4B7602",
"l#	c #4D7700",
"m#	c #5F8C02",
"n#	c #699002",
"o#	c #6B9004",
"p#	c #6A8F03",
"q#	c #618601",
"r#	c #618705",
"s#	c #618702",
"t#	c #5B8306",
"u#	c #4C7703",
"v#	c #5B8503",
"w#	c #608A02",
"x#	c #608A04",
"y#	c #5F8901",
"z#	c #699005",
"A#	c #669202",
"B#	c #699300",
"C#	c #487402",
"D#	c #466F02",
"E#	c #447103",
"F#	c #457102",
"G#	c #447204",
"H#	c #457004",
"I#	c #507802",
"J#	c #6A9201",
"K#	c #6C9300",
"L#	c #6E9300",
"M#	c #5A8204",
"N#	c #447101",
"O#	c #487103",
"P#	c #668C02",
"Q#	c #6D9202",
"R#	c #6C9100",
"S#	c #6E9400",
"T#	c #6B9200",
"U#	c #6D9401",
"V#	c #5A8402",
"W#	c #437201",
"X#	c #457200",
"Y#	c #618C01",
"Z#	c #6E9503",
"`#	c #6C9405",
" $	c #6B9201",
".$	c #6C9102",
"+$	c #6F9601",
"  . + @ + # $ % & * = - ; > , ' ) ) ) ! ! ~ { @ ] ^ / ( _ : < [ ",
"} | 1 2 3 4 5 6 7 8 9 4 0 a b c d e f g h i j k l m n o p q r s ",
"< t u v w x y z A B C D E F G H h I J K L M N O P Q R S T U V W ",
"X Y Z `  ...+.@.#.$.%.&.*.=.-.;.>.,.'.).!.~.{.].^./.(._.:.<.u [.",
"}.|.1.2.3.4.5.6.7.8.9.0.a.b.c.d.e.f.g.h.i.j.k.l.m.n.o.p.q.Y r.s.",
"t.h.u.v.w.x.y.z.A.p.B.C.D.>.E.F.G.H.F s.i.I.J.K.L.M.N.O.P.Q.7.R.",
"S.T.U.V.W.X.Y.Z.S.`. +.+E.++@+#+$+%+&+*+=+-+;+>+,+'+)+!+~+{+]+).",
"^+/+>+(+_+:+<+[+}+|+1+2+3+4+5+6+7+8+9+c.0+a+b+c+d+e+f+g+h+i+j+k+",
"l+m+c.n+o+p+q+r+s+t+u+v+w+x+y+z+A+B+C+D+E+F+G+Y | H+I+J+K+L+M+N+",
"O+P+Q+R+S+T+U+V+W+X+Y+Z+`+ @.@+@@@#@$@%@f &@i.< *@=@R w.-@;@>@,@",
"'@)@!@~@{@]@1+^@/@(@_@:@<@[@}@|@1@2@3@4@5@6@7@8@9@0@a@b@c@d@e@f@",
"g@h@i@j@k@l@m@n@o@p@q@r@s@t@u@v@w@x@y@z@A@B@C@D@E@F@G@H@I@J@K@L@",
"M@N@O@P@k@Q@R@S@T@U@V@W@X@t@Y@v+Z@`@ #H@.#+#C@@###$#%#&#*#-.=#-#",
";#>#}+,#'#-.)#!#~#{#]#^#/#(#_#:#<#[#}#|#1#2#3#4#5#6#7#8#9#0#a#m+",
"b#Q@c# #d#e#f#g#h#i#j#k#l#l+m#n#o#p#q#r#s#t#;@u#Q@v#w#x#y#z#A#B#",
"C#D#E#F#G#H#I#J#K#L#M#N#M+O#P#Q#R#S#r@T#U#V#G@W#X#Y#Z#`# $w..$+$",
"C#D#E#F#G#H#I#J#K#L#M#N#M+O#P#Q#R#S#r@T#U#V#G@W#X#Y#Z#`# $w..$+$",
"b#Q@c# #d#e#f#g#h#i#j#k#l#l+m#n#o#p#q#r#s#t#;@u#Q@v#w#x#y#z#A#B#",
";#>#}+,#'#-.)#!#~#{#]#^#/#(#_#:#<#[#}#|#1#2#3#4#5#6#7#8#9#0#a#m+",
"M@N@O@P@k@Q@R@S@T@U@V@W@X@t@Y@v+Z@`@ #H@.#+#C@@###$#%#&#*#-.=#-#",
"g@h@i@j@k@l@m@n@o@p@q@r@s@t@u@v@w@x@y@z@A@B@C@D@E@F@G@H@I@J@K@L@",
"'@)@!@~@{@]@1+^@/@(@_@:@<@[@}@|@1@2@3@4@5@6@7@8@9@0@a@b@c@d@e@f@",
"O+P+Q+R+S+T+U+V+W+X+Y+Z+`+ @.@+@@@#@$@%@f &@i.< *@=@R w.-@;@>@,@",
"l+m+c.n+o+p+q+r+s+t+u+v+w+x+y+z+A+B+C+D+E+F+G+Y | H+I+J+K+L+M+N+",
"^+/+>+(+_+:+<+[+}+|+1+2+3+4+5+6+7+8+9+c.0+a+b+c+d+e+f+g+h+i+j+k+",
"S.T.U.V.W.X.Y.Z.S.`. +.+E.++@+#+$+%+&+*+=+-+;+>+,+'+)+!+~+{+]+).",
"t.h.u.v.w.x.y.z.A.p.B.C.D.>.E.F.G.H.F s.i.I.J.K.L.M.N.O.P.Q.7.R.",
"}.|.1.2.3.4.5.6.7.8.9.0.a.b.c.d.e.f.g.h.i.j.k.l.m.n.o.p.q.Y r.s.",
"X Y Z `  ...+.@.#.$.%.&.*.=.-.;.>.,.'.).!.~.{.].^./.(._.:.<.u [.",
"< t u v w x y z A B C D E F G H h I J K L M N O P Q R S T U V W ",
"} | 1 2 3 4 5 6 7 8 9 4 0 a b c d e f g h i j k l m n o p q r s ",
"  . + @ + # $ % & * = - ; > , ' ) ) ) ! ! ~ { @ ] ^ / ( _ : < [ "};
