/* XPM */
static char * 1_xpm[] = {
"32 32 679 2",
"  	c #6A431B",
". 	c #714215",
"+ 	c #784414",
"@ 	c #C08727",
"# 	c #CD9121",
"$ 	c #CB8D26",
"% 	c #E1A733",
"& 	c #EFB83A",
"* 	c #EDB739",
"= 	c #EEB739",
"- 	c #EEB73B",
"; 	c #F0B63D",
"> 	c #EEB736",
", 	c #E9B641",
"' 	c #814E13",
") 	c #6F4015",
"! 	c #734113",
"~ 	c #B37D23",
"{ 	c #CD9125",
"] 	c #CC8E28",
"^ 	c #DBA02C",
"/ 	c #EAB93B",
"( 	c #EFB43C",
"_ 	c #F6C03D",
": 	c #724216",
"< 	c #724215",
"[ 	c #734217",
"} 	c #C48624",
"| 	c #CB8D25",
"1 	c #CB8C22",
"2 	c #E1A734",
"3 	c #EDB73A",
"4 	c #EBB538",
"5 	c #EBB53A",
"6 	c #EAB536",
"7 	c #EBB639",
"8 	c #EBB43C",
"9 	c #7E4E17",
"0 	c #6D4013",
"a 	c #B37B21",
"b 	c #CF8F24",
"c 	c #CA8C22",
"d 	c #DB9F2F",
"e 	c #ECB639",
"f 	c #ECB537",
"g 	c #EAB53B",
"h 	c #E9B638",
"i 	c #F8BF3A",
"j 	c #724414",
"k 	c #714314",
"l 	c #C38722",
"m 	c #CC8D23",
"n 	c #E2A834",
"o 	c #EFB93B",
"p 	c #F0B83B",
"q 	c #EEB737",
"r 	c #EFB83D",
"s 	c #ECB43D",
"t 	c #7F4E18",
"u 	c #6E4114",
"v 	c #704117",
"w 	c #B47C22",
"x 	c #CF9026",
"y 	c #CB8D23",
"z 	c #EEB83A",
"A 	c #EEB83C",
"B 	c #EAB538",
"C 	c #F8BE3B",
"D 	c #714213",
"E 	c #C38723",
"F 	c #CD8E26",
"G 	c #CB8D24",
"H 	c #D89C2D",
"I 	c #E0A531",
"J 	c #DFA330",
"K 	c #E0A431",
"L 	c #DDA331",
"M 	c #DEA42F",
"N 	c #DFA533",
"O 	c #DEA433",
"P 	c #7C4C16",
"Q 	c #6E4116",
"R 	c #CE8F25",
"S 	c #D5972B",
"T 	c #DEA531",
"U 	c #DFA42F",
"V 	c #DDA430",
"W 	c #EBAD31",
"X 	c #714216",
"Y 	c #734419",
"Z 	c #C28622",
"` 	c #CC8E26",
" .	c #CC8D26",
"..	c #CC8F25",
"+.	c #CC8C25",
"@.	c #CC8C24",
"#.	c #CD8C25",
"$.	c #CC8D27",
"%.	c #CB8C24",
"&.	c #CB8E22",
"*.	c #784814",
"=.	c #6F4217",
"-.	c #B57D23",
";.	c #CE8E25",
">.	c #CD8E25",
",.	c #CC8D25",
"'.	c #CC8E27",
").	c #C98B21",
"!.	c #D49320",
"~.	c #714115",
"{.	c #724317",
"].	c #C18520",
"^.	c #CD8D25",
"/.	c #CC8E22",
"(.	c #CD8D24",
"_.	c #CC8C23",
":.	c #CC8D24",
"<.	c #CE8E24",
"[.	c #CE8E27",
"}.	c #CC8F24",
"|.	c #7A4817",
"1.	c #6D4014",
"2.	c #6E3F15",
"3.	c #CC8E24",
"4.	c #CD8E24",
"5.	c #D69224",
"6.	c #734315",
"7.	c #714214",
"8.	c #734415",
"9.	c #BE8322",
"0.	c #C88B24",
"a.	c #C98B24",
"b.	c #C88D24",
"c.	c #C78D24",
"d.	c #C78D23",
"e.	c #C98D23",
"f.	c #C88B26",
"g.	c #C58A26",
"h.	c #7C4916",
"i.	c #6F4114",
"j.	c #714116",
"k.	c #B17A25",
"l.	c #C98C26",
"m.	c #C88C27",
"n.	c #C78B25",
"o.	c #C78C23",
"p.	c #C88C22",
"q.	c #C88A24",
"r.	c #D08F26",
"s.	c #744316",
"t.	c #6E4214",
"u.	c #825119",
"v.	c #865215",
"w.	c #855315",
"x.	c #855319",
"y.	c #855419",
"z.	c #875319",
"A.	c #845317",
"B.	c #855418",
"C.	c #865317",
"D.	c #82531A",
"E.	c #734317",
"F.	c #6F4215",
"G.	c #7E4F19",
"H.	c #855416",
"I.	c #85531A",
"J.	c #855318",
"K.	c #845315",
"L.	c #875318",
"M.	c #865218",
"N.	c #845416",
"O.	c #845319",
"P.	c #855215",
"Q.	c #855218",
"R.	c #87581B",
"S.	c #724415",
"T.	c #70411A",
"U.	c #6F4016",
"V.	c #704115",
"W.	c #6D4117",
"X.	c #6E4217",
"Y.	c #714217",
"Z.	c #704114",
"`.	c #6E4215",
" +	c #704219",
".+	c #704119",
"++	c #6E4212",
"@+	c #6C4111",
"#+	c #6E4113",
"$+	c #704016",
"%+	c #6E4112",
"&+	c #6E4115",
"*+	c #724219",
"=+	c #6E4016",
"-+	c #704218",
";+	c #6F4115",
">+	c #724412",
",+	c #703F16",
"'+	c #6F3C1B",
")+	c #703F0E",
"!+	c #6B3F15",
"~+	c #6C3F13",
"{+	c #6F4111",
"]+	c #6D4312",
"^+	c #6E3E14",
"/+	c #6E4017",
"(+	c #6F4017",
"_+	c #6E3F16",
":+	c #6F3F16",
"<+	c #6F4018",
"[+	c #6F4014",
"}+	c #6E3E15",
"|+	c #6E3D15",
"1+	c #6F4013",
"2+	c #6E4013",
"3+	c #6F4113",
"4+	c #6E4012",
"5+	c #714015",
"6+	c #6C3F15",
"7+	c #714110",
"8+	c #9B6B20",
"9+	c #956622",
"0+	c #976A1F",
"a+	c #956621",
"b+	c #996928",
"c+	c #996A1D",
"d+	c #7E4C17",
"e+	c #6F4214",
"f+	c #6D4116",
"g+	c #7E4C18",
"h+	c #8E5A17",
"i+	c #8E5A1A",
"j+	c #8E5B1B",
"k+	c #96661F",
"l+	c #97681D",
"m+	c #98691F",
"n+	c #97671E",
"o+	c #946620",
"p+	c #966922",
"q+	c #986925",
"r+	c #976721",
"s+	c #986722",
"t+	c #88561C",
"u+	c #6F4019",
"v+	c #754417",
"w+	c #8F5A17",
"x+	c #8F5A1A",
"y+	c #8F5B1B",
"z+	c #946821",
"A+	c #9B6A22",
"B+	c #ECBC39",
"C+	c #EEBA39",
"D+	c #EBB733",
"E+	c #EDB931",
"F+	c #ECB63C",
"G+	c #F1BF3E",
"H+	c #A46E27",
"I+	c #703F13",
"J+	c #704017",
"K+	c #9C641A",
"L+	c #D19426",
"M+	c #CD9024",
"N+	c #D3972E",
"O+	c #EEB73C",
"P+	c #EEB836",
"Q+	c #EBB636",
"R+	c #EEB83D",
"S+	c #EEB93C",
"T+	c #EEBA38",
"U+	c #F1BC3F",
"V+	c #C5912D",
"W+	c #713E1A",
"X+	c #6E400F",
"Y+	c #894F17",
"Z+	c #CE9228",
"`+	c #CE9225",
" @	c #EAB43C",
".@	c #F5C13D",
"+@	c #EFB73C",
"@@	c #E9B439",
"#@	c #ECB43E",
"$@	c #EFB63A",
"%@	c #E8B23A",
"&@	c #EFBD38",
"*@	c #9C6C21",
"=@	c #6A3F1A",
"-@	c #9C661E",
";@	c #CE9022",
">@	c #D09522",
",@	c #EAB239",
"'@	c #ECB63D",
")@	c #E9B436",
"!@	c #EAB33A",
"~@	c #ECB538",
"{@	c #EBB539",
"]@	c #EAB438",
"^@	c #ECB93A",
"/@	c #BE8C29",
"(@	c #6B4015",
"_@	c #6B4213",
":@	c #84501C",
"<@	c #CD9127",
"[@	c #CD8C26",
"}@	c #CD8F27",
"|@	c #E7B235",
"1@	c #E8B236",
"2@	c #F3BD39",
"3@	c #F2BA39",
"4@	c #EDB839",
"5@	c #EDB73E",
"6@	c #EDB63A",
"7@	c #EAB737",
"8@	c #F3BC3D",
"9@	c #9E7124",
"0@	c #714014",
"a@	c #6F3F18",
"b@	c #9A651C",
"c@	c #D09222",
"d@	c #D19726",
"e@	c #EAB73A",
"f@	c #EBB83A",
"g@	c #ECB839",
"h@	c #EDB73D",
"i@	c #F0BC3D",
"j@	c #C18F2D",
"k@	c #6D3F13",
"l@	c #6F3F14",
"m@	c #815016",
"n@	c #D09226",
"o@	c #D09027",
"p@	c #CD9029",
"q@	c #E9B339",
"r@	c #EAB73B",
"s@	c #F8BF3C",
"t@	c #DB9E2C",
"u@	c #D79B29",
"v@	c #D99C2D",
"w@	c #D89A2A",
"x@	c #D8A02D",
"y@	c #DDA02C",
"z@	c #98641F",
"A@	c #713E14",
"B@	c #98631E",
"C@	c #D09329",
"D@	c #CB8D29",
"E@	c #CE8F26",
"F@	c #D99B2D",
"G@	c #D79C2A",
"H@	c #D99D2D",
"I@	c #D89C2C",
"J@	c #D99B2C",
"K@	c #D99E2C",
"L@	c #D99B2E",
"M@	c #DA9F2D",
"N@	c #B37B22",
"O@	c #6E4014",
"P@	c #6F3F17",
"Q@	c #82501C",
"R@	c #CE912A",
"S@	c #CB8D28",
"T@	c #CD8F22",
"U@	c #DA9D2C",
"V@	c #D69B2B",
"W@	c #E1A227",
"X@	c #CF8C24",
"Y@	c #C98E24",
"Z@	c #935E1D",
"`@	c #6F3E14",
" #	c #6E3F14",
".#	c #9C651C",
"+#	c #D19223",
"@#	c #CF8F23",
"##	c #CD8E28",
"$#	c #CA8C21",
"%#	c #CA8C23",
"&#	c #CB8D22",
"*#	c #CB8B25",
"=#	c #CE9024",
"-#	c #AC711F",
";#	c #6D4114",
">#	c #824F18",
",#	c #D19024",
"'#	c #CE8F21",
")#	c #CC8F22",
"!#	c #CA8B26",
"~#	c #CA8A27",
"{#	c #D59421",
"]#	c #D19124",
"^#	c #CF8D28",
"/#	c #CC8E2A",
"(#	c #D5932A",
"_#	c #925D1C",
":#	c #6E3F13",
"<#	c #9C651E",
"[#	c #D39229",
"}#	c #CE8C26",
"|#	c #CD8E23",
"1#	c #CF9027",
"2#	c #CE8E28",
"3#	c #CE8C27",
"4#	c #CF8C28",
"5#	c #CF9024",
"6#	c #6B4013",
"7#	c #714117",
"8#	c #834F18",
"9#	c #D29128",
"0#	c #CD8C24",
"a#	c #CE8E26",
"b#	c #CB8D20",
"c#	c #D89424",
"d#	c #C68E26",
"e#	c #C58C23",
"f#	c #CA8E25",
"g#	c #C98C24",
"h#	c #C68C25",
"i#	c #CA8D1E",
"j#	c #926019",
"k#	c #96641D",
"l#	c #C78F25",
"m#	c #C58F25",
"n#	c #CA8E26",
"o#	c #C78C21",
"p#	c #C98D26",
"q#	c #C88D23",
"r#	c #C98B25",
"s#	c #C98E23",
"t#	c #C88D22",
"u#	c #CA8C25",
"v#	c #C98D20",
"w#	c #AB731F",
"x#	c #815217",
"y#	c #C78E21",
"z#	c #C48E27",
"A#	c #CA8C27",
"B#	c #C78D25",
"C#	c #D08E2A",
"D#	c #804914",
"E#	c #784715",
"F#	c #7A4918",
"G#	c #784713",
"H#	c #774815",
"I#	c #7C4B14",
"J#	c #6F431E",
"K#	c #6F411A",
"L#	c #744419",
"M#	c #7D4812",
"N#	c #794516",
"O#	c #794715",
"P#	c #7A4917",
"Q#	c #794818",
"R#	c #794717",
"S#	c #774715",
"T#	c #794814",
"U#	c #7A4916",
"V#	c #75431A",
"W#	c #704214",
"X#	c #6E4018",
"Y#	c #70421C",
"Z#	c #7E480F",
"`#	c #794619",
" $	c #794813",
".$	c #774914",
"+$	c #814C10",
"@$	c #6F4012",
"#$	c #704014",
"$$	c #6F4118",
"%$	c #704015",
"&$	c #724014",
"*$	c #724114",
"=$	c #6B3F16",
"-$	c #734014",
";$	c #734216",
">$	c #6E4312",
",$	c #764313",
"'$	c #724316",
")$	c #6C4014",
"!$	c #6D4015",
"~$	c #6E4318",
"{$	c #6D4118",
"]$	c #6D3F19",
"^$	c #6E4019",
"/$	c #6C4118",
"($	c #6D4319",
"_$	c #6F4213",
":$	c #6F3F15",
"<$	c #6C4116",
"[$	c #744214",
"}$	c #704215",
"|$	c #714016",
"1$	c #926018",
"2$	c #98641B",
"3$	c #96621B",
"4$	c #A27122",
"5$	c #A67826",
"6$	c #A67726",
"7$	c #A77823",
"8$	c #A67824",
"9$	c #A67722",
"0$	c #754518",
"a$	c #6D4115",
"b$	c #8C5B18",
"c$	c #996319",
"d$	c #95621B",
"e$	c #9E6C1E",
"f$	c #A67625",
"g$	c #A77526",
"h$	c #A47725",
"i$	c #AF7C28",
"j$	c #704313",
"k$	c #784318",
"l$	c #BE871F",
"m$	c #C98925",
"n$	c #E2A736",
"o$	c #ECB63B",
"p$	c #EBB63A",
"q$	c #EDB438",
"r$	c #EDB640",
"s$	c #E8B538",
"t$	c #804D19",
"u$	c #703F17",
"v$	c #6F4110",
"w$	c #B37D21",
"x$	c #CF8D24",
"y$	c #CA8B25",
"z$	c #DA9E30",
"A$	c #EAB636",
"B$	c #ECB53A",
"C$	c #EAB637",
"D$	c #F6BC3B",
"E$	c #75411A",
"F$	c #BE8921",
"G$	c #DFA734",
"H$	c #EBB839",
"I$	c #EAB638",
"J$	c #EBB739",
"K$	c #EBB635",
"L$	c #EAB63E",
"M$	c #EAB639",
"N$	c #7E4D1B",
"O$	c #6D4019",
"P$	c #6E4316",
"Q$	c #B27E22",
"R$	c #CE8D24",
"S$	c #D79F2D",
"T$	c #EAB738",
"U$	c #EAB63C",
"V$	c #F6BD3B",
"W$	c #754115",
"X$	c #C08721",
"Y$	c #CD8E27",
"Z$	c #C98E1D",
"`$	c #DFA630",
" %	c #EDB53B",
".%	c #ECB43A",
"+%	c #EBB43A",
"@%	c #EBB439",
"#%	c #EDB63B",
"$%	c #E8B539",
"%%	c #ECB638",
"&%	c #E9B239",
"*%	c #814C1F",
"=%	c #6F4112",
"-%	c #B47E23",
";%	c #D08F24",
">%	c #D99F2C",
",%	c #ECB53B",
"'%	c #ECB43C",
")%	c #E8B338",
"!%	c #F7BA3F",
"~%	c #714112",
"{%	c #754117",
"]%	c #C18623",
"^%	c #CD8A26",
"/%	c #CD8D29",
"(%	c #D4922A",
"_%	c #D49729",
":%	c #D5952B",
"<%	c #D2972B",
"[%	c #D49828",
"}%	c #7D4814",
"|%	c #724116",
"1%	c #B57B24",
"2%	c #D08D25",
"3%	c #CD8D23",
"4%	c #D29029",
"5%	c #D4962B",
"6%	c #D4982C",
"7%	c #D39729",
"8%	c #E09D2D",
"9%	c #C18723",
"0%	c #CB8E26",
"a%	c #CA9025",
"b%	c #6E4119",
"c%	c #B67F21",
"d%	c #D08E20",
"e%	c #CF9025",
"f%	c #CD8E22",
"g%	c #CD8D28",
"h%	c #D69524",
"i%	c #714319",
"j%	c #724212",
"k%	c #C28826",
"l%	c #D18F25",
"m%	c #CD8F23",
"n%	c #D09025",
"o%	c #CF9023",
"p%	c #CF8F28",
"q%	c #CB9126",
"r%	c #704315",
"s%	c #6E3F12",
"t%	c #B87F1F",
"u%	c #D18F24",
"v%	c #CF8F25",
"w%	c #D3902E",
"x%	c #D89627",
"y%	c #764413",
"z%	c #B07726",
"A%	c #BC7E24",
"B%	c #BB8225",
"C%	c #BB7F1F",
"D%	c #BB8021",
"E%	c #BC8126",
"F%	c #BA7E25",
"G%	c #BC8020",
"H%	c #B87F26",
"I%	c #7C4716",
"J%	c #734017",
"K%	c #A77020",
"L%	c #BE8028",
"M%	c #BB8222",
"N%	c #BB8120",
"O%	c #B97F20",
"P%	c #BB8123",
"Q%	c #BB7E23",
"R%	c #B9801B",
"S%	c #C38421",
"T%	c #6C4312",
"U%	c #714010",
"V%	c #734215",
"W%	c #70401A",
"X%	c #744118",
"Y%	c #734211",
"Z%	c #72430F",
"`%	c #6C4215",
" &	c #714311",
".&	c #723F15",
"+&	c #714212",
"@&	c #723F16",
"#&	c #704110",
"$&	c #744115",
"%&	c #704210",
"&&	c #794413",
"*&	c #714416",
"=&	c #713F16",
"-&	c #704018",
";&	c #6F4218",
">&	c #6F4117",
",&	c #6F4216",
"'&	c #6D3F15",
")&	c #704019",
"!&	c #714119",
"~&	c #704116",
"{&	c #704217",
"]&	c #6E4015",
"^&	c #6F4116",
"/&	c #72411A",
"(&	c #6E401A",
"_&	c #754419",
":&	c #704813",
"<&	c #744410",
"[&	c #734411",
"}&	c #734412",
"|&	c #724312",
"1&	c #724310",
"2&	c #734410",
"3&	c #734413",
"4&	c #744312",
"5&	c #724413",
"6&	c #774817",
"  . + @ # $ % & * = = * - ; > , ' ) ! ~ { ] ^ = = = = = * / ( _ ",
": < [ } | 1 2 3 4 4 4 4 5 6 7 8 9 0 ) a b c d e e e 4 4 f g h i ",
": j k l m m n o * * * * p q r s t u v w x y d z 3 * * * q A B C ",
": D D E F G H I J K K K L M N O P Q v w R y S T T T T T U N V W ",
": X Y Z `  ...+.@.#.@.#.$.G %.&.*.=.v -.;.y >.@.@.@.,.,.'.%.).!.",
": ~.{.].m ^./.(.(.(._.:.,.<.[.}.|.1.2.-.b }.m :.:.:.3.3.@.4.^.5.",
"6.7.8.9.0.a.b.c.b.d.d.d.e.).f.g.h.i.j.k.l.m.n.d.b.o.d.o.p.).q.r.",
"s.t.) u.v.w.x.y.z.A.B.C.A.y.A.D.E.F.v G.H.I.J.K.L.M.N.I.O.P.Q.R.",
"S.T.U.V.=.W.X.Y.Z.`. +Q Y..+U.++@+#+T.$+%+X.&+*+U.#+`.W.=+-+;+>+",
",+'+)+) !+~+-+{+]+Y.^+/+(+_+:+(+<+[+}+|+1+2+3+;+`.F.4+/+5+6+2+7+",
"8+9+0+a+b+c+d+e+f+g+h+i+j+k+l+m+n+o+p+q+r+s+t+u+f+v+w+x+y+z+a+A+",
"B+C+D+E+F+G+H+I+J+K+L+M+N+O+P+Q+R+S+T+* z U+V+W+X+Y+Z+R `+ @A .@",
"+@@@#@$@%@&@*@]+=@-@;@$.>@,@@@'@)@!@~@{@]@^@/@(@_@:@<@[@}@|@1@2@",
"3@4@5@6@7@8@9@0@a@b@c@:.d@5@e@f@e 3 4@g@h@i@j@k@l@m@n@o@p@q@r@s@",
"t@u@v@w@x@y@z@A@<+B@C@D@E@F@G@H@I@J@G@K@L@M@N@O@P@Q@R@S@T@U@V@W@",
"X@:.%.@.Y@b Z@`@ #.#+#@###1 $#%#:.+.y &#*#=#-#;#J+>#,#'#)#!#~#{#",
"]#:.##^#/#(#_#j.:#<#[#}#F |#1#2#[.3#E@3.4#5#-#6#7#8#9#0#,.a#b#c#",
"d#e#f#g#h#i#j#`@O@k#l#m#n#o#p.p#q#r#s#t#u#v#w#u 3+x#y#z#A#B#h#C#",
"D#E#F#G#H#I#J#5+K#L#M#N#O#P#O#Q#*.R#S#T#|.U#V#W#X#Y#Z#`# $E#.$+$",
"[+@$J+[+i.(+k V.. Z.[+[+P@#$e+$$%$&$=+*$i.=$-$. . ~.[+[+) ;$>$,$",
"'$e+=+=+X#&+)$!$=+=+=+-+~$f+{$]$^$Z./$=+=+($_$=+=+=+=+=+!$:$<$[$",
"X }$|$1$2$3$4$5$6$6$6$5$7$8$9$5$0$Y.a$b$c$d$e$5$6$6$6$6$f$g$h$i$",
"X j$k$l$%.m$n$o$5 p$p$p$q$r$f s$t$u$v$w$x$y$z$p$5 p$p$p$A$B$C$D$",
": ;#E$F$$ %#G$H$I$J$I$I$K$L$p$M$N$O$P$Q$R$ .S$T$I$I$J$J$T$@@U$V$",
": D W$X$Y$Z$`$ %B$.%+%@%#%$%%%&%*%:#=%-%;%)#>%,%B$B$.%.%'%{@)%!%",
": ~%{%]%^%/%(%_%_%_%_%_%:%<%[%[%}%'$|%1%2%3%4%_%_%_%_%_%5%6%7%8%",
": X.{.9%x$3.(.>.>.>.>.>.;@0%4.a%U#(@b%c%d%e%f%>.>.>.>.>.T@g%:.h%",
": i%j%k%l%m%,#n%n%n%n%n%o%p%,#q%h.r%s%t%u%F x v%v%v%v%v%E@w%@#x%",
": |$y%z%A%B%C%D%D%D%D%D%E%F%G%H%I%J%|$K%L%M%N%O%O%O%O%O%P%Q%R%S%",
": =%T%U%V%W%X%~.j.j.j.j.#$~.Y%Z%=+~.`% &.&+&@&~.~.~.j.~.#&$&%&&&",
"*&=&/+-&v ;&[+>&>&>&>&>&,&'&)&a@!&5+u ;+)&#+~&=+Q {&]&=.^&/&(&_&",
":&<&[&[&[&[&[&[&[&[&[&[&}&}&}&|&|&[&1&1&Z%2&[&[&1&[&Z%}&3&4&5&6&"};
