/* XPM */
static char * C_xpm[] = {
"32 32 729 2",
"  	c #2B7300",
". 	c #2C6B02",
"+ 	c #286D01",
"@ 	c #296C01",
"# 	c #286C01",
"$ 	c #367001",
"% 	c #4A7C03",
"& 	c #4F7D00",
"* 	c #507D00",
"= 	c #3C7505",
"- 	c #286B01",
"; 	c #2A6E01",
"> 	c #2C6D02",
", 	c #467B02",
"' 	c #527D01",
") 	c #527C01",
"! 	c #537D02",
"~ 	c #417502",
"{ 	c #2D6B03",
"] 	c #2C6A01",
"^ 	c #5B9002",
"/ 	c #719D01",
"( 	c #759802",
"_ 	c #6B9503",
": 	c #2D6F03",
"< 	c #276A02",
"[ 	c #2C7000",
"} 	c #256B01",
"| 	c #2A6602",
"1 	c #2A6800",
"2 	c #286604",
"3 	c #296705",
"4 	c #296603",
"5 	c #346902",
"6 	c #4E7508",
"7 	c #4F7502",
"8 	c #507501",
"9 	c #3A6F07",
"0 	c #2A6A04",
"a 	c #296803",
"b 	c #467203",
"c 	c #4D7703",
"d 	c #4E7500",
"e 	c #4E7601",
"f 	c #4C7603",
"g 	c #4D7601",
"h 	c #4F7700",
"i 	c #3D7001",
"j 	c #276801",
"k 	c #276903",
"l 	c #296404",
"m 	c #5A8A05",
"n 	c #6F9302",
"o 	c #6D9003",
"p 	c #649005",
"q 	c #2B6A01",
"r 	c #2B6601",
"s 	c #2A6700",
"t 	c #286700",
"u 	c #286801",
"v 	c #286807",
"w 	c #276900",
"x 	c #266702",
"y 	c #316B03",
"z 	c #4D7906",
"A 	c #517701",
"B 	c #517606",
"C 	c #3A6E05",
"D 	c #296501",
"E 	c #266601",
"F 	c #2A6900",
"G 	c #4D7305",
"H 	c #4C7905",
"I 	c #4F7702",
"J 	c #4B7705",
"K 	c #4E7604",
"L 	c #537804",
"M 	c #417005",
"N 	c #286601",
"O 	c #2A6904",
"P 	c #296302",
"Q 	c #598A05",
"R 	c #6F9503",
"S 	c #719301",
"T 	c #669007",
"U 	c #306A01",
"V 	c #286603",
"W 	c #2A6A05",
"X 	c #276B03",
"Y 	c #2A6702",
"Z 	c #2C6A02",
"` 	c #588605",
" .	c #5F8804",
"..	c #608802",
"+.	c #538305",
"@.	c #336B05",
"#.	c #356E05",
"$.	c #346A01",
"%.	c #3E7101",
"&.	c #467504",
"*.	c #457504",
"=.	c #457500",
"-.	c #4C7501",
";.	c #4C7706",
">.	c #517602",
",.	c #497403",
"'.	c #366C02",
").	c #326A00",
"!.	c #336B00",
"~.	c #396F03",
"{.	c #477502",
"].	c #467404",
"^.	c #457402",
"/.	c #3E7203",
"(.	c #3C7301",
"_.	c #3D7301",
":.	c #3B7301",
"<.	c #276601",
"[.	c #286A03",
"}.	c #296A01",
"|.	c #296500",
"1.	c #2B6903",
"2.	c #689003",
"3.	c #729506",
"4.	c #749402",
"5.	c #618C03",
"6.	c #266503",
"7.	c #296702",
"8.	c #F2C035",
"9.	c #FEC93F",
"0.	c #FEC93E",
"a.	c #FAC538",
"b.	c #F9C235",
"c.	c #FCC73B",
"d.	c #FECA3E",
"e.	c #FECA3F",
"f.	c #FDC93E",
"g.	c #FAC63B",
"h.	c #FBC63E",
"i.	c #FEC840",
"j.	c #FDCA3F",
"k.	c #DCB041",
"l.	c #507A00",
"m.	c #346803",
"n.	c #266704",
"o.	c #276604",
"p.	c #286701",
"q.	c #2B6901",
"r.	c #286901",
"s.	c #266A02",
"t.	c #276701",
"u.	c #2B6C09",
"v.	c #688E01",
"w.	c #6E9303",
"x.	c #6F9504",
"y.	c #5A8B07",
"z.	c #286702",
"A.	c #296802",
"B.	c #F2B836",
"C.	c #FCC23F",
"D.	c #FCC03C",
"E.	c #FCBF3B",
"F.	c #FBBD39",
"G.	c #FDC03B",
"H.	c #FABD39",
"I.	c #F7BC37",
"J.	c #FABD3A",
"K.	c #FBC03B",
"L.	c #FABE3A",
"M.	c #F6B933",
"N.	c #F7BE3B",
"O.	c #F9C541",
"P.	c #DDAF43",
"Q.	c #4A7800",
"R.	c #375F20",
"S.	c #276A05",
"T.	c #286902",
"U.	c #2A6901",
"V.	c #286705",
"W.	c #276904",
"X.	c #306E02",
"Y.	c #316900",
"Z.	c #326B01",
"`.	c #648B02",
" +	c #6D8E0A",
".+	c #6A9206",
"++	c #578702",
"@+	c #3A6B03",
"#+	c #F8BB34",
"$+	c #F8BD35",
"%+	c #EFA624",
"&+	c #EC9F20",
"*+	c #ED9F20",
"=+	c #EB9E1D",
"-+	c #E59818",
";+	c #E49514",
">+	c #E99618",
",+	c #E99D1D",
"'+	c #EEA021",
")+	c #EA9917",
"!+	c #EFC15F",
"~+	c #F7DD82",
"{+	c #F1DA7F",
"]+	c #487704",
"^+	c #396D01",
"/+	c #346C01",
"(+	c #306C00",
"_+	c #336E01",
":+	c #296804",
"<+	c #2E6800",
"[+	c #4A7907",
"}+	c #4B7703",
"|+	c #4A7602",
"1+	c #306D03",
"2+	c #2E6C03",
"3+	c #2A6B02",
"4+	c #D3A537",
"5+	c #F7BF33",
"6+	c #F8BC31",
"7+	c #F5BD30",
"8+	c #F8BC34",
"9+	c #EA9C1A",
"0+	c #E6930B",
"a+	c #EA9711",
"b+	c #E7940E",
"c+	c #E18C06",
"d+	c #E08C06",
"e+	c #E4900B",
"f+	c #EC9719",
"g+	c #E89012",
"h+	c #F1C463",
"i+	c #FAE389",
"j+	c #F7E688",
"k+	c #F8E68E",
"l+	c #F8E68B",
"m+	c #6B9105",
"n+	c #689001",
"o+	c #658C04",
"p+	c #477404",
"q+	c #457002",
"r+	c #497302",
"s+	c #517802",
"t+	c #4E7702",
"u+	c #4E7701",
"v+	c #2E6901",
"w+	c #2C6500",
"x+	c #266705",
"y+	c #E6AF34",
"z+	c #F9BC32",
"A+	c #F6B830",
"B+	c #F0A720",
"C+	c #ECA621",
"D+	c #EEA723",
"E+	c #EDA523",
"F+	c #F1A926",
"G+	c #F4AD2C",
"H+	c #F4AE2D",
"I+	c #F1AB2A",
"J+	c #ECA726",
"K+	c #F2B035",
"L+	c #F3C265",
"M+	c #F1C163",
"N+	c #F6C259",
"O+	c #F9C965",
"P+	c #FCD16E",
"Q+	c #FBE589",
"R+	c #F9E78A",
"S+	c #DCCB75",
"T+	c #AD9C4C",
"U+	c #AA9A4A",
"V+	c #4C7403",
"W+	c #437203",
"X+	c #487301",
"Y+	c #4F7801",
"Z+	c #4D7705",
"`+	c #4D7603",
" @	c #2B6A04",
".@	c #FDCA34",
"+@	c #FBC232",
"@@	c #FCC033",
"#@	c #FABE33",
"$@	c #F6B62E",
"%@	c #EA920E",
"&@	c #E8920C",
"*@	c #F7B834",
"=@	c #FCC33C",
"-@	c #F8BF39",
";@	c #FAC03B",
">@	c #FDC540",
",@	c #FCC640",
"'@	c #FBC33F",
")@	c #FDCD51",
"!@	c #FDE993",
"~@	c #FAEB97",
"{@	c #FBC257",
"]@	c #FCA61B",
"^@	c #FBB642",
"/@	c #FBE389",
"(@	c #FAE791",
"_@	c #FDE87B",
":@	c #FFE860",
"<@	c #FCE461",
"[@	c #497401",
"}@	c #427402",
"|@	c #467300",
"1@	c #5C8401",
"2@	c #588103",
"3@	c #598102",
"4@	c #497B04",
"5@	c #FBC434",
"6@	c #F9BC31",
"7@	c #F4B12A",
"8@	c #F4AF29",
"9@	c #F5B22B",
"0@	c #F0A724",
"a@	c #EFA321",
"b@	c #FABB38",
"c@	c #FEC540",
"d@	c #FDC33E",
"e@	c #F9BD38",
"f@	c #F8BD38",
"g@	c #FCCC53",
"h@	c #FCD163",
"i@	c #FDD467",
"j@	c #FAE48C",
"k@	c #F8E791",
"l@	c #F9D16C",
"m@	c #FBC155",
"n@	c #FDC559",
"o@	c #FBD26D",
"p@	c #FCD476",
"q@	c #FDD664",
"r@	c #FDD84F",
"s@	c #FAD34F",
"t@	c #588005",
"u@	c #547D04",
"v@	c #528004",
"w@	c #6D9501",
"x@	c #6D9203",
"y@	c #6A9101",
"z@	c #507902",
"A@	c #FAC233",
"B@	c #F7B930",
"C@	c #E69A17",
"D@	c #E89411",
"E@	c #EDA221",
"F@	c #F4BB33",
"G@	c #F8BC36",
"H@	c #FDC23C",
"I@	c #FEC43F",
"J@	c #FEC23D",
"K@	c #F7BC36",
"L@	c #F9D875",
"M@	c #F9E994",
"N@	c #FAE48E",
"O@	c #FBE58C",
"P@	c #FAE88F",
"Q@	c #FCE88B",
"R@	c #FBE88F",
"S@	c #FDDC7F",
"T@	c #FAB33D",
"U@	c #FBAC28",
"V@	c #FCB52D",
"W@	c #FEBF36",
"X@	c #F9BC35",
"Y@	c #4C7604",
"Z@	c #446D01",
"`@	c #447302",
" #	c #6F9702",
".#	c #6E9001",
"+#	c #6C9006",
"@#	c #517904",
"##	c #FBC437",
"$#	c #F5B931",
"%#	c #E89A17",
"&#	c #E8940E",
"*#	c #EEA11F",
"=#	c #F4BB32",
"-#	c #F6BA31",
";#	c #F8BD37",
">#	c #FDC23D",
",#	c #FDC13C",
"'#	c #F9BA33",
")#	c #F6CE68",
"!#	c #F9DC7E",
"~#	c #F9DD83",
"{#	c #FAE78B",
"]#	c #FCE78D",
"^#	c #FDE688",
"/#	c #FCE788",
"(#	c #FDDB76",
"_#	c #FBAE36",
":#	c #FBA621",
"<#	c #FAB22A",
"[#	c #FEC132",
"}#	c #FABD33",
"|#	c #437300",
"1#	c #487401",
"2#	c #6E9603",
"3#	c #688F00",
"4#	c #668F03",
"5#	c #507901",
"6#	c #FDCA3E",
"7#	c #F8BC37",
"8#	c #E79A18",
"9#	c #E7930E",
"0#	c #EEA121",
"a#	c #FBC03A",
"b#	c #F7BD35",
"c#	c #F5BB32",
"d#	c #F8BD39",
"e#	c #FDBF3D",
"f#	c #FDB332",
"g#	c #FAAC2A",
"h#	c #F9B13A",
"i#	c #FBB441",
"j#	c #F9BE52",
"k#	c #FAE58A",
"l#	c #FCE890",
"m#	c #FCE477",
"n#	c #FEE269",
"o#	c #FAD459",
"p#	c #EF9E21",
"q#	c #ED950B",
"r#	c #F3A921",
"s#	c #FEC031",
"t#	c #FBBD34",
"u#	c #557B04",
"v#	c #487403",
"w#	c #4C7800",
"x#	c #4B7401",
"y#	c #497504",
"z#	c #487201",
"A#	c #EA9F1F",
"B#	c #E28E08",
"C#	c #EDA120",
"D#	c #FCC23D",
"E#	c #FCC53F",
"F#	c #FDC23F",
"G#	c #FDC443",
"H#	c #FDC13F",
"I#	c #FBAF2B",
"J#	c #FBAA26",
"K#	c #FCA922",
"L#	c #FEA926",
"M#	c #FCB543",
"N#	c #FEE48A",
"O#	c #FFE892",
"P#	c #FCE474",
"Q#	c #FFE161",
"R#	c #F8D34F",
"S#	c #EB9919",
"T#	c #E99003",
"U#	c #F2A71E",
"V#	c #FEC032",
"W#	c #FCBC34",
"X#	c #699005",
"Y#	c #669202",
"Z#	c #699300",
"`#	c #487402",
" $	c #466F02",
".$	c #447103",
"+$	c #457102",
"@$	c #FCCA3E",
"#$	c #FCC13D",
"$$	c #EFA323",
"%$	c #E5910B",
"&$	c #E99B1B",
"*$	c #FCBF3A",
"=$	c #FCD570",
"-$	c #FCDE7D",
";$	c #FCD46A",
">$	c #F9B938",
",$	c #FCAF28",
"'$	c #FDAA24",
")$	c #FCB538",
"!$	c #FCE06E",
"~$	c #FEE472",
"{$	c #FDE267",
"]$	c #F8D353",
"^$	c #EB991C",
"/$	c #E89003",
"($	c #F1A61E",
"_$	c #FCBD35",
":$	c #6C9102",
"<$	c #6F9601",
"[$	c #F7C336",
"}$	c #F9BD37",
"|$	c #EFA322",
"1$	c #E99610",
"2$	c #EA9D1A",
"3$	c #F9BE37",
"4$	c #FADC79",
"5$	c #FAE990",
"6$	c #FBDC7B",
"7$	c #FAC03E",
"8$	c #FCBE31",
"9$	c #FCB32C",
"0$	c #FBAA22",
"a$	c #FDB32F",
"b$	c #FEDD5C",
"c$	c #FDE05E",
"d$	c #FEE15E",
"e$	c #FEE260",
"f$	c #F8D352",
"g$	c #EB991B",
"h$	c #F2A71F",
"i$	c #FEC133",
"j$	c #F4BF32",
"k$	c #F5B830",
"l$	c #EB9F1B",
"m$	c #E99612",
"n$	c #EDA834",
"o$	c #FAD064",
"p$	c #F9D064",
"q$	c #F8DE81",
"r$	c #F9E68F",
"s$	c #FBDE7A",
"t$	c #FCC13E",
"u$	c #FCBF33",
"v$	c #FDB129",
"w$	c #FDAC24",
"x$	c #FBB630",
"y$	c #FDDE5C",
"z$	c #FED856",
"A$	c #FED34E",
"B$	c #FAC645",
"C$	c #EB9716",
"D$	c #FDC033",
"E$	c #FBBD35",
"F$	c #F7C034",
"G$	c #F5B72F",
"H$	c #E79B16",
"I$	c #E99411",
"J$	c #EFAD49",
"K$	c #FDE48F",
"L$	c #F9E28A",
"M$	c #FAE68D",
"N$	c #FCE98E",
"O$	c #FADE7B",
"P$	c #FDC33A",
"Q$	c #FCBE32",
"R$	c #FDB32A",
"S$	c #FDAB25",
"T$	c #FEB233",
"U$	c #FEDD5D",
"V$	c #FBE463",
"W$	c #FECD4C",
"X$	c #FFC331",
"Y$	c #F8B72C",
"Z$	c #EA940D",
"`$	c #F0A61F",
" %	c #FCC83C",
".%	c #EFA524",
"+%	c #EE9C1D",
"@%	c #F1B049",
"#%	c #F8E48A",
"$%	c #F9E589",
"%%	c #F8E788",
"&%	c #FBE686",
"*%	c #FCDE78",
"=%	c #FCC645",
"-%	c #FDC53E",
";%	c #FDBE38",
">%	c #FDB736",
",%	c #FDBC3A",
"'%	c #FDDA55",
")%	c #FDDE59",
"!%	c #FECA45",
"~%	c #FEC131",
"{%	c #F9B72B",
"]%	c #EC940B",
"^%	c #F0A620",
"/%	c #FDCD41",
"(%	c #FCC240",
"_%	c #FBB436",
":%	c #FAAC2B",
"<%	c #F8B84C",
"[%	c #FAE386",
"}%	c #FCE272",
"|%	c #FCE066",
"1%	c #FCE062",
"2%	c #FEDD5B",
"3%	c #FEDC59",
"4%	c #FDDB58",
"5%	c #FED855",
"6%	c #FCC63C",
"7%	c #FDC53A",
"8%	c #FCC235",
"9%	c #FDC032",
"0%	c #FAB72C",
"a%	c #EB950C",
"b%	c #F1A71F",
"c%	c #FEC033",
"d%	c #FCBE34",
"e%	c #F8C43A",
"f%	c #F8BE38",
"g%	c #FBAF30",
"h%	c #FAA929",
"i%	c #F9B94E",
"j%	c #FBE68D",
"k%	c #FBE78F",
"l%	c #FDE36E",
"m%	c #FEE160",
"n%	c #FEE15F",
"o%	c #FEE25F",
"p%	c #FDE362",
"q%	c #FDC237",
"r%	c #FFBE34",
"s%	c #FDC034",
"t%	c #FDC133",
"u%	c #F8B82D",
"v%	c #E9960E",
"w%	c #E88F05",
"x%	c #FDC132",
"y%	c #FCBD34",
"z%	c #FBE582",
"A%	c #F6DA7C",
"B%	c #F8D87A",
"C%	c #F9D97C",
"D%	c #FBD06B",
"E%	c #FBBA46",
"F%	c #FBB943",
"G%	c #FDD759",
"H%	c #FEE05F",
"I%	c #FFE15F",
"J%	c #FFE15E",
"K%	c #FED24D",
"L%	c #FDC840",
"M%	c #FDC73F",
"N%	c #FDC234",
"O%	c #FEC234",
"P%	c #F3AD22",
"Q%	c #EE9B13",
"R%	c #F1A219",
"S%	c #F7B428",
"T%	c #F8B62A",
"U%	c #FABA2E",
"V%	c #FCF397",
"W%	c #FCEB8E",
"X%	c #FBE88E",
"Y%	c #F9E78F",
"Z%	c #FADD80",
"`%	c #FCA91F",
" &	c #FCA920",
".&	c #FDD554",
"+&	c #FEE360",
"@&	c #FFE461",
"#&	c #FEE361",
"$&	c #FDCF47",
"%&	c #FDC233",
"&&	c #FFC436",
"*&	c #F1A41C",
"=&	c #E88C00",
"-&	c #ED9911",
";&	c #FABD2F",
">&	c #FDC134",
",&	c #FFC533",
"'&	c #FDC232",
")&	c #E3D072",
"!&	c #FAE176",
"~&	c #FBDC6E",
"{&	c #FCC949",
"]&	c #FDC949",
"^&	c #FDC644",
"/&	c #FEC544",
"(&	c #FBC241",
"_&	c #F3B93B",
":&	c #F2B83A",
"<&	c #F1AE2B",
"[&	c #F0A71F",
"}&	c #F1A71E",
"|&	c #F2A81E",
"1&	c #F5AB24",
"2&	c #F6B027",
"3&	c #FCBF2F",
"4&	c #FCBF32",
"5&	c #D1C354",
"6&	c #FBDE5F",
"7&	c #FAE260",
"8&	c #FEDE5C",
"9&	c #FEDF5D",
"0&	c #FFBB39",
"a&	c #FEAC24",
"b&	c #FAA61E",
"c&	c #EA9209",
"d&	c #E89105",
"e&	c #E79102",
"f&	c #E99002",
"g&	c #E99102",
"h&	c #E78D01",
"i&	c #F4AD22",
"j&	c #FCC134",
"k&	c #FDBF32",
"l&	c #FEC035",
"m&	c #FBBF37",
"n&	c #2E581B",
"o&	c #DAC655",
"p&	c #E0CF5A",
"q&	c #FBDF60",
"r&	c #FFBE3C",
"s&	c #FEB028",
"t&	c #FAAB23",
"u&	c #ED9C16",
"v&	c #ED9B15",
"w&	c #EE9B14",
"x&	c #ED9B14",
"y&	c #EC9C14",
"z&	c #EC9A13",
"A&	c #F7B127",
"B&	c #F6BB33",
"C&	c #336A04",
"D&	c #F4DB5B",
"E&	c #FEE060",
"F&	c #FEC73F",
"G&	c #FFBF34",
"H&	c #FDBE31",
"I&	c #FCBD2F",
"J&	c #FCBD31",
"K&	c #FCBE30",
"L&	c #FCBD30",
"M&	c #FBBD2F",
"N&	c #FBBF32",
"O&	c #DAA931",
"P&	c #F3DD5C",
"Q&	c #FDE462",
"R&	c #FECB3F",
"S&	c #FEC332",
"T&	c #DAAB34",
"  . + @ + # $ % & * = - ; > , ' ) ) ) ! ! ~ { @ ] ^ / ( _ : < [ ",
"} | 1 2 3 4 5 6 7 8 9 4 0 a b c d e f g h i j k l m n o p q r s ",
"< t u v w x y z A B C D E F G H h I J K L M N O P Q R S T U V W ",
"X Y Z `  ...+.@.#.$.%.&.*.=.-.;.>.,.'.).!.~.{.].^./.(._.:.<.u [.",
"}.|.1.2.3.4.5.6.7.8.9.0.a.b.c.d.d.e.f.g.h.i.j.k.l.m.n.o.p.Y q.r.",
"s.t.u.v.w.x.y.z.A.B.C.D.E.F.G.H.I.J.K.L.M.N.O.P.Q.R.S.T.U.V.7.W.",
"X.Y.Z.`. +.+++@+X.#+$+%+&+*+=+-+;+>+,+'+)+!+~+{+]+^+/+(+_+:+<+).",
"[+}+|+1+2+3+4+5+6+7+8+9+0+a+a+b+c+d+e+f+g+h+i+j+k+l+m+n+o+p+q+r+",
"s+t+u+v+w+x+y+z+A+B+C+D+E+F+G+H+I+J+K+L+M+N+O+P+Q+R+S+T+U+V+W+X+",
"Y+Z+`+ @.@+@@@#@$@%@&@*@=@-@;@>@,@'@)@!@~@{@]@^@/@(@_@:@<@[@}@|@",
"1@2@3@4@5@6@7@8@9@0@a@b@c@d@e@f@g@h@i@j@k@l@m@n@o@p@q@r@s@t@u@v@",
"w@x@y@z@A@B@C@D@E@$+F@G@H@I@J@K@L@M@N@O@P@Q@R@S@T@U@V@W@X@Y@Z@`@",
" #.#+#@###$#%#&#*#$+=#-#;#>#,#'#)#!#~#{#]#^#/#(#_#:#<#[#}#-.|#1#",
"2#3#4#5#6#7#8#9#0#a#b#c#d#e#f#g#h#i#j#k#l#m#n#o#p#q#r#s#t#u#v#t+",
"w#x#y#z#j.D.A#B#C#D#E#F#G#H#I#J#K#L#M#N#O#P#Q#R#S#T#U#V#W#X#Y#Z#",
"`# $.$+$@$#$$$%$&$*$E#=$-$;$>$V@,$'$)$!$~${$Q#]$^$/$($V#_$w.:$<$",
"`# $.$+$[$}$|$1$2$-#3$4$5$6$7$8$9$0$a$b$c$d$e$f$g$T#h$i$_$w.:$<$",
"w#x#y#z#j$k$l$m$n$o$p$q$r$s$t$u$v$w$x$y$e$z$A$B$C$T#($D$E$X#Y#Z#",
"2#3#4#5#F$G$H$I$J$K$L$M$N$O$P$Q$R$S$T$U$V$W$X$Y$Z$T#`$V#t#u#v#t+",
" #.#+#@# %}$.%+%@%#%$%%%&%*%=%-%;%>%,%'%)%!%~%{%]%T#^%V#t#-.|#1#",
"w@x@y@z@/%(%_%:%<%[%O@}%|%1%2%2%3%4%5%6%7%8%9%0%a%T#b%c%d%Y@Z@`@",
"1@2@3@4@e%f%g%h%i%j%k%l%m%m%n%d$o%p%2%q%r%s%t%u%v%w%($x%y%t@u@v@",
"Y+Z+`+ @z%A%B%C%D%E%F%G%H%I%I%J%K%L%M%N%O%P%Q%R%S%T%U%D$y%[@}@|@",
"s+t+u+v+V%W%X%Y%Z%`% &.&+&+&@&#&$&%&~%N%&&*&=&-&;&>&O%,&'&V+W+X+",
"[+}+|+1+2+3+)&!&~&{&]&^&/&(&_&:&<&[&}&b%b%|&1&2&3&4&m+n+o+p+q+r+",
"X.Y.Z.`. +.+5&6&7&8&9&0&a&b&c&d&e&f&g&/$h&i&j&k&l&m&/+(+n&:+<+).",
"s.t.u.v.w.x.y.o&p&q&m%r&s&t&u&v&w&x&v&y&z&A&s%B&Q.C&S.T.U.V.7.W.",
"}.|.1.2.3.4.5.6.7.D&E&F&G&H&I&I&J&K&K&L&M&N&c%O&l.m.n.o.p.Y q.r.",
"X Y Z `  ...+.@.#.P&Q&R&S&S&S&S&S&S&S&S&S&S&S&T&^./.(._.:.<.u [.",
"< t u v w x y z A B C D E F G H h I J K L M N O P Q R S T U V W ",
"} | 1 2 3 4 5 6 7 8 9 4 0 a b c d e f g h i j k l m n o p q r s ",
"  . + @ + # $ % & * = - ; > , ' ) ) ) ! ! ~ { @ ] ^ / ( _ : < [ "};
