/* XPM */
static char * E1_xpm[] = {
"32 32 697 2",
"  	c #2B7300",
". 	c #2C6B02",
"+ 	c #286D01",
"@ 	c #296C01",
"# 	c #286C01",
"$ 	c #367001",
"% 	c #4A7C03",
"& 	c #4F7D00",
"* 	c #507D00",
"= 	c #3C7505",
"- 	c #286B01",
"; 	c #2A6E01",
"> 	c #2C6D02",
", 	c #467B02",
"' 	c #527D01",
") 	c #527C01",
"! 	c #537D02",
"~ 	c #417502",
"{ 	c #2D6B03",
"] 	c #2C6A01",
"^ 	c #5B9002",
"/ 	c #719D01",
"( 	c #759802",
"_ 	c #6B9503",
": 	c #2D6F03",
"< 	c #276A02",
"[ 	c #2C7000",
"} 	c #256B01",
"| 	c #2A6602",
"1 	c #2A6800",
"2 	c #286604",
"3 	c #296705",
"4 	c #296603",
"5 	c #346902",
"6 	c #4E7508",
"7 	c #4F7502",
"8 	c #507501",
"9 	c #3A6F07",
"0 	c #2A6A04",
"a 	c #296803",
"b 	c #467203",
"c 	c #4D7703",
"d 	c #4E7500",
"e 	c #4E7601",
"f 	c #4C7603",
"g 	c #4D7601",
"h 	c #4F7700",
"i 	c #3D7001",
"j 	c #276801",
"k 	c #276903",
"l 	c #296404",
"m 	c #5A8A05",
"n 	c #6F9302",
"o 	c #6D9003",
"p 	c #649005",
"q 	c #2B6A01",
"r 	c #2B6601",
"s 	c #2A6700",
"t 	c #286700",
"u 	c #286801",
"v 	c #286807",
"w 	c #276900",
"x 	c #266702",
"y 	c #316B03",
"z 	c #4D7906",
"A 	c #517701",
"B 	c #517606",
"C 	c #3A6E05",
"D 	c #2A6718",
"E 	c #2E774B",
"F 	c #347C50",
"G 	c #45B0A8",
"H 	c #42B9B9",
"I 	c #42B9BA",
"J 	c #45B1A9",
"K 	c #4E854F",
"L 	c #51834B",
"M 	c #537A1A",
"N 	c #417005",
"O 	c #286601",
"P 	c #2A6904",
"Q 	c #296302",
"R 	c #598A05",
"S 	c #6F9503",
"T 	c #719301",
"U 	c #669007",
"V 	c #306A01",
"W 	c #286603",
"X 	c #2A6A05",
"Y 	c #276B03",
"Z 	c #2A6702",
"` 	c #2C6A02",
" .	c #588605",
"..	c #5F8804",
"+.	c #608802",
"@.	c #538305",
"#.	c #336B05",
"$.	c #356E05",
"%.	c #346A01",
"&.	c #41835A",
"*.	c #4C9C83",
"=.	c #55BEC0",
"-.	c #61C1C4",
";.	c #5EC1C5",
">.	c #65979D",
",.	c #649AA0",
"'.	c #5EC7CB",
").	c #60BFC3",
"!.	c #5FC0C2",
"~.	c #459782",
"{.	c #408057",
"].	c #477502",
"^.	c #467404",
"/.	c #457402",
"(.	c #3E7203",
"_.	c #3C7301",
":.	c #3D7301",
"<.	c #3B7301",
"[.	c #276601",
"}.	c #286A03",
"|.	c #296A01",
"1.	c #296500",
"2.	c #2B6903",
"3.	c #689003",
"4.	c #729506",
"5.	c #749402",
"6.	c #618C03",
"7.	c #266503",
"8.	c #296702",
"9.	c #3B8D73",
"0.	c #54BBBA",
"a.	c #62B7BB",
"b.	c #5EB0B4",
"c.	c #5D898E",
"d.	c #567E80",
"e.	c #595F5F",
"f.	c #5A6061",
"g.	c #588082",
"h.	c #5C8C91",
"i.	c #60B4B9",
"j.	c #61B6BA",
"k.	c #55BABA",
"l.	c #54916C",
"m.	c #507503",
"n.	c #507A00",
"o.	c #346803",
"p.	c #266704",
"q.	c #276604",
"r.	c #286701",
"s.	c #2B6901",
"t.	c #286901",
"u.	c #266A02",
"v.	c #276701",
"w.	c #2B6C09",
"x.	c #688E01",
"y.	c #6E9303",
"z.	c #6F9504",
"A.	c #5A8B07",
"B.	c #286702",
"C.	c #3B856A",
"D.	c #5FA7A9",
"E.	c #64B5B9",
"F.	c #598D91",
"G.	c #5D6363",
"H.	c #6D534A",
"I.	c #9D4B22",
"J.	c #9C4F2D",
"K.	c #974C2D",
"L.	c #853E1F",
"M.	c #74574C",
"N.	c #5B6566",
"O.	c #5C9B9E",
"P.	c #65B3B8",
"Q.	c #63A9AA",
"R.	c #57916E",
"S.	c #4A7800",
"T.	c #336A04",
"U.	c #276A05",
"V.	c #286902",
"W.	c #2A6901",
"X.	c #286705",
"Y.	c #276904",
"Z.	c #306E02",
"`.	c #316900",
" +	c #326B01",
".+	c #648B02",
"++	c #6D8E0A",
"@+	c #6A9206",
"#+	c #578702",
"$+	c #3F7C56",
"%+	c #53B8B7",
"&+	c #66ABB0",
"*+	c #5E797E",
"=+	c #815445",
"-+	c #9B5032",
";+	c #AD5A38",
">+	c #CA6839",
",+	c #BD6743",
"'+	c #B56442",
")+	c #B35C36",
"!+	c #CA683B",
"~+	c #994D2E",
"{+	c #72584F",
"]+	c #5F7F84",
"^+	c #66B1B6",
"/+	c #6ABEBD",
"(+	c #588659",
"_+	c #396D01",
":+	c #346C01",
"<+	c #306C00",
"[+	c #336E01",
"}+	c #296804",
"|+	c #2E6800",
"1+	c #326A00",
"2+	c #4A7907",
"3+	c #4B7703",
"4+	c #4A7602",
"5+	c #306D03",
"6+	c #2E6C03",
"7+	c #2A6B02",
"8+	c #417710",
"9+	c #62A37E",
"0+	c #62B5BA",
"a+	c #5A878C",
"b+	c #77483B",
"c+	c #C66535",
"d+	c #C86C44",
"e+	c #BD6541",
"f+	c #CE6A3B",
"g+	c #C06945",
"h+	c #BA6644",
"i+	c #B55E38",
"j+	c #D57144",
"k+	c #CC6C44",
"l+	c #A5522E",
"m+	c #7A5043",
"n+	c #5A9095",
"o+	c #60B1B5",
"p+	c #418F79",
"q+	c #5B8610",
"r+	c #6B9105",
"s+	c #689001",
"t+	c #658C04",
"u+	c #477404",
"v+	c #457002",
"w+	c #497302",
"x+	c #517802",
"y+	c #4E7702",
"z+	c #4E7701",
"A+	c #2E6901",
"B+	c #2C6500",
"C+	c #266705",
"D+	c #41804B",
"E+	c #54B7B9",
"F+	c #649DA3",
"G+	c #5E5858",
"H+	c #9F5436",
"I+	c #CB6837",
"J+	c #CC6E45",
"K+	c #BC6441",
"L+	c #CB693B",
"M+	c #C96C44",
"N+	c #C26943",
"O+	c #D17044",
"P+	c #CC6D46",
"Q+	c #AE5933",
"R+	c #B95F35",
"S+	c #596062",
"T+	c #63A9AE",
"U+	c #64B1B3",
"V+	c #5F8F44",
"W+	c #6E9502",
"X+	c #6E9505",
"Y+	c #6A8F01",
"Z+	c #4C7403",
"`+	c #437203",
" @	c #487301",
".@	c #4F7801",
"+@	c #4D7705",
"@@	c #4D7603",
"#@	c #2B6A04",
"$@	c #296700",
"%@	c #246501",
"&@	c #438353",
"*@	c #60CBCE",
"=@	c #579498",
"-@	c #7E4E3F",
";@	c #B2613F",
">@	c #C96837",
",@	c #C86C46",
"'@	c #BD6540",
")@	c #CA693B",
"!@	c #CC6D44",
"~@	c #C36943",
"{@	c #CF7044",
"]@	c #AD5834",
"^@	c #CF6D40",
"/@	c #74554C",
"(@	c #5B999E",
"_@	c #59BBBF",
":@	c #5B944D",
"<@	c #6A9200",
"[@	c #497401",
"}@	c #427402",
"|@	c #467300",
"1@	c #5C8401",
"2@	c #588103",
"3@	c #598102",
"4@	c #497B04",
"5@	c #487902",
"6@	c #467903",
"7@	c #4DA898",
"8@	c #5EC0C4",
"9@	c #5F7475",
"0@	c #A15434",
"a@	c #B66441",
"b@	c #C96738",
"c@	c #C26B46",
"d@	c #B86441",
"e@	c #CD6D44",
"f@	c #CE6F44",
"g@	c #B25A33",
"h@	c #D27042",
"i@	c #924F36",
"j@	c #5B7E82",
"k@	c #5BC0C3",
"l@	c #549F8C",
"m@	c #608902",
"n@	c #5F8801",
"o@	c #5E8700",
"p@	c #588005",
"q@	c #547D04",
"r@	c #528004",
"s@	c #6D9501",
"t@	c #6D9203",
"u@	c #6A9101",
"v@	c #507902",
"w@	c #4C7701",
"x@	c #4A7502",
"y@	c #42B6B6",
"z@	c #60A9AE",
"A@	c #756F6A",
"B@	c #BD6338",
"C@	c #B96642",
"D@	c #BF6A46",
"E@	c #B36241",
"F@	c #CC6A3B",
"G@	c #CB6D44",
"H@	c #C36944",
"I@	c #C46B45",
"J@	c #B15A33",
"K@	c #D47244",
"L@	c #A35736",
"M@	c #617475",
"N@	c #62B6BB",
"O@	c #4BA7A8",
"P@	c #446F02",
"Q@	c #457302",
"R@	c #4D7504",
"S@	c #4C7604",
"T@	c #446D01",
"U@	c #447302",
"V@	c #6F9702",
"W@	c #6E9001",
"X@	c #6C9006",
"Y@	c #517904",
"Z@	c #4B7401",
"`@	c #42B3B4",
" #	c #729398",
".#	c #986454",
"+#	c #B85D2F",
"@#	c #B55E35",
"##	c #B95C2F",
"$#	c #B65E35",
"%#	c #B25B33",
"&#	c #BB5E30",
"*#	c #BA5F34",
"=#	c #B3592F",
"-#	c #BB5F34",
";#	c #B1582E",
">#	c #BD6134",
",#	c #AF5930",
"'#	c #8E6961",
")#	c #6CA3A8",
"!#	c #49A5A6",
"~#	c #477305",
"{#	c #467200",
"]#	c #4C7704",
"^#	c #4C7501",
"/#	c #437300",
"(#	c #487401",
"_#	c #6E9603",
":#	c #688F00",
"<#	c #668F03",
"[#	c #507901",
"}#	c #4B7701",
"|#	c #3EBCBC",
"1#	c #7CB5B5",
"2#	c #BE6740",
"3#	c #C86F4B",
"4#	c #C3755A",
"5#	c #C56A43",
"6#	c #C4714F",
"7#	c #C47456",
"8#	c #C66941",
"9#	c #C56D47",
"0#	c #C3785D",
"a#	c #C56941",
"b#	c #C56E4B",
"c#	c #C47557",
"d#	c #C56B45",
"e#	c #C56F4B",
"f#	c #C4765A",
"g#	c #A86E59",
"h#	c #69BDBF",
"i#	c #47ABAC",
"j#	c #457001",
"k#	c #487202",
"l#	c #4C7803",
"m#	c #557B04",
"n#	c #487403",
"o#	c #4C7800",
"p#	c #497504",
"q#	c #487201",
"r#	c #467201",
"s#	c #477003",
"t#	c #43B2B3",
"u#	c #708F94",
"v#	c #835E54",
"w#	c #964825",
"x#	c #944929",
"y#	c #984927",
"z#	c #974A2B",
"A#	c #924829",
"B#	c #984A28",
"C#	c #974A2A",
"D#	c #94492A",
"E#	c #954727",
"F#	c #994C2B",
"G#	c #944A2B",
"H#	c #904526",
"I#	c #9B4C2A",
"J#	c #914524",
"K#	c #776461",
"L#	c #6AA0A6",
"M#	c #4AA4A5",
"N#	c #608A02",
"O#	c #608A04",
"P#	c #5F8901",
"Q#	c #699005",
"R#	c #669202",
"S#	c #699300",
"T#	c #487402",
"U#	c #466F02",
"V#	c #447103",
"W#	c #457102",
"X#	c #447204",
"Y#	c #457004",
"Z#	c #40B8B8",
"`#	c #5EB0B5",
" $	c #72736F",
".$	c #B55C31",
"+$	c #B05D3A",
"@$	c #BD5F31",
"#$	c #BC633E",
"$$	c #A8593A",
"%$	c #BE6134",
"&$	c #BD633C",
"*$	c #AE5D3C",
"=$	c #B35931",
"-$	c #C0653D",
";$	c #AF5F3F",
">$	c #A0502E",
",$	c #CC6A3D",
"'$	c #A9542F",
")$	c #5F7B7B",
"!$	c #60BDC1",
"~$	c #48A8A9",
"{$	c #6E9503",
"]$	c #6C9405",
"^$	c #6B9201",
"/$	c #6C9102",
"($	c #6F9601",
"_$	c #42B5B6",
":$	c #62A2A7",
"<$	c #7B6D67",
"[$	c #B46441",
"}$	c #A16754",
"|$	c #CA6D46",
"1$	c #B66341",
"2$	c #C16844",
"3$	c #BC6138",
"4$	c #D07045",
"5$	c #BE6946",
"6$	c #AB5834",
"7$	c #E17745",
"8$	c #B45D38",
"9$	c #647172",
"0$	c #63B1B6",
"a$	c #49A7A7",
"b$	c #40B9B9",
"c$	c #5DB4B8",
"d$	c #7A7771",
"e$	c #A96245",
"f$	c #8C695E",
"g$	c #C7683A",
"h$	c #C66C46",
"i$	c #BC6540",
"j$	c #CB6B43",
"k$	c #B65F38",
"l$	c #D27044",
"m$	c #C16A46",
"n$	c #E27744",
"o$	c #B25C37",
"p$	c #637E7E",
"q$	c #5FC1C5",
"r$	c #48A9AA",
"s$	c #41B5B6",
"t$	c #62A0A6",
"u$	c #7B6C66",
"v$	c #BA633C",
"w$	c #9E5C44",
"x$	c #C86738",
"y$	c #BB6441",
"z$	c #C36A44",
"A$	c #CC6B43",
"B$	c #C26A46",
"C$	c #B75E37",
"D$	c #647071",
"E$	c #63B1B5",
"F$	c #7A6C66",
"G$	c #C36A45",
"H$	c #D37144",
"I$	c #C56B46",
"J$	c #D97344",
"K$	c #B45D37",
"L$	c #637071",
"M$	c #63B0B5",
"N$	c #49A6A7",
"O$	c #5DB6BA",
"P$	c #7A7872",
"Q$	c #AB6245",
"R$	c #8F685C",
"S$	c #C76739",
"T$	c #BA6441",
"U$	c #CD6A3B",
"V$	c #C26A45",
"W$	c #D77244",
"X$	c #CE6E45",
"Y$	c #D87344",
"Z$	c #B85E36",
"`$	c #617E7E",
" %	c #5FC1C4",
".%	c #659299",
"+%	c #7C645E",
"@%	c #B36442",
"#%	c #A06856",
"$%	c #BE6A46",
"%%	c #B96441",
"&%	c #BF6743",
"*%	c #CC6D45",
"=%	c #AC5834",
"-%	c #D67344",
";%	c #AF5C38",
">%	c #646667",
",%	c #66A3AA",
"'%	c #3FBABB",
")%	c #5BBDC0",
"!%	c #787B76",
"~%	c #C16539",
"{%	c #B86542",
"]%	c #C86737",
"^%	c #BF6944",
"/%	c #B76543",
"(%	c #B86038",
"_%	c #D67244",
":%	c #C86C45",
"<%	c #AF5934",
"[%	c #D57244",
"}%	c #A85937",
"|%	c #608383",
"1%	c #5DC8CB",
"2%	c #48AAAB",
"3%	c #42B4B4",
"4%	c #6A989E",
"5%	c #80645C",
"6%	c #AC572E",
"7%	c #A75736",
"8%	c #B0572D",
"9%	c #AB5938",
"0%	c #A75635",
"a%	c #B2592F",
"b%	c #AA5836",
"c%	c #A45737",
"d%	c #A6522D",
"e%	c #BC6036",
"f%	c #A24F2A",
"g%	c #B85F36",
"h%	c #9A4F2E",
"i%	c #726968",
"j%	c #67A8AE",
"k%	c #3FB9BA",
"l%	c #7DAAAA",
"m%	c #C26940",
"n%	c #D37247",
"o%	c #CF7753",
"p%	c #D16F41",
"q%	c #D0734B",
"r%	c #D07650",
"s%	c #D26E40",
"t%	c #D17145",
"u%	c #CF7956",
"v%	c #D17247",
"w%	c #CF764F",
"x%	c #D16F43",
"y%	c #D07247",
"z%	c #D07752",
"A%	c #B26E55",
"B%	c #6DB5B7",
"C%	c #41B4B5",
"D%	c #769498",
"E%	c #975F4C",
"F%	c #A05332",
"G%	c #9C5439",
"H%	c #9D5131",
"I%	c #9C5336",
"J%	c #9B5338",
"K%	c #9D5030",
"L%	c #9C5233",
"M%	c #9B553B",
"N%	c #9C5030",
"O%	c #9F5334",
"P%	c #9C5437",
"Q%	c #9A4F31",
"R%	c #9E5334",
"S%	c #995236",
"T%	c #85635B",
"U%	c #6BA4A9",
"V%	c #49A6A6",
"W%	c #40B8B9",
"X%	c #5EB2B6",
"Y%	c #6F7370",
"Z%	c #B0572B",
"`%	c #AC5A38",
" &	c #A55533",
".&	c #B0582E",
"+&	c #AF5B36",
"@&	c #AF5935",
"#&	c #A1502C",
"$&	c #BA6036",
"%&	c #9A4B28",
"&&	c #BA6037",
"*&	c #954A2A",
"=&	c #5F7B7C",
"-&	c #5FBFC3",
";&	c #62A3A8",
">&	c #7A6D68",
",&	c #C66739",
"'&	c #C86A42",
")&	c #CB6838",
"!&	c #CA6A3B",
"~&	c #C56A44",
"{&	c #C76C46",
"]&	c #D67345",
"^&	c #A75A39",
"/&	c #637272",
"(&	c #63B2B7",
"_&	c #49A7A8",
":&	c #44AFB0",
"<&	c #638B92",
"[&	c #795F5A",
"}&	c #BF6438",
"|&	c #BE6640",
"1&	c #C66536",
"2&	c #C46A44",
"3&	c #B0603F",
"4&	c #C9683A",
"5&	c #C96C42",
"6&	c #BC6641",
"7&	c #BA5F36",
"8&	c #CB6D43",
"9&	c #B96744",
"0&	c #A65632",
"a&	c #D17043",
"b&	c #A45837",
"c&	c #626263",
"d&	c #639DA3",
"e&	c #4DA2A3",
"f&	c #296501",
"g&	c #266601",
"h&	c #2A6900",
"i&	c #4D7305",
"j&	c #4C7905",
"k&	c #4F7702",
"l&	c #4B7705",
"m&	c #4E7604",
"n&	c #537804",
"  . + @ + # $ % & * = - ; > , ' ) ) ) ! ! ~ { @ ] ^ / ( _ : < [ ",
"} | 1 2 3 4 5 6 7 8 9 4 0 a b c d e f g h i j k l m n o p q r s ",
"< t u v w x y z A B C D E F G H I J K L M N O P Q R S T U V W X ",
"Y Z `  ...+.@.#.$.%.&.*.=.-.;.>.,.'.).!.~.{.].^./.(._.:.<.[.u }.",
"|.1.2.3.4.5.6.7.8.9.0.a.b.c.d.e.f.g.h.i.j.k.l.m.n.o.p.q.r.Z s.t.",
"u.v.w.x.y.z.A.B.C.D.E.F.G.H.I.J.K.L.M.N.O.P.Q.R.S.T.U.V.W.X.8.Y.",
"Z.`. +.+++@+#+$+%+&+*+=+-+;+>+,+'+)+!+~+{+]+^+/+(+_+:+<+[+}+|+1+",
"2+3+4+5+6+7+8+9+0+a+b+c+d+e+f+g+h+i+j+k+l+m+n+o+p+q+r+s+t+u+v+w+",
"x+y+z+A+B+C+D+E+F+G+H+I+J+K+L+M+N+i+O+P+Q+R+S+T+U+V+W+X+Y+Z+`+ @",
".@+@@@#@$@%@&@*@=@-@;@>@,@'@)@!@~@i+{@,@]@^@/@(@_@:@S y.<@[@}@|@",
"1@2@3@4@5@6@7@8@9@0@a@b@c@d@)@e@~@i+f@,@g@h@i@j@k@l@m@n@o@p@q@r@",
"s@t@u@v@w@x@y@z@A@B@C@b@D@E@F@G@H@i+f@I@J@K@L@M@N@O@P@Q@R@S@T@U@",
"V@W@X@Y@w@Z@`@ #.#+#@###$#%#&#*#$#=#-#$#;#>#,#'#)#!#~#{#]#^#/#(#",
"_#:#<#[#}#^#|#1#2#3#4#5#6#7#8#9#0#a#b#c#d#e#f#g#h#i#j#k#l#m#n#y+",
"o#Z@p#q#r#s#t#u#v#w#x#y#z#A#B#C#D#E#F#G#H#I#J#K#L#M#N#O#P#Q#R#S#",
"T#U#V#W#X#Y#Z#`# $.$+$@$#$$$%$&$*$=$-$;$>$,$'$)$!$~${$]$^$y./$($",
"T#U#V#W#X#Y#_$:$<$[$}$>+|$1$L+!@2$3$4$5$6$7$8$9$0$a${$]$^$y./$($",
"o#Z@p#q#r#s#b$c$d$e$f$g$h$i$)@d+j$k$l$m$6$n$o$p$q$r$N#O#P#Q#R#S#",
"_#:#<#[#}#^#s$t$u$v$w$x$c@y$L+z$A$i+l$B$6$n$C$D$E$a$j#k#l#m#n#y+",
"V@W@X@Y@w@Z@_$:$F$v$w$x$m$K+F@G$A$i+H$I$6$J$K$L$M$N$~#{#]#^#/#(#",
"s@t@u@v@w@x@b$O$P$Q$R$S$D@T$U$V$A$i+W$X$]@Y$Z$`$ %r$P@Q@R@S@T@U@",
"1@2@3@4@5@6@`@.%+%@%#%S$$%%%U$g+&%k$Y$*%=%-%;%>%,%M#m@n@o@p@q@r@",
".@+@@@#@$@%@'%)%!%~%{%]%5$%%U$^%/%(%_%:%<%[%}%|%1%2%S y.<@[@}@|@",
"x+y+z+A+B+C+3%4%5%6%7%8%9%0%a%b%c%d%e%;+f%g%h%i%j%!#W+X+Y+Z+`+ @",
"2+3+4+5+6+7+k%l%m%n%o%p%q%r%s%t%u%s%v%w%x%y%z%A%B%r$r+s+t+u+v+w+",
"Z.`. +.+++@+C%D%E%F%G%H%I%J%K%L%M%N%O%P%Q%R%S%T%U%V%:+<+[+}+|+1+",
"u.v.w.x.y.z.W%X%Y%Z%=%Z%`% &.&+&@&#&$&o$%&&&*&=&-&r$U.V.W.X.8.Y.",
"|.1.2.3.4.5.s$;&>&,&'&)&h$d@!&G@~&k$H${&=%]&^&/&(&_&p.q.r.Z s.t.",
"Y Z `  ...+.:&<&[&}&|&1&2&3&4&5&6&7&8&9&0&a&b&c&d&e&_.:.<.[.u }.",
"< t u v w x y z A B C f&g&h&i&j&h k&l&m&n&N O P Q R S T U V W X ",
"} | 1 2 3 4 5 6 7 8 9 4 0 a b c d e f g h i j k l m n o p q r s ",
"  . + @ + # $ % & * = - ; > , ' ) ) ) ! ! ~ { @ ] ^ / ( _ : < [ "};
