/* XPM */
static char * E2_xpm[] = {
"32 32 546 2",
"  	c #2B7300",
". 	c #2C6B02",
"+ 	c #286D01",
"@ 	c #296C01",
"# 	c #286C01",
"$ 	c #367001",
"% 	c #4A7C03",
"& 	c #4F7D00",
"* 	c #507D00",
"= 	c #3C7505",
"- 	c #286B01",
"; 	c #2A6E01",
"> 	c #2C6D02",
", 	c #467B02",
"' 	c #527D01",
") 	c #527C01",
"! 	c #537D02",
"~ 	c #417502",
"{ 	c #2D6B03",
"] 	c #2C6A01",
"^ 	c #5B9002",
"/ 	c #719D01",
"( 	c #759802",
"_ 	c #6B9503",
": 	c #2D6F03",
"< 	c #276A02",
"[ 	c #2C7000",
"} 	c #256B01",
"| 	c #2A6602",
"1 	c #2A6800",
"2 	c #286604",
"3 	c #296705",
"4 	c #296603",
"5 	c #346902",
"6 	c #4E7508",
"7 	c #4F7502",
"8 	c #507501",
"9 	c #3A6F07",
"0 	c #2A6A04",
"a 	c #296803",
"b 	c #467203",
"c 	c #4D7703",
"d 	c #4E7500",
"e 	c #4E7601",
"f 	c #4C7603",
"g 	c #4D7601",
"h 	c #4F7700",
"i 	c #3D7001",
"j 	c #276801",
"k 	c #276903",
"l 	c #296404",
"m 	c #5A8A05",
"n 	c #6F9302",
"o 	c #6D9003",
"p 	c #649005",
"q 	c #2B6A01",
"r 	c #2B6601",
"s 	c #2A6700",
"t 	c #286700",
"u 	c #286801",
"v 	c #286807",
"w 	c #276900",
"x 	c #266702",
"y 	c #316B03",
"z 	c #4D7906",
"A 	c #517701",
"B 	c #517606",
"C 	c #3A6E05",
"D 	c #2A6718",
"E 	c #2E774B",
"F 	c #347C50",
"G 	c #58BCBC",
"H 	c #43B9BA",
"I 	c #4BABAB",
"J 	c #B75F33",
"K 	c #BC7B45",
"L 	c #B0572F",
"M 	c #537A1A",
"N 	c #417005",
"O 	c #286601",
"P 	c #2A6904",
"Q 	c #296302",
"R 	c #598A05",
"S 	c #6F9503",
"T 	c #719301",
"U 	c #669007",
"V 	c #306A01",
"W 	c #286603",
"X 	c #2A6A05",
"Y 	c #276B03",
"Z 	c #2A6702",
"` 	c #2C6A02",
" .	c #588605",
"..	c #5F8804",
"+.	c #608802",
"@.	c #538305",
"#.	c #336B05",
"$.	c #356E05",
"%.	c #346A01",
"&.	c #41835A",
"*.	c #4C9C83",
"=.	c #4EC9CA",
"-.	c #65BABE",
";.	c #60C7CB",
">.	c #6C9BA0",
",.	c #C97350",
"'.	c #FEA25D",
").	c #C77243",
"!.	c #D66F3D",
"~.	c #AF562B",
"{.	c #408057",
"].	c #477502",
"^.	c #467404",
"/.	c #457402",
"(.	c #3E7203",
"_.	c #3C7301",
":.	c #3D7301",
"<.	c #3B7301",
"[.	c #276601",
"}.	c #286A03",
"|.	c #296A01",
"1.	c #296500",
"2.	c #2B6903",
"3.	c #689003",
"4.	c #729506",
"5.	c #749402",
"6.	c #618C03",
"7.	c #266503",
"8.	c #296702",
"9.	c #3B8D73",
"0.	c #4DC9CA",
"a.	c #66AEB4",
"b.	c #62BCC0",
"c.	c #5A8F94",
"d.	c #396164",
"e.	c #55443F",
"f.	c #FB894A",
"g.	c #D59254",
"h.	c #C6683C",
"i.	c #D9703D",
"j.	c #C06030",
"k.	c #A15C40",
"l.	c #54916C",
"m.	c #507503",
"n.	c #507A00",
"o.	c #346803",
"p.	c #266704",
"q.	c #276604",
"r.	c #286701",
"s.	c #2B6901",
"t.	c #286901",
"u.	c #266A02",
"v.	c #276701",
"w.	c #2B6C09",
"x.	c #688E01",
"y.	c #6E9303",
"z.	c #6F9504",
"A.	c #5A8B07",
"B.	c #286702",
"C.	c #3B856A",
"D.	c #61B5B9",
"E.	c #66B4B9",
"F.	c #59A0A4",
"G.	c #3C585C",
"H.	c #253A3C",
"I.	c #292D30",
"J.	c #B25A2F",
"K.	c #FE8D4D",
"L.	c #C98D50",
"M.	c #D26D3D",
"N.	c #A15434",
"O.	c #62A0A1",
"P.	c #57916E",
"Q.	c #4A7800",
"R.	c #336A04",
"S.	c #276A05",
"T.	c #286902",
"U.	c #2A6901",
"V.	c #286705",
"W.	c #276904",
"X.	c #306E02",
"Y.	c #316900",
"Z.	c #326B01",
"`.	c #648B02",
" +	c #6D8E0A",
".+	c #6A9206",
"++	c #578702",
"@+	c #3F7C56",
"#+	c #4AC6C7",
"$+	c #69A9AF",
"%+	c #5C7D84",
"&+	c #263437",
"*+	c #292E31",
"=+	c #3F2D2C",
"-+	c #DB703A",
";+	c #F9A560",
">+	c #AB5B34",
",+	c #D46E3D",
"'+	c #D46F3E",
")+	c #BF5F2F",
"!+	c #B15830",
"~+	c #9A8179",
"{+	c #4CC8C9",
"]+	c #588659",
"^+	c #396D01",
"/+	c #346C01",
"(+	c #306C00",
"_+	c #336E01",
":+	c #296804",
"<+	c #2E6800",
"[+	c #326A00",
"}+	c #4A7907",
"|+	c #4B7703",
"1+	c #4A7602",
"2+	c #306D03",
"3+	c #2E6C03",
"4+	c #2A6B02",
"5+	c #417710",
"6+	c #62A37E",
"7+	c #66B7BB",
"8+	c #5B9BA0",
"9+	c #282F32",
"0+	c #4C2D27",
"a+	c #F27D41",
"b+	c #AB5933",
"c+	c #D06E3E",
"d+	c #BF5F30",
"e+	c #B55A31",
"f+	c #BA6D53",
"g+	c #67B0B5",
"h+	c #8AB3B3",
"i+	c #5B8610",
"j+	c #6B9105",
"k+	c #689001",
"l+	c #658C04",
"m+	c #477404",
"n+	c #457002",
"o+	c #497302",
"p+	c #517802",
"q+	c #4E7702",
"r+	c #4E7701",
"s+	c #2E6901",
"t+	c #2C6500",
"u+	c #266705",
"v+	c #41804B",
"w+	c #4EBDBE",
"x+	c #68AFB5",
"y+	c #42595E",
"z+	c #282D30",
"A+	c #954C2A",
"B+	c #FB8245",
"C+	c #E8A060",
"D+	c #B15A31",
"E+	c #D06C3D",
"F+	c #C05F2F",
"G+	c #CA6C43",
"H+	c #68A0A4",
"I+	c #4FC0C2",
"J+	c #5F8F44",
"K+	c #6E9502",
"L+	c #6E9505",
"M+	c #6A8F01",
"N+	c #4C7403",
"O+	c #437203",
"P+	c #487301",
"Q+	c #4F7801",
"R+	c #4D7705",
"S+	c #4D7603",
"T+	c #2B6A04",
"U+	c #296700",
"V+	c #246501",
"W+	c #438353",
"X+	c #61C2C5",
"Y+	c #5E9CA1",
"Z+	c #283033",
"`+	c #A9552C",
" @	c #FF8446",
".@	c #E1A062",
"+@	c #B45A31",
"@@	c #C15F2F",
"#@	c #D86F3F",
"$@	c #61888A",
"%@	c #63C2C6",
"&@	c #5B944D",
"*@	c #6A9200",
"=@	c #497401",
"-@	c #427402",
";@	c #467300",
">@	c #5C8401",
",@	c #588103",
"'@	c #598102",
")@	c #497B04",
"!@	c #487902",
"~@	c #467903",
"{@	c #87B4B4",
"]@	c #66B2B7",
"^@	c #527379",
"/@	c #262B2E",
"(@	c #E9783E",
"_@	c #BB7C48",
":@	c #9F4D27",
"<@	c #C3663A",
"[@	c #D16E3E",
"}@	c #BE6030",
"|@	c #AF5832",
"1@	c #D66F3F",
"2@	c #505050",
"3@	c #67B1B7",
"4@	c #87BBBC",
"5@	c #608902",
"6@	c #5F8801",
"7@	c #5E8700",
"8@	c #588005",
"9@	c #547D04",
"0@	c #528004",
"a@	c #6D9501",
"b@	c #6D9203",
"c@	c #6A9101",
"d@	c #507902",
"e@	c #4C7701",
"f@	c #4A7502",
"g@	c #38B4B4",
"h@	c #61C6CA",
"i@	c #3B7578",
"j@	c #A8562C",
"k@	c #CD6733",
"l@	c #D97546",
"m@	c #CD6F44",
"n@	c #B95C2E",
"o@	c #AE562C",
"p@	c #B5592C",
"q@	c #A55430",
"r@	c #D06D40",
"s@	c #4F6665",
"t@	c #62C4C8",
"u@	c #3EBDBE",
"v@	c #446F02",
"w@	c #457302",
"x@	c #4D7504",
"y@	c #4C7604",
"z@	c #446D01",
"A@	c #447302",
"B@	c #6F9702",
"C@	c #6E9001",
"D@	c #6C9006",
"E@	c #517904",
"F@	c #4B7401",
"G@	c #3BB0B0",
"H@	c #6D969E",
"I@	c #3E555A",
"J@	c #D86F38",
"K@	c #954F33",
"L@	c #AB6B55",
"M@	c #BB7963",
"N@	c #D47852",
"O@	c #CA6A3D",
"P@	c #B65A2D",
"Q@	c #B35A2E",
"R@	c #574D4D",
"S@	c #6D959D",
"T@	c #41B7B8",
"U@	c #477305",
"V@	c #467200",
"W@	c #4C7704",
"X@	c #4C7501",
"Y@	c #437300",
"Z@	c #487401",
"`@	c #6E9603",
" #	c #688F00",
".#	c #668F03",
"+#	c #507901",
"@#	c #4B7701",
"##	c #39B5B5",
"$#	c #5FCED1",
"%#	c #3A7B7D",
"&#	c #CA8D54",
"*#	c #8B3D19",
"=#	c #934521",
"-#	c #915441",
";#	c #A85E41",
">#	c #C27C64",
",#	c #CB7A5B",
"'#	c #8F776C",
")#	c #60CCCF",
"!#	c #3EBEBF",
"~#	c #457001",
"{#	c #487202",
"]#	c #4C7803",
"^#	c #557B04",
"/#	c #487403",
"(#	c #4C7800",
"_#	c #497504",
":#	c #487201",
"<#	c #467201",
"[#	c #477003",
"}#	c #E3A162",
"|#	c #B05931",
"1#	c #C26539",
"2#	c #BD5F30",
"3#	c #93421A",
"4#	c #843A19",
"5#	c #97543C",
"6#	c #765751",
"7#	c #608A02",
"8#	c #608A04",
"9#	c #5F8901",
"0#	c #699005",
"a#	c #669202",
"b#	c #699300",
"c#	c #487402",
"d#	c #466F02",
"e#	c #447103",
"f#	c #457102",
"g#	c #447204",
"h#	c #457004",
"i#	c #60CDD0",
"j#	c #39787A",
"k#	c #E7A262",
"l#	c #A85732",
"m#	c #BD5F31",
"n#	c #A65430",
"o#	c #BF6134",
"p#	c #4C6968",
"q#	c #6E9503",
"r#	c #6C9405",
"s#	c #6B9201",
"t#	c #6C9102",
"u#	c #6F9601",
"v#	c #3E565A",
"w#	c #C99C66",
"x#	c #8B6A60",
"y#	c #C05F30",
"z#	c #A95733",
"A#	c #D26E40",
"B#	c #504D4D",
"C#	c #3AB3B3",
"D#	c #3C696D",
"E#	c #C39B68",
"F#	c #8C7169",
"G#	c #C8693C",
"H#	c #AC5832",
"I#	c #DA703F",
"J#	c #4F5C5C",
"K#	c #67B2B8",
"L#	c #3FBBBB",
"M#	c #DB9F62",
"N#	c #834832",
"O#	c #40565B",
"P#	c #E2A162",
"Q#	c #844A33",
"R#	c #BE5F30",
"S#	c #B05932",
"T#	c #5FCFD2",
"U#	c #D69E63",
"V#	c #834D3A",
"W#	c #DA713F",
"X#	c #4C6A69",
"Y#	c #BD9B6A",
"Z#	c #907A74",
"`#	c #CB6A3C",
" $	c #B15932",
".$	c #D39E65",
"+$	c #94604E",
"@$	c #D36F3E",
"#$	c #B25931",
"$$	c #D46E3F",
"%$	c #E4A162",
"&$	c #BE5F31",
"*$	c #C86739",
"=$	c #5C4F4F",
"-$	c #39B4B4",
";$	c #62C5C9",
">$	c #E8A262",
",$	c #AB5732",
"'$	c #CD6B3C",
")$	c #C76636",
"!$	c #A64F24",
"~$	c #BC5D2E",
"{$	c #CF6C3E",
"]$	c #A65533",
"^$	c #65B1B3",
"/$	c #3EBEBE",
"($	c #3BB1B1",
"_$	c #6B9DA4",
":$	c #3E5A5F",
"<$	c #FC8245",
"[$	c #DE9B5D",
"}$	c #994A25",
"|$	c #C56433",
"1$	c #CC6C3E",
"2$	c #D57446",
"3$	c #BA7760",
"4$	c #B0725D",
"5$	c #8E5745",
"6$	c #6D939A",
"7$	c #40B8B9",
"8$	c #3AB2B2",
"9$	c #68AFB4",
"0$	c #3B6467",
"a$	c #A9562C",
"b$	c #CE6733",
"c$	c #C9683B",
"d$	c #D77952",
"e$	c #BE7962",
"f$	c #AE6D57",
"g$	c #965036",
"h$	c #863C1A",
"i$	c #893C18",
"j$	c #4E5959",
"k$	c #3FBABB",
"l$	c #65B9BE",
"m$	c #3C6E71",
"n$	c #CB6733",
"o$	c #AC5E3F",
"p$	c #975A46",
"q$	c #853C1C",
"r$	c #92421B",
"s$	c #AA5125",
"t$	c #A2502B",
"u$	c #D7703F",
"v$	c #4E5F5E",
"w$	c #65B8BD",
"x$	c #3FBBBC",
"y$	c #3CAEAF",
"z$	c #6C969D",
"A$	c #F78043",
"B$	c #A76739",
"C$	c #94451F",
"D$	c #BF6236",
"E$	c #D9703E",
"F$	c #D36E40",
"G$	c #504C4D",
"H$	c #6C949C",
"I$	c #41B6B6",
"J$	c #296501",
"K$	c #266601",
"L$	c #2A6900",
"M$	c #B77056",
"N$	c #E6A162",
"O$	c #CE7D61",
"P$	c #C88976",
"Q$	c #B35A31",
"R$	c #D16D3D",
"S$	c #B65B2E",
"T$	c #E0A062",
"U$	c #C16F4F",
"  . + @ + # $ % & * = - ; > , ' ) ) ) ! ! ~ { @ ] ^ / ( _ : < [ ",
"} | 1 2 3 4 5 6 7 8 9 4 0 a b c d e f g h i j k l m n o p q r s ",
"< t u v w x y z A B C D E F G H I J K L M N O P Q R S T U V W X ",
"Y Z `  ...+.@.#.$.%.&.*.=.-.;.>.,.'.).!.~.{.].^./.(._.:.<.[.u }.",
"|.1.2.3.4.5.6.7.8.9.0.a.b.c.d.e.f.g.h.i.j.k.l.m.n.o.p.q.r.Z s.t.",
"u.v.w.x.y.z.A.B.C.D.E.F.G.H.I.J.K.L.M.i.j.N.O.P.Q.R.S.T.U.V.8.W.",
"X.Y.Z.`. +.+++@+#+$+%+&+*+*+=+-+;+>+,+'+)+!+~+{+]+^+/+(+_+:+<+[+",
"}+|+1+2+3+4+5+6+7+8+9+*+*+*+0+a+;+b+,+c+d+e+f+g+h+i+j+k+l+m+n+o+",
"p+q+r+s+t+u+v+w+x+y+z+*+*+*+A+B+C+D+E+!.F+e+G+H+I+J+K+L+M+N+O+P+",
"Q+R+S+T+U+V+W+X+Y+Z+*+*+*+*+`+ @.@+@h.i.@@e+#@$@%@&@S y.*@=@-@;@",
">@,@'@)@!@~@{@]@^@/@*+*+*+*+`+(@_@:@<@[@}@|@1@2@3@4@5@6@7@8@9@0@",
"a@b@c@d@e@f@g@h@i@*+*+*+*+*+j@k@l@m@n@o@p@q@r@s@t@u@v@w@x@y@z@A@",
"B@C@D@E@e@F@G@H@I@*+*+*+*+*+`+J@K@L@M@N@O@P@Q@R@S@T@U@V@W@X@Y@Z@",
"`@ #.#+#@#X@##$#%#*+*+*+*+*+`+ @&#*#=#-#;#>#,#'#)#!#~#{#]#^#/#q+",
"(#F@_#:#<#[#G@H@I@*+*+*+*+*+`+ @}#|#1#2#3#4#5#6#S@T@7#8#9#0#a#b#",
"c#d#e#f#g#h###i#j#*+*+*+*+*+`+ @k#l#h.c+m#n#o#p#)#!#q#r#s#y.t#u#",
"c#d#e#f#g#h#G@H@v#*+*+*+*+*+`+ @w#x#h.i.y#z#A#B#S@T@q#r#s#y.t#u#",
"(#F@_#:#<#[#C#E.D#*+*+*+*+*+`+ @E#F#G#i.y#H#I#J#K#L#7#8#9#0#a#b#",
"`@ #.#+#@#X@C#E.D#*+*+*+*+*+`+ @M#N#,+!.F+e+I#J#K#L#~#{#]#^#/#q+",
"B@C@D@E@e@F@G@H@O#*+*+*+*+*+`+ @P#Q#,+c+R#S#A#B#S@T@U@V@W@X@Y@Z@",
"a@b@c@d@e@f@##T#j#*+*+*+*+*+`+ @U#V#,+i.y#z#W#X#)#!#v@w@x@y@z@A@",
">@,@'@)@!@~@G@H@I@*+*+*+*+*+`+ @Y#Z#`#i.F+ $I#B#S@T@5@6@7@8@9@0@",
"Q+R+S+T+U+V+##T#%#*+*+*+*+*+`+ @.$+$h.@$d+#$$$X#$#!#S y.*@=@-@;@",
"p+q+r+s+t+u+G@H@I@*+*+*+*+*+`+ @%$+@M.c+&$z#*$=$H@T@K+L+M+N+O+P+",
"}+|+1+2+3+4+-$;$i@*+*+*+*+*+`+ @>$,$'$)$!$~${$]$^$/$j+k+l+m+n+o+",
"X.Y.Z.`. +.+($_$:$*+*+*+*+*+`+<$[$}$|$1$2$3$4$5$6$7$/+(+_+:+<+[+",
"u.v.w.x.y.z.8$9$0$*+*+*+*+*+a$b$c$d$e$f$g$h$i$j$9$k$S.T.U.V.8.W.",
"|.1.2.3.4.5.C#l$m$*+*+*+*+*+j@n$o$p$q$r$s$t$u$v$w$x$p.q.r.Z s.t.",
"Y Z `  ...+.y$z$I@*+*+*+*+*+`+A$B$C$D$E$@@e+F$G$H$I$_.:.<.[.u }.",
"< t u v w x y z A B C J$K$L$M$ @N$#$,+[@R#S#O$P Q R S T U V W X ",
"} | 1 2 3 4 5 6 7 8 9 4 0 a P$ @.@Q$R$c+S$i j k l m n o p q r s ",
"  . + @ + # $ % & * = - ; > P$ @T$H#h.U$! ~ { @ ] ^ / ( _ : < [ "};
