/* XPM */
static char * PA_xpm[] = {
"32 32 679 2",
"  	c #2B7300",
". 	c #2C6B02",
"+ 	c #286D01",
"@ 	c #296C01",
"# 	c #286C01",
"$ 	c #367001",
"% 	c #4A7C03",
"& 	c #4F7D00",
"* 	c #507D00",
"= 	c #3C7505",
"- 	c #836744",
"; 	c #8A6B46",
"> 	c #896C48",
", 	c #886B47",
"' 	c #7D603E",
") 	c #735537",
"! 	c #594236",
"~ 	c #537D02",
"{ 	c #417502",
"] 	c #2D6B03",
"^ 	c #2C6A01",
"/ 	c #5B9002",
"( 	c #719D01",
"_ 	c #759802",
": 	c #6B9503",
"< 	c #2D6F03",
"[ 	c #276A02",
"} 	c #2C7000",
"| 	c #256B01",
"1 	c #2A6602",
"2 	c #2A6800",
"3 	c #286604",
"4 	c #296705",
"5 	c #296603",
"6 	c #346902",
"7 	c #4E7508",
"8 	c #4F7502",
"9 	c #507501",
"0 	c #3A6F07",
"a 	c #836645",
"b 	c #886A45",
"c 	c #896B46",
"d 	c #896B45",
"e 	c #896B48",
"f 	c #7E6140",
"g 	c #745539",
"h 	c #5A4238",
"i 	c #4F7700",
"j 	c #3D7001",
"k 	c #276801",
"l 	c #276903",
"m 	c #296404",
"n 	c #5A8A05",
"o 	c #6F9302",
"p 	c #6D9003",
"q 	c #649005",
"r 	c #2B6A01",
"s 	c #2B6601",
"t 	c #2A6700",
"u 	c #286700",
"v 	c #286801",
"w 	c #286807",
"x 	c #276900",
"y 	c #266702",
"z 	c #316B03",
"A 	c #4D7906",
"B 	c #517701",
"C 	c #517606",
"D 	c #3A6E05",
"E 	c #6E553A",
"F 	c #755839",
"G 	c #856846",
"H 	c #886C48",
"I 	c #896B47",
"J 	c #876A45",
"K 	c #866944",
"L 	c #7D603D",
"M 	c #695136",
"N 	c #5E4736",
"O 	c #286601",
"P 	c #2A6904",
"Q 	c #296302",
"R 	c #598A05",
"S 	c #6F9503",
"T 	c #719301",
"U 	c #669007",
"V 	c #306A01",
"W 	c #286603",
"X 	c #2A6A05",
"Y 	c #276B03",
"Z 	c #2A6702",
"` 	c #2C6A02",
" .	c #588605",
"..	c #5F8804",
"+.	c #608802",
"@.	c #538305",
"#.	c #336B05",
"$.	c #356E05",
"%.	c #346A01",
"&.	c #3E7101",
"*.	c #6E5236",
"=.	c #735637",
"-.	c #866745",
";.	c #8B6B46",
">.	c #886B49",
",.	c #8A6B47",
"'.	c #826343",
").	c #735438",
"!.	c #644936",
"~.	c #477502",
"{.	c #467404",
"].	c #457402",
"^.	c #3E7203",
"/.	c #3C7301",
"(.	c #3D7301",
"_.	c #3B7301",
":.	c #276601",
"<.	c #286A03",
"[.	c #296A01",
"}.	c #296500",
"|.	c #2B6903",
"1.	c #689003",
"2.	c #729506",
"3.	c #749402",
"4.	c #618C03",
"5.	c #266503",
"6.	c #296702",
"7.	c #276802",
"8.	c #3F6F01",
"9.	c #D08C52",
"0.	c #E19356",
"a.	c #E49556",
"b.	c #E49857",
"c.	c #95673F",
"d.	c #694E35",
"e.	c #6B4D31",
"f.	c #694E32",
"g.	c #694C31",
"h.	c #654930",
"i.	c #573F2F",
"j.	c #537A04",
"k.	c #507503",
"l.	c #507A00",
"m.	c #346803",
"n.	c #266704",
"o.	c #276604",
"p.	c #286701",
"q.	c #2B6901",
"r.	c #286901",
"s.	c #266A02",
"t.	c #276701",
"u.	c #2B6C09",
"v.	c #688E01",
"w.	c #6E9303",
"x.	c #6F9504",
"y.	c #5A8B07",
"z.	c #286702",
"A.	c #296802",
"B.	c #417001",
"C.	c #EB9957",
"D.	c #FEA15B",
"E.	c #FEA05B",
"F.	c #FEA35D",
"G.	c #99663D",
"H.	c #5E412C",
"I.	c #60432C",
"J.	c #61452C",
"K.	c #62442D",
"L.	c #5F462C",
"M.	c #543B2C",
"N.	c #517502",
"O.	c #517705",
"P.	c #4A7800",
"Q.	c #336A04",
"R.	c #276A05",
"S.	c #286902",
"T.	c #2A6901",
"U.	c #286705",
"V.	c #276904",
"W.	c #306E02",
"X.	c #316900",
"Y.	c #326B01",
"Z.	c #648B02",
"`.	c #6D8E0A",
" +	c #6A9206",
".+	c #578702",
"++	c #3A6B03",
"@+	c #316B01",
"#+	c #457204",
"$+	c #EAB769",
"%+	c #FBC06D",
"&+	c #FDC16B",
"*+	c #FDC16A",
"=+	c #DFB162",
"-+	c #D3AB61",
";+	c #9E8048",
">+	c #5E442D",
",+	c #61452A",
"'+	c #61452D",
")+	c #553A2C",
"!+	c #487706",
"~+	c #4A7602",
"{+	c #487704",
"]+	c #396D01",
"^+	c #346C01",
"/+	c #306C00",
"(+	c #336E01",
"_+	c #296804",
":+	c #2E6800",
"<+	c #326A00",
"[+	c #4A7907",
"}+	c #4B7703",
"|+	c #306D03",
"1+	c #2E6C03",
"2+	c #2A6B02",
"3+	c #417601",
"4+	c #698E08",
"5+	c #668F03",
"6+	c #659202",
"7+	c #548101",
"8+	c #E8C26F",
"9+	c #FECC73",
"0+	c #FDCC72",
"a+	c #FDCC73",
"b+	c #FBCC73",
"c+	c #FCCA75",
"d+	c #BA9554",
"e+	c #5D422C",
"f+	c #61432F",
"g+	c #60442C",
"h+	c #54432D",
"i+	c #276906",
"j+	c #2B6904",
"k+	c #2F6802",
"l+	c #5B8603",
"m+	c #6B9105",
"n+	c #689001",
"o+	c #658C04",
"p+	c #477404",
"q+	c #457002",
"r+	c #497302",
"s+	c #517802",
"t+	c #4E7702",
"u+	c #4E7701",
"v+	c #2E6901",
"w+	c #2C6500",
"x+	c #266705",
"y+	c #3F7303",
"z+	c #709502",
"A+	c #6D9305",
"B+	c #709503",
"C+	c #5A8301",
"D+	c #9C8655",
"E+	c #A98D59",
"F+	c #EAD2B1",
"G+	c #FCE7C6",
"H+	c #FDC686",
"I+	c #FCB968",
"J+	c #DD9B58",
"K+	c #C07D49",
"L+	c #9B653C",
"M+	c #4C7500",
"N+	c #558003",
"O+	c #286802",
"P+	c #5E8A00",
"Q+	c #6E9502",
"R+	c #6E9505",
"S+	c #6A8F01",
"T+	c #4C7403",
"U+	c #437203",
"V+	c #487301",
"W+	c #4F7801",
"X+	c #4D7705",
"Y+	c #4D7603",
"Z+	c #2B6A04",
"`+	c #296700",
" @	c #246501",
".@	c #3D7101",
"+@	c #6D9200",
"@@	c #6C9001",
"#@	c #6D9300",
"$@	c #578001",
"%@	c #477007",
"&@	c #467105",
"*@	c #DAD7DA",
"=@	c #FDFCFB",
"-@	c #FFC098",
";@	c #FFA05C",
">@	c #FFA25B",
",@	c #FEA35C",
"'@	c #C87C4F",
")@	c #4C7603",
"!@	c #548201",
"~@	c #266701",
"{@	c #276704",
"]@	c #5C8B0A",
"^@	c #6A9200",
"/@	c #497401",
"(@	c #427402",
"_@	c #467300",
":@	c #5C8401",
"<@	c #588103",
"[@	c #598102",
"}@	c #497B04",
"|@	c #487902",
"1@	c #467903",
"2@	c #779C01",
"3@	c #789B03",
"4@	c #8C0D25",
"5@	c #880E24",
"6@	c #991F28",
"7@	c #9A2B30",
"8@	c #E5C1B3",
"9@	c #FDDECE",
"0@	c #FDA47A",
"a@	c #FE854D",
"b@	c #FE854C",
"c@	c #FD854A",
"d@	c #D86640",
"e@	c #9B212B",
"f@	c #981D29",
"g@	c #8B0B23",
"h@	c #850C24",
"i@	c #497802",
"j@	c #588406",
"k@	c #608902",
"l@	c #5F8801",
"m@	c #5E8700",
"n@	c #588005",
"o@	c #547D04",
"p@	c #528004",
"q@	c #6D9501",
"r@	c #6D9203",
"s@	c #6A9101",
"t@	c #507902",
"u@	c #4C7701",
"v@	c #4A7502",
"w@	c #5C8200",
"x@	c #84A901",
"y@	c #83A702",
"z@	c #EE1B11",
"A@	c #EA1F0E",
"B@	c #F6391E",
"C@	c #FA3A21",
"D@	c #FA9351",
"E@	c #FDA25B",
"F@	c #FE6236",
"G@	c #FF391F",
"H@	c #FE3820",
"I@	c #FE371F",
"J@	c #FD3822",
"K@	c #FD3A1D",
"L@	c #F63318",
"M@	c #E71003",
"N@	c #D61107",
"O@	c #6E9201",
"P@	c #537A00",
"Q@	c #446F02",
"R@	c #457302",
"S@	c #4D7504",
"T@	c #4C7604",
"U@	c #446D01",
"V@	c #447302",
"W@	c #6F9702",
"X@	c #6E9001",
"Y@	c #6C9006",
"Z@	c #517904",
"`@	c #4B7401",
" #	c #5F8301",
".#	c #82A801",
"+#	c #86A701",
"@#	c #E81A0C",
"##	c #E62113",
"$#	c #F94029",
"%#	c #FB3A20",
"&#	c #FA8048",
"*#	c #FB8F51",
"=#	c #FB5A31",
"-#	c #FE391F",
";#	c #FB351D",
">#	c #F73119",
",#	c #F63119",
"'#	c #F22B16",
")#	c #E31003",
"!#	c #D70E07",
"~#	c #6F9201",
"{#	c #517A07",
"]#	c #477305",
"^#	c #467200",
"/#	c #4C7704",
"(#	c #4C7501",
"_#	c #437300",
":#	c #487401",
"<#	c #6E9603",
"[#	c #688F00",
"}#	c #507901",
"|#	c #4B7701",
"1#	c #5E8203",
"2#	c #81A604",
"3#	c #82A504",
"4#	c #E21003",
"5#	c #E41C0E",
"6#	c #FD412A",
"7#	c #F93F26",
"8#	c #FC371F",
"9#	c #FC381E",
"0#	c #FB381D",
"a#	c #FE381F",
"b#	c #F02713",
"c#	c #E50F01",
"d#	c #E51101",
"e#	c #E51001",
"f#	c #E60F01",
"g#	c #E41202",
"h#	c #D70F06",
"i#	c #678E00",
"j#	c #517B03",
"k#	c #457001",
"l#	c #487202",
"m#	c #4C7803",
"n#	c #557B04",
"o#	c #487403",
"p#	c #4C7800",
"q#	c #497504",
"r#	c #487201",
"s#	c #467201",
"t#	c #477003",
"u#	c #547903",
"v#	c #709601",
"w#	c #709301",
"x#	c #EA4726",
"y#	c #E64627",
"z#	c #FA452B",
"A#	c #FD4227",
"B#	c #F93A1E",
"C#	c #FC3A1F",
"D#	c #F12813",
"E#	c #E51003",
"F#	c #E62A12",
"G#	c #E74622",
"H#	c #E74523",
"I#	c #E84424",
"J#	c #D93F24",
"K#	c #5B8503",
"L#	c #608A02",
"M#	c #608A04",
"N#	c #5F8901",
"O#	c #699005",
"P#	c #669202",
"Q#	c #699300",
"R#	c #487402",
"S#	c #466F02",
"T#	c #447103",
"U#	c #457102",
"V#	c #447204",
"W#	c #457004",
"X#	c #507802",
"Y#	c #6A9201",
"Z#	c #6C9300",
"`#	c #FED27C",
" $	c #FDC779",
".$	c #FE5836",
"+$	c #FA3F26",
"@$	c #FC381F",
"#$	c #FD391E",
"$$	c #F22612",
"%$	c #E40F02",
"&$	c #F07B47",
"*$	c #FDCB73",
"=$	c #FBCB72",
"-$	c #FDCA72",
";$	c #E7BD70",
">$	c #457200",
",$	c #618C01",
"'$	c #6E9503",
")$	c #6C9405",
"!$	c #6B9201",
"~$	c #6C9102",
"{$	c #6F9601",
"]$	c #FDD179",
"^$	c #FCC975",
"/$	c #FD5532",
"($	c #FB391F",
"_$	c #FC381D",
":$	c #FC3820",
"<$	c #FC391E",
"[$	c #F12814",
"}$	c #E50F03",
"|$	c #F07B43",
"1$	c #FECB72",
"2$	c #FECA72",
"3$	c #E7BD6E",
"4$	c #F8CA75",
"5$	c #F9C26F",
"6$	c #FB4E2D",
"7$	c #FB3820",
"8$	c #FC391F",
"9$	c #FA391F",
"0$	c #FB391E",
"a$	c #EF2712",
"b$	c #E30F02",
"c$	c #EF6638",
"d$	c #FCA65E",
"e$	c #FBB063",
"f$	c #FECB73",
"g$	c #E7BD6F",
"h$	c #EFC870",
"i$	c #F0C26C",
"j$	c #F44F2C",
"k$	c #F83920",
"l$	c #FA3B1E",
"m$	c #FB3D21",
"n$	c #F73820",
"o$	c #EC2714",
"p$	c #DF1102",
"q$	c #EC6135",
"r$	c #F8A05C",
"s$	c #FAAC61",
"t$	c #E7BE6F",
"u$	c #664D3F",
"v$	c #684C3E",
"w$	c #AB4121",
"x$	c #B0401D",
"y$	c #EA9018",
"z$	c #FDA01B",
"A$	c #C96724",
"B$	c #AF4321",
"C$	c #A43618",
"D$	c #9A2C0F",
"E$	c #9D3C19",
"F$	c #9E4D24",
"G$	c #BC763F",
"H$	c #E7BE6E",
"I$	c #85A601",
"J$	c #789F01",
"K$	c #983C1E",
"L$	c #A34628",
"M$	c #EC9F21",
"N$	c #FBAE1F",
"O$	c #C47026",
"P$	c #A84B26",
"Q$	c #943A1B",
"R$	c #893014",
"S$	c #8A2F15",
"T$	c #873013",
"U$	c #AC6C38",
"V$	c #FACF74",
"W$	c #E5C26D",
"X$	c #CCAE64",
"Y$	c #C4A86E",
"Z$	c #709BC5",
"`$	c #6B9ECB",
" %	c #829CBD",
".%	c #8396B2",
"+%	c #6B83B0",
"@%	c #6885B8",
"#%	c #597DAF",
"$%	c #4971A5",
"%%	c #998D8F",
"&%	c #DFAD5D",
"*%	c #CA9C5C",
"=%	c #477902",
"-%	c #467A04",
";%	c #F9CE74",
">%	c #E9C97C",
",%	c #6CB5EC",
"'%	c #4EAFF6",
")%	c #4B95DA",
"!%	c #4D95D3",
"~%	c #468FD0",
"{%	c #4B94D7",
"]%	c #408CCD",
"^%	c #2B80C0",
"/%	c #A49FA6",
"(%	c #F7CA71",
"_%	c #D7AF64",
":%	c #73813F",
"<%	c #5FB4EF",
"[%	c #53B5FB",
"}%	c #4490D6",
"|%	c #4891D3",
"1%	c #85A802",
"2%	c #82A500",
"3%	c #3E84BE",
"4%	c #409FE4",
"5%	c #6C9FCF",
"6%	c #969FA7",
"7%	c #868A94",
"8%	c #4FADE9",
"9%	c #56B8FC",
"0%	c #4E99DC",
"a%	c #4D95D7",
"b%	c #80A503",
"c%	c #81A301",
"d%	c #3E83B7",
"e%	c #56B6FC",
"f%	c #4CA6E9",
"g%	c #3588C6",
"h%	c #2D6FAE",
"i%	c #4AAAE9",
"j%	c #51B4FC",
"k%	c #4F9ADF",
"l%	c #4C95D8",
"m%	c #557C02",
"n%	c #577B01",
"o%	c #4786C0",
"p%	c #58B8FD",
"q%	c #4AA6EB",
"r%	c #388BC8",
"s%	c #3079B3",
"t%	c #48A9EA",
"u%	c #4BB0FA",
"v%	c #4492D8",
"w%	c #418DD2",
"x%	c #4C7801",
"y%	c #4F7900",
"z%	c #4687BE",
"A%	c #51B4F9",
"B%	c #419EE3",
"C%	c #3184C4",
"D%	c #3679B3",
"E%	c #49AAEB",
"F%	c #4CB1FA",
"G%	c #4392D8",
"H%	c #418DD1",
"I%	c #4D7503",
"J%	c #527701",
"K%	c #4384BA",
"L%	c #4BB0F4",
"M%	c #3F9CE1",
"N%	c #3184C2",
"O%	c #3579B1",
"P%	c #49ABEA",
"Q%	c #4DB2FA",
"R%	c #4493D9",
"S%	c #408ED2",
"T%	c #4C7706",
"U%	c #517602",
"V%	c #4484BB",
"W%	c #4DAEF4",
"X%	c #45A0E5",
"Y%	c #3989C9",
"Z%	c #3478B2",
"`%	c #81AAD1",
" &	c #84B0E1",
".&	c #7691C2",
"+&	c #738BBC",
"@&	c #4C7905",
"#&	c #848EA6",
"$&	c #8CB5DD",
"%&	c #81A5CF",
"&&	c #718AB1",
"*&	c #5F749C",
"=&	c #FAAB10",
"-&	c #FBA810",
";&	c #FBA800",
">&	c #FCA800",
",&	c #E38500",
"'&	c #DE7D00",
")&	c #F19B0A",
"!&	c #F8A411",
"~&	c #FAAA12",
"{&	c #FCAE18",
"]&	c #F49F0C",
"^&	c #DD8000",
"/&	c #BF6D14",
"(&	c #EEA313",
"_&	c #F1A014",
":&	c #F0A014",
"<&	c #EFA012",
"[&	c #DB8207",
"}&	c #D67802",
"|&	c #E7960D",
"1&	c #EE9E11",
"2&	c #ED9E12",
"3&	c #EFA218",
"4&	c #E59415",
"5&	c #D17705",
"6&	c #BF701E",
"  . + @ + # $ % & * = - ; ; ; > , ' ) ! ~ { ] @ ^ / ( _ : < [ } ",
"| 1 2 3 4 5 6 7 8 9 0 a b c d e c f g h i j k l m n o p q r s t ",
"[ u v w x y z A B C D E F G H I ; J K L M N O P Q R S T U V W X ",
"Y Z `  ...+.@.#.$.%.&.*.=.-.c ;.>.,.I '.).!.~.{.].^./.(._.:.v <.",
"[.}.|.1.2.3.4.5.6.7.8.9.0.a.b.c.d.e.f.g.h.i.j.k.l.m.n.o.p.Z q.r.",
"s.t.u.v.w.x.y.z.A.o.B.C.D.E.F.G.H.I.J.K.L.M.N.O.P.Q.R.S.T.U.6.V.",
"W.X.Y.Z.`. +.+++W.@+#+$+%+&+*+=+-+;+>+,+'+)+!+~+{+]+^+/+(+_+:+<+",
"[+}+~+|+1+2+3+4+5+6+7+8+9+0+a+b+c+d+e+f+g+h+i+j+k+l+m+n+o+p+q+r+",
"s+t+u+v+w+x+y+z+A+B+C+D+E+F+G+H+I+J+K+L+M+N+O+Z 1 P+Q+R+S+T+U+V+",
"W+X+Y+Z+`+ @.@+@@@#@$@%@&@*@=@-@;@>@,@'@)@!@~@[ {@]@S w.^@/@(@_@",
":@<@[@}@|@1@7+2@3@4@5@6@7@8@9@0@a@b@c@d@e@f@g@h@i@j@k@l@m@n@o@p@",
"q@r@s@t@u@v@w@x@y@z@A@B@C@D@E@F@G@H@I@J@K@L@M@N@O@P@Q@R@S@T@U@V@",
"W@X@Y@Z@u@`@ #.#+#@###$#%#&#*#=#-#;#>#>#,#'#)#!#~#{#]#^#/#(#_#:#",
"<#[#5+}#|#(#1#2#3#4#5#6#7#8#9#0#a#b#c#d#e#f#g#h#i#j#k#l#m#n#o#t+",
"p#`@q#r#s#t#u#v#w#x#y#z#A#9#B#a#C#D#E#F#G#H#I#J#`@K#L#M#N#O#P#Q#",
"R#S#T#U#V#W#X#Y#Z#`# $.$+$@$9#I@#$$$%$&$*$=$-$;$>$,$'$)$!$w.~${$",
"R#S#T#U#V#W#X#Y#Z#]$^$/$C@($_$:$<$[$}$|$1$2$1$3$>$,$'$)$!$w.~${$",
"p#`@q#r#s#t#u#v#w#4$5$6$7$8$9$0$<$a$b$c$d$e$f$g$`@K#L#M#N#O#P#Q#",
"<#[#5+}#|#(#1#2#3#h$i$j$k$l$m$k$n$o$p$q$r$s$0+t$i#j#k#l#m#n#o#t+",
"W@X@Y@Z@u@`@ #.#+#u$v$w$x$y$z$A$B$C$D$E$F$G$a+H$~#{#]#^#/#(#_#:#",
"q@r@s@t@u@v@w@x@y@I$J$K$L$M$N$O$P$Q$R$S$T$U$V$W$O@P@Q@R@S@T@U@V@",
":@<@[@}@|@1@7+2@3@X$Y$Z$`$ %.%+%@%#%$%%%&%*%=%-%i@j@k@l@m@n@o@p@",
"W+X+Y+Z+`+ @.@+@@@;%>%,%'%)%!%~%{%]%^%/%(%_%~@[ {@]@S w.^@/@(@_@",
"s+t+u+v+w+x+y+z+A+B+:%<%[%}%|%1%2%3%4%5%6%7%O+Z 1 P+Q+R+S+T+U+V+",
"[+}+~+|+1+2+3+4+5+6+7+8%9%0%a%b%c%d%e%f%g%h%i+j+k+l+m+n+o+p+q+r+",
"W.X.Y.Z.`. +.+++W.@+#+i%j%k%l%m%n%o%p%q%r%s%!+~+{+]+^+/+(+_+:+<+",
"s.t.u.v.w.x.y.z.A.o.B.t%u%v%w%x%y%z%A%B%C%D%N.O.P.Q.R.S.T.U.6.V.",
"[.}.|.1.2.3.4.5.6.7.8.E%F%G%H%I%J%K%L%M%N%O%j.k.l.m.n.o.p.Z q.r.",
"Y Z `  ...+.@.#.$.%.&.P%Q%R%S%T%U%V%W%X%Y%Z%~.{.].^./.(._.:.v <.",
"[ u v w x y z A B C D `% &.&+&@&i #&$&%&&&*&O P Q R S T U V W X ",
"| 1 2 3 4 5 6 7 8 =&-&;&>&,&'&)&!&~&{&]&^&/&k l m n o p q r s t ",
"  . + @ + # $ % & (&_&:&<&[&}&|&1&2&3&4&5&6&] @ ^ / ( _ : < [ } "};
