/* XPM */
static char * PD_xpm[] = {
"32 32 679 2",
"  	c #2B7300",
". 	c #2C6B02",
"+ 	c #286D01",
"@ 	c #296C01",
"# 	c #286C01",
"$ 	c #367001",
"% 	c #4A7C03",
"& 	c #4F7D00",
"* 	c #507D00",
"= 	c #3C7505",
"- 	c #286B01",
"; 	c #2A6E01",
"> 	c #594236",
", 	c #735537",
"' 	c #7D603E",
") 	c #886B47",
"! 	c #896C48",
"~ 	c #8A6B46",
"{ 	c #836744",
"] 	c #2D6B03",
"^ 	c #2C6A01",
"/ 	c #5B9002",
"( 	c #719D01",
"_ 	c #759802",
": 	c #6B9503",
"< 	c #2D6F03",
"[ 	c #276A02",
"} 	c #2C7000",
"| 	c #256B01",
"1 	c #2A6602",
"2 	c #2A6800",
"3 	c #286604",
"4 	c #296705",
"5 	c #296603",
"6 	c #346902",
"7 	c #4E7508",
"8 	c #4F7502",
"9 	c #507501",
"0 	c #3A6F07",
"a 	c #2A6A04",
"b 	c #5A4238",
"c 	c #745539",
"d 	c #7E6140",
"e 	c #896B46",
"f 	c #896B48",
"g 	c #896B45",
"h 	c #886A45",
"i 	c #836645",
"j 	c #276801",
"k 	c #276903",
"l 	c #296404",
"m 	c #5A8A05",
"n 	c #6F9302",
"o 	c #6D9003",
"p 	c #649005",
"q 	c #2B6A01",
"r 	c #2B6601",
"s 	c #2A6700",
"t 	c #286700",
"u 	c #286801",
"v 	c #286807",
"w 	c #276900",
"x 	c #266702",
"y 	c #316B03",
"z 	c #4D7906",
"A 	c #517701",
"B 	c #517606",
"C 	c #3A6E05",
"D 	c #5E4736",
"E 	c #695136",
"F 	c #7D603D",
"G 	c #866944",
"H 	c #876A45",
"I 	c #896B47",
"J 	c #886C48",
"K 	c #856846",
"L 	c #755839",
"M 	c #6E553A",
"N 	c #286601",
"O 	c #2A6904",
"P 	c #296302",
"Q 	c #598A05",
"R 	c #6F9503",
"S 	c #719301",
"T 	c #669007",
"U 	c #306A01",
"V 	c #286603",
"W 	c #2A6A05",
"X 	c #276B03",
"Y 	c #2A6702",
"Z 	c #2C6A02",
"` 	c #588605",
" .	c #5F8804",
"..	c #608802",
"+.	c #538305",
"@.	c #336B05",
"#.	c #356E05",
"$.	c #346A01",
"%.	c #3E7101",
"&.	c #644936",
"*.	c #735438",
"=.	c #826343",
"-.	c #8A6B47",
";.	c #886B49",
">.	c #8B6B46",
",.	c #866745",
"'.	c #735637",
").	c #6E5236",
"!.	c #477502",
"~.	c #467404",
"{.	c #457402",
"].	c #3E7203",
"^.	c #3C7301",
"/.	c #3D7301",
"(.	c #3B7301",
"_.	c #276601",
":.	c #286A03",
"<.	c #296A01",
"[.	c #296500",
"}.	c #2B6903",
"|.	c #689003",
"1.	c #729506",
"2.	c #749402",
"3.	c #618C03",
"4.	c #266503",
"5.	c #296702",
"6.	c #276802",
"7.	c #3F6F01",
"8.	c #573F2F",
"9.	c #654930",
"0.	c #694C31",
"a.	c #694E32",
"b.	c #6B4D31",
"c.	c #694E35",
"d.	c #95673F",
"e.	c #E49857",
"f.	c #E49556",
"g.	c #E19356",
"h.	c #D08C52",
"i.	c #537A04",
"j.	c #507503",
"k.	c #507A00",
"l.	c #346803",
"m.	c #266704",
"n.	c #276604",
"o.	c #286701",
"p.	c #2B6901",
"q.	c #286901",
"r.	c #266A02",
"s.	c #276701",
"t.	c #2B6C09",
"u.	c #688E01",
"v.	c #6E9303",
"w.	c #6F9504",
"x.	c #5A8B07",
"y.	c #286702",
"z.	c #296802",
"A.	c #417001",
"B.	c #543B2C",
"C.	c #5F462C",
"D.	c #62442D",
"E.	c #61452C",
"F.	c #60432C",
"G.	c #5E412C",
"H.	c #99663D",
"I.	c #FEA35D",
"J.	c #FEA05B",
"K.	c #FEA15B",
"L.	c #EB9957",
"M.	c #517502",
"N.	c #517705",
"O.	c #4A7800",
"P.	c #336A04",
"Q.	c #276A05",
"R.	c #286902",
"S.	c #2A6901",
"T.	c #286705",
"U.	c #276904",
"V.	c #306E02",
"W.	c #316900",
"X.	c #326B01",
"Y.	c #648B02",
"Z.	c #6D8E0A",
"`.	c #6A9206",
" +	c #578702",
".+	c #3A6B03",
"++	c #316B01",
"@+	c #457204",
"#+	c #553A2C",
"$+	c #61452D",
"%+	c #61452A",
"&+	c #5E442D",
"*+	c #9E8048",
"=+	c #D3AB61",
"-+	c #DFB162",
";+	c #FDC16A",
">+	c #FDC16B",
",+	c #FBC06D",
"'+	c #EAB769",
")+	c #487706",
"!+	c #4A7602",
"~+	c #487704",
"{+	c #396D01",
"]+	c #346C01",
"^+	c #306C00",
"/+	c #336E01",
"(+	c #296804",
"_+	c #2E6800",
":+	c #326A00",
"<+	c #4A7907",
"[+	c #4B7703",
"}+	c #306D03",
"|+	c #2E6C03",
"1+	c #2A6B02",
"2+	c #417601",
"3+	c #698E08",
"4+	c #668F03",
"5+	c #659202",
"6+	c #548101",
"7+	c #53412D",
"8+	c #60442C",
"9+	c #61432F",
"0+	c #5D422C",
"a+	c #BA9554",
"b+	c #FCCA75",
"c+	c #FBCC73",
"d+	c #FDCC73",
"e+	c #FDCC72",
"f+	c #FECC73",
"g+	c #E8C26F",
"h+	c #276906",
"i+	c #2B6904",
"j+	c #2F6802",
"k+	c #5B8603",
"l+	c #6B9105",
"m+	c #689001",
"n+	c #658C04",
"o+	c #477404",
"p+	c #457002",
"q+	c #497302",
"r+	c #517802",
"s+	c #4E7702",
"t+	c #4E7701",
"u+	c #2E6901",
"v+	c #2C6500",
"w+	c #266705",
"x+	c #3F7303",
"y+	c #709502",
"z+	c #6D9305",
"A+	c #709503",
"B+	c #5A8301",
"C+	c #457101",
"D+	c #447300",
"E+	c #9B653C",
"F+	c #C07D49",
"G+	c #DD9B58",
"H+	c #FCB968",
"I+	c #FDC686",
"J+	c #FCE7C6",
"K+	c #EAD2B1",
"L+	c #A98D59",
"M+	c #9C8655",
"N+	c #286802",
"O+	c #5E8A00",
"P+	c #6E9502",
"Q+	c #6E9505",
"R+	c #6A8F01",
"S+	c #4C7403",
"T+	c #437203",
"U+	c #487301",
"V+	c #4F7801",
"W+	c #4D7705",
"X+	c #4D7603",
"Y+	c #2B6A04",
"Z+	c #296700",
"`+	c #246501",
" @	c #3D7101",
".@	c #6D9200",
"+@	c #6C9001",
"@@	c #6D9300",
"#@	c #578001",
"$@	c #477007",
"%@	c #467105",
"&@	c #C87C4F",
"*@	c #FEA35C",
"=@	c #FFA25B",
"-@	c #FFA05C",
";@	c #FFC098",
">@	c #FDFCFB",
",@	c #DAD7DA",
"'@	c #4C7603",
")@	c #548201",
"!@	c #266701",
"~@	c #276704",
"{@	c #5C8B0A",
"]@	c #6A9200",
"^@	c #497401",
"/@	c #427402",
"(@	c #467300",
"_@	c #5C8401",
":@	c #588103",
"<@	c #598102",
"[@	c #497B04",
"}@	c #487902",
"|@	c #467903",
"1@	c #779C01",
"2@	c #789B03",
"3@	c #850C24",
"4@	c #8B0B23",
"5@	c #981D29",
"6@	c #9B212B",
"7@	c #D86640",
"8@	c #FD854A",
"9@	c #FE854C",
"0@	c #FE854D",
"a@	c #FDA47A",
"b@	c #FDDECE",
"c@	c #E5C1B3",
"d@	c #9A2B30",
"e@	c #991F28",
"f@	c #880E24",
"g@	c #8C0D25",
"h@	c #497802",
"i@	c #588406",
"j@	c #608902",
"k@	c #5F8801",
"l@	c #5E8700",
"m@	c #588005",
"n@	c #547D04",
"o@	c #528004",
"p@	c #6D9501",
"q@	c #6D9203",
"r@	c #6A9101",
"s@	c #507902",
"t@	c #4C7701",
"u@	c #4A7502",
"v@	c #5C8200",
"w@	c #84A901",
"x@	c #83A702",
"y@	c #D61107",
"z@	c #E71003",
"A@	c #F63318",
"B@	c #FD3A1D",
"C@	c #FD3822",
"D@	c #FE371F",
"E@	c #FE3820",
"F@	c #FF391F",
"G@	c #FE6236",
"H@	c #FDA25B",
"I@	c #FA9351",
"J@	c #FA3A21",
"K@	c #F6391E",
"L@	c #EA1F0E",
"M@	c #EE1B11",
"N@	c #6E9201",
"O@	c #537A00",
"P@	c #446F02",
"Q@	c #457302",
"R@	c #4D7504",
"S@	c #4C7604",
"T@	c #446D01",
"U@	c #447302",
"V@	c #6F9702",
"W@	c #6E9001",
"X@	c #6C9006",
"Y@	c #517904",
"Z@	c #4B7401",
"`@	c #5F8301",
" #	c #82A801",
".#	c #86A701",
"+#	c #D70E07",
"@#	c #E31003",
"##	c #F22B16",
"$#	c #F63119",
"%#	c #F73119",
"&#	c #FB351D",
"*#	c #FE391F",
"=#	c #FB5A31",
"-#	c #FB8F51",
";#	c #FA8048",
">#	c #FB3A20",
",#	c #F94029",
"'#	c #E62113",
")#	c #E81A0C",
"!#	c #6F9201",
"~#	c #517A07",
"{#	c #477305",
"]#	c #467200",
"^#	c #4C7704",
"/#	c #4C7501",
"(#	c #437300",
"_#	c #487401",
":#	c #6E9603",
"<#	c #688F00",
"[#	c #507901",
"}#	c #4B7701",
"|#	c #5E8203",
"1#	c #81A604",
"2#	c #82A504",
"3#	c #D70F06",
"4#	c #E41202",
"5#	c #E60F01",
"6#	c #E51001",
"7#	c #E51101",
"8#	c #E50F01",
"9#	c #F02713",
"0#	c #FE381F",
"a#	c #FB381D",
"b#	c #FC381E",
"c#	c #FC371F",
"d#	c #F93F26",
"e#	c #FD412A",
"f#	c #E41C0E",
"g#	c #E21003",
"h#	c #678E00",
"i#	c #517B03",
"j#	c #457001",
"k#	c #487202",
"l#	c #4C7803",
"m#	c #557B04",
"n#	c #487403",
"o#	c #4C7800",
"p#	c #497504",
"q#	c #487201",
"r#	c #467201",
"s#	c #477003",
"t#	c #547903",
"u#	c #709601",
"v#	c #709301",
"w#	c #D93F24",
"x#	c #E84424",
"y#	c #E74523",
"z#	c #E74622",
"A#	c #E62A12",
"B#	c #E51003",
"C#	c #F12813",
"D#	c #FC3A1F",
"E#	c #F93A1E",
"F#	c #FD4227",
"G#	c #FA452B",
"H#	c #E64627",
"I#	c #EA4726",
"J#	c #5B8503",
"K#	c #608A02",
"L#	c #608A04",
"M#	c #5F8901",
"N#	c #699005",
"O#	c #669202",
"P#	c #699300",
"Q#	c #487402",
"R#	c #466F02",
"S#	c #447103",
"T#	c #457102",
"U#	c #447204",
"V#	c #457004",
"W#	c #507802",
"X#	c #6A9201",
"Y#	c #6C9300",
"Z#	c #E7BD70",
"`#	c #FDCA72",
" $	c #FBCB72",
".$	c #FDCB73",
"+$	c #F07B47",
"@$	c #E40F02",
"#$	c #F22612",
"$$	c #FD391E",
"%$	c #FC381F",
"&$	c #FA3F26",
"*$	c #FE5836",
"=$	c #FDC779",
"-$	c #FED27C",
";$	c #457200",
">$	c #618C01",
",$	c #6E9503",
"'$	c #6C9405",
")$	c #6B9201",
"!$	c #6C9102",
"~$	c #6F9601",
"{$	c #E7BD6E",
"]$	c #FECB72",
"^$	c #FECA72",
"/$	c #F07B43",
"($	c #E50F03",
"_$	c #F12814",
":$	c #FC391E",
"<$	c #FC3820",
"[$	c #FC381D",
"}$	c #FB391F",
"|$	c #FD5532",
"1$	c #FCC975",
"2$	c #FDD179",
"3$	c #E7BD6F",
"4$	c #FECB73",
"5$	c #FBB063",
"6$	c #FCA65E",
"7$	c #EF6638",
"8$	c #E30F02",
"9$	c #EF2712",
"0$	c #FB391E",
"a$	c #FA391F",
"b$	c #FC391F",
"c$	c #FB3820",
"d$	c #FB4E2D",
"e$	c #F9C26F",
"f$	c #F8CA75",
"g$	c #E7BE6F",
"h$	c #FAAC61",
"i$	c #F8A05C",
"j$	c #EC6135",
"k$	c #DF1102",
"l$	c #EC2714",
"m$	c #F73820",
"n$	c #F83920",
"o$	c #FB3D21",
"p$	c #FA3B1E",
"q$	c #F44F2C",
"r$	c #F0C26C",
"s$	c #EFC870",
"t$	c #E7BE6E",
"u$	c #BC763F",
"v$	c #9E4D24",
"w$	c #9D3C19",
"x$	c #9A2C0F",
"y$	c #A43618",
"z$	c #AF4321",
"A$	c #C96724",
"B$	c #FDA01B",
"C$	c #EA9018",
"D$	c #B0401D",
"E$	c #AB4121",
"F$	c #684C3E",
"G$	c #664D3F",
"H$	c #E5C26D",
"I$	c #FACF74",
"J$	c #AC6C38",
"K$	c #873013",
"L$	c #8A2F15",
"M$	c #893014",
"N$	c #943A1B",
"O$	c #A84B26",
"P$	c #C47026",
"Q$	c #FBAE1F",
"R$	c #EC9F21",
"S$	c #A34628",
"T$	c #983C1E",
"U$	c #6C9301",
"V$	c #6C9202",
"W$	c #7A9D02",
"X$	c #648C01",
"Y$	c #CA9C5C",
"Z$	c #DFAD5D",
"`$	c #998D8F",
" %	c #4971A5",
".%	c #597DAF",
"+%	c #6885B8",
"@%	c #6B83B0",
"#%	c #8396B2",
"$%	c #829CBD",
"%%	c #6B9ECB",
"&%	c #709BC5",
"*%	c #C4A86E",
"=%	c #CCAE64",
"-%	c #D7AF64",
";%	c #F7CA71",
">%	c #A49FA6",
",%	c #2B80C0",
"'%	c #408CCD",
")%	c #4B94D7",
"!%	c #468FD0",
"~%	c #4D95D3",
"{%	c #4B95DA",
"]%	c #4EAFF6",
"^%	c #6CB5EC",
"/%	c #E9C97C",
"(%	c #F9CE74",
"_%	c #868A94",
":%	c #969FA7",
"<%	c #6C9FCF",
"[%	c #409FE4",
"}%	c #3E84BE",
"|%	c #82A500",
"1%	c #7A9F01",
"2%	c #4891D3",
"3%	c #4490D6",
"4%	c #53B5FB",
"5%	c #5FB4EF",
"6%	c #63723F",
"7%	c #2D6FAE",
"8%	c #3588C6",
"9%	c #4CA6E9",
"0%	c #56B6FC",
"a%	c #3E83B7",
"b%	c #81A301",
"c%	c #799E02",
"d%	c #4D95D7",
"e%	c #4E99DC",
"f%	c #56B8FC",
"g%	c #4FADE9",
"h%	c #3079B3",
"i%	c #388BC8",
"j%	c #4AA6EB",
"k%	c #58B8FD",
"l%	c #4786C0",
"m%	c #577B01",
"n%	c #4D7802",
"o%	c #4C95D8",
"p%	c #4F9ADF",
"q%	c #51B4FC",
"r%	c #4AAAE9",
"s%	c #3679B3",
"t%	c #3184C4",
"u%	c #419EE3",
"v%	c #51B4F9",
"w%	c #4687BE",
"x%	c #4F7900",
"y%	c #447501",
"z%	c #418DD2",
"A%	c #4492D8",
"B%	c #4BB0FA",
"C%	c #48A9EA",
"D%	c #3579B1",
"E%	c #3184C2",
"F%	c #3F9CE1",
"G%	c #4BB0F4",
"H%	c #4384BA",
"I%	c #527701",
"J%	c #467301",
"K%	c #418DD1",
"L%	c #4392D8",
"M%	c #4CB1FA",
"N%	c #49AAEB",
"O%	c #3478B2",
"P%	c #3989C9",
"Q%	c #45A0E5",
"R%	c #4DAEF4",
"S%	c #4484BB",
"T%	c #517602",
"U%	c #497403",
"V%	c #408ED2",
"W%	c #4493D9",
"X%	c #4DB2FA",
"Y%	c #49ABEA",
"Z%	c #5F749C",
"`%	c #718AB1",
" &	c #81A5CF",
".&	c #8CB5DD",
"+&	c #848EA6",
"@&	c #4F7700",
"#&	c #4F7702",
"$&	c #738BBC",
"%&	c #7691C2",
"&&	c #84B0E1",
"*&	c #81AAD1",
"=&	c #BF6D14",
"-&	c #DD8000",
";&	c #F49F0C",
">&	c #FCAE18",
",&	c #FAAA12",
"'&	c #F8A411",
")&	c #F19B0A",
"!&	c #DE7D00",
"~&	c #E38500",
"{&	c #FCA800",
"]&	c #FBA800",
"^&	c #FBA810",
"/&	c #FAAB10",
"(&	c #BF701E",
"_&	c #D17705",
":&	c #E59415",
"<&	c #EFA218",
"[&	c #ED9E12",
"}&	c #EE9E11",
"|&	c #E7960D",
"1&	c #D67802",
"2&	c #DB8207",
"3&	c #EFA012",
"4&	c #F0A014",
"5&	c #F1A014",
"6&	c #EEA313",
"  . + @ + # $ % & * = - ; > , ' ) ! ~ ~ ~ { ] @ ^ / ( _ : < [ } ",
"| 1 2 3 4 5 6 7 8 9 0 5 a b c d e f g e h i j k l m n o p q r s ",
"[ t u v w x y z A B C D E F G H ~ I J K L M N O P Q R S T U V W ",
"X Y Z `  ...+.@.#.$.%.&.*.=.I -.;.>.e ,.'.).!.~.{.].^./.(._.u :.",
"<.[.}.|.1.2.3.4.5.6.7.8.9.0.a.b.c.d.e.f.g.h.i.j.k.l.m.n.o.Y p.q.",
"r.s.t.u.v.w.x.y.z.n.A.B.C.D.E.F.G.H.I.J.K.L.M.N.O.P.Q.R.S.T.5.U.",
"V.W.X.Y.Z.`. +.+V.++@+#+$+%+&+*+=+-+;+>+,+'+)+!+~+{+]+^+/+(+_+:+",
"<+[+!+}+|+1+2+3+4+5+6+7+8+9+0+a+b+c+d+e+f+g+h+i+j+k+l+m+n+o+p+q+",
"r+s+t+u+v+w+x+y+z+A+B+C+D+E+F+G+H+I+J+K+L+M+N+Y 1 O+P+Q+R+S+T+U+",
"V+W+X+Y+Z+`+ @.@+@@@#@$@%@&@*@=@-@;@>@,@'@)@!@[ ~@{@R v.]@^@/@(@",
"_@:@<@[@}@|@6+1@2@3@4@5@6@7@8@9@0@a@b@c@d@e@f@g@h@i@j@k@l@m@n@o@",
"p@q@r@s@t@u@v@w@x@y@z@A@B@C@D@E@F@G@H@I@J@K@L@M@N@O@P@Q@R@S@T@U@",
"V@W@X@Y@t@Z@`@ #.#+#@###$#%#%#&#*#=#-#;#>#,#'#)#!#~#{#]#^#/#(#_#",
":#<#4+[#}#/#|#1#2#3#4#5#6#7#8#9#0#a#b#c#d#e#f#g#h#i#j#k#l#m#n#s+",
"o#Z@p#q#r#s#t#u#v#w#x#y#z#A#B#C#D#0#E#b#F#G#H#I#Z@J#K#L#M#N#O#P#",
"Q#R#S#T#U#V#W#X#Y#Z#`# $.$+$@$#$$$D@b#%$&$*$=$-$;$>$,$'$)$v.!$~$",
"Q#R#S#T#U#V#W#X#Y#{$]$^$]$/$($_$:$<$[$}$J@|$1$2$;$>$,$'$)$v.!$~$",
"o#Z@p#q#r#s#t#u#v#3$4$5$6$7$8$9$:$0$a$b$c$d$e$f$Z@J#K#L#M#N#O#P#",
":#<#4+[#}#/#|#1#2#g$e+h$i$j$k$l$m$n$o$p$n$q$r$s$h#i#j#k#l#m#n#s+",
"V@W@X@Y@t@Z@`@ #.#t$d+u$v$w$x$y$z$A$B$C$D$E$F$G$!#~#{#]#^#/#(#_#",
"p@q@r@s@t@u@v@w@x@H$I$J$K$L$M$N$O$P$Q$R$S$T$U$V$N@O@P@Q@R@S@T@U@",
"_@:@<@[@}@|@6+1@2@W$X$Y$Z$`$ %.%+%@%#%$%%%&%*%=%h@i@j@k@l@m@n@o@",
"V+W+X+Y+Z+`+ @.@+@@@#@-%;%>%,%'%)%!%~%{%]%^%/%(%~@{@R v.]@^@/@(@",
"r+s+t+u+v+w+x+y+z+A+B+_%:%<%[%}%|%1%2%3%4%5%6%Y 1 O+P+Q+R+S+T+U+",
"<+[+!+}+|+1+2+3+4+5+6+7%8%9%0%a%b%c%d%e%f%g%h+i+j+k+l+m+n+o+p+q+",
"V.W.X.Y.Z.`. +.+V.++@+h%i%j%k%l%m%n%o%p%q%r%)+!+~+{+]+^+/+(+_+:+",
"r.s.t.u.v.w.x.y.z.n.A.s%t%u%v%w%x%y%z%A%B%C%M.N.O.P.Q.R.S.T.5.U.",
"<.[.}.|.1.2.3.4.5.6.7.D%E%F%G%H%I%J%K%L%M%N%i.j.k.l.m.n.o.Y p.q.",
"X Y Z `  ...+.@.#.$.%.O%P%Q%R%S%T%U%V%W%X%Y%!.~.{.].^./.(._.u :.",
"[ t u v w x y z A B C Z%`% &.&+&@&#&$&%&&&*&N O P Q R S T U V W ",
"| 1 2 3 4 5 6 7 8 9 0 =&-&;&>&,&'&)&!&~&{&]&^&/&l m n o p q r s ",
"  . + @ + # $ % & * = (&_&:&<&[&}&|&1&2&3&4&5&6&^ / ( _ : < [ } "};
