/* XPM */
static char * PS_xpm[] = {
"32 32 664 2",
"  	c #2B7300",
". 	c #2C6B02",
"+ 	c #286D01",
"@ 	c #296C01",
"# 	c #286C01",
"$ 	c #367001",
"% 	c #4A7C03",
"& 	c #4F7D00",
"* 	c #507D00",
"= 	c #3C7505",
"- 	c #286B01",
"; 	c #2A6E01",
"> 	c #5B4635",
", 	c #725536",
"' 	c #7F6240",
") 	c #8A6B48",
"! 	c #8A6A46",
"~ 	c #715942",
"{ 	c #537D02",
"] 	c #417502",
"^ 	c #2D6B03",
"/ 	c #2C6A01",
"( 	c #5B9002",
"_ 	c #719D01",
": 	c #759802",
"< 	c #6B9503",
"[ 	c #2D6F03",
"} 	c #276A02",
"| 	c #2C7000",
"1 	c #256B01",
"2 	c #2A6602",
"3 	c #2A6800",
"4 	c #286604",
"5 	c #296705",
"6 	c #296603",
"7 	c #346902",
"8 	c #4E7508",
"9 	c #4F7502",
"0 	c #507501",
"a 	c #3A6F07",
"b 	c #2A6A04",
"c 	c #5F4537",
"d 	c #735537",
"e 	c #806241",
"f 	c #8A6B47",
"g 	c #886C47",
"h 	c #896B48",
"i 	c #715842",
"j 	c #4F7700",
"k 	c #3D7001",
"l 	c #276801",
"m 	c #276903",
"n 	c #296404",
"o 	c #5A8A05",
"p 	c #6F9302",
"q 	c #6D9003",
"r 	c #649005",
"s 	c #2B6A01",
"t 	c #2B6601",
"u 	c #2A6700",
"v 	c #286700",
"w 	c #286801",
"x 	c #286807",
"y 	c #276900",
"z 	c #266702",
"A 	c #316B03",
"B 	c #4D7906",
"C 	c #517701",
"D 	c #517606",
"E 	c #3A6E05",
"F 	c #5C4337",
"G 	c #6D4F36",
"H 	c #7D613E",
"I 	c #856943",
"J 	c #876B44",
"K 	c #896C46",
"L 	c #896B46",
"M 	c #896B47",
"N 	c #866A43",
"O 	c #816443",
"P 	c #6F583E",
"Q 	c #286601",
"R 	c #2A6904",
"S 	c #296302",
"T 	c #598A05",
"U 	c #6F9503",
"V 	c #719301",
"W 	c #669007",
"X 	c #306A01",
"Y 	c #286603",
"Z 	c #2A6A05",
"` 	c #276B03",
" .	c #2A6702",
"..	c #2C6A02",
"+.	c #588605",
"@.	c #5F8804",
"#.	c #608802",
"$.	c #538305",
"%.	c #336B05",
"&.	c #356E05",
"*.	c #346A01",
"=.	c #3E7101",
"-.	c #604936",
";.	c #72553A",
">.	c #826442",
",.	c #8B6B48",
"'.	c #8A6A47",
").	c #8A6B46",
"!.	c #8A6A48",
"~.	c #886C48",
"{.	c #785D44",
"].	c #477502",
"^.	c #467404",
"/.	c #457402",
"(.	c #3E7203",
"_.	c #3C7301",
":.	c #3D7301",
"<.	c #3B7301",
"[.	c #276601",
"}.	c #286A03",
"|.	c #296A01",
"1.	c #296500",
"2.	c #2B6903",
"3.	c #689003",
"4.	c #729506",
"5.	c #749402",
"6.	c #618C03",
"7.	c #266503",
"8.	c #296702",
"9.	c #276802",
"0.	c #3F6F01",
"a.	c #583D2F",
"b.	c #64482E",
"c.	c #BE8149",
"d.	c #E59856",
"e.	c #E49758",
"f.	c #E39857",
"g.	c #C5864F",
"h.	c #745A3B",
"i.	c #674E39",
"j.	c #537A04",
"k.	c #507503",
"l.	c #507A00",
"m.	c #346803",
"n.	c #266704",
"o.	c #276604",
"p.	c #286701",
"q.	c #2B6901",
"r.	c #286901",
"s.	c #266A02",
"t.	c #276701",
"u.	c #2B6C09",
"v.	c #688E01",
"w.	c #6E9303",
"x.	c #6F9504",
"y.	c #5A8B07",
"z.	c #286702",
"A.	c #296802",
"B.	c #417001",
"C.	c #52382E",
"D.	c #5B422C",
"E.	c #CD874D",
"F.	c #FDA15C",
"G.	c #FFA15C",
"H.	c #FEA15D",
"I.	c #FEA05C",
"J.	c #FBA15C",
"K.	c #D58E51",
"L.	c #6E5438",
"M.	c #644A35",
"N.	c #517502",
"O.	c #517705",
"P.	c #4A7800",
"Q.	c #336A04",
"R.	c #276A05",
"S.	c #286902",
"T.	c #2A6901",
"U.	c #286705",
"V.	c #276904",
"W.	c #306E02",
"X.	c #316900",
"Y.	c #326B01",
"Z.	c #648B02",
"`.	c #6D8E0A",
" +	c #6A9206",
".+	c #578702",
"++	c #3A6B03",
"@+	c #316B01",
"#+	c #457204",
"$+	c #A85B30",
"%+	c #C56B31",
"&+	c #E8A75A",
"*+	c #FEBF6D",
"=+	c #FEC16E",
"-+	c #FDC16E",
";+	c #FCC26D",
">+	c #FCBF6C",
",+	c #ECAD60",
"'+	c #D17841",
")+	c #B6693B",
"!+	c #487706",
"~+	c #4A7602",
"{+	c #487704",
"]+	c #396D01",
"^+	c #346C01",
"/+	c #306C00",
"(+	c #336E01",
"_+	c #296804",
":+	c #2E6800",
"<+	c #326A00",
"[+	c #4A7907",
"}+	c #4B7703",
"|+	c #306D03",
"1+	c #2E6C03",
"2+	c #2A6B02",
"3+	c #417601",
"4+	c #698E08",
"5+	c #668F03",
"6+	c #659202",
"7+	c #548101",
"8+	c #C46831",
"9+	c #E47A31",
"0+	c #F4B25F",
"a+	c #FDCC73",
"b+	c #FDCC75",
"c+	c #FDCC72",
"d+	c #FECB74",
"e+	c #FECC72",
"f+	c #F7B966",
"g+	c #ED8541",
"h+	c #D1753F",
"i+	c #276906",
"j+	c #2B6904",
"k+	c #2F6802",
"l+	c #5B8603",
"m+	c #6B9105",
"n+	c #689001",
"o+	c #658C04",
"p+	c #477404",
"q+	c #457002",
"r+	c #497302",
"s+	c #517802",
"t+	c #4E7702",
"u+	c #4E7701",
"v+	c #2E6901",
"w+	c #2C6500",
"x+	c #266705",
"y+	c #3F7303",
"z+	c #709502",
"A+	c #6D9305",
"B+	c #709503",
"C+	c #5A8301",
"D+	c #884630",
"E+	c #A05334",
"F+	c #DC9B59",
"G+	c #FCB668",
"H+	c #FDD19C",
"I+	c #FAE7C8",
"J+	c #FCD39F",
"K+	c #FBB766",
"L+	c #E0A05A",
"M+	c #A55C3B",
"N+	c #8F5037",
"O+	c #286802",
"P+	c #5E8A00",
"Q+	c #6E9502",
"R+	c #6E9505",
"S+	c #6A8F01",
"T+	c #4C7403",
"U+	c #437203",
"V+	c #487301",
"W+	c #4F7801",
"X+	c #4D7705",
"Y+	c #4D7603",
"Z+	c #2B6A04",
"`+	c #296700",
" @	c #246501",
".@	c #3D7101",
"+@	c #6D9200",
"@@	c #6C9001",
"#@	c #6D9300",
"$@	c #578001",
"%@	c #477007",
"&@	c #467105",
"*@	c #C57F4D",
"=@	c #FE9F5A",
"-@	c #FED8BF",
";@	c #FEFEFB",
">@	c #FCD9C1",
",@	c #FD9F58",
"'@	c #C98552",
")@	c #4C7603",
"!@	c #548201",
"~@	c #266701",
"{@	c #276704",
"]@	c #5C8B0A",
"^@	c #6A9200",
"/@	c #497401",
"(@	c #427402",
"_@	c #467300",
":@	c #5C8401",
"<@	c #588103",
"[@	c #598102",
"}@	c #497B04",
"|@	c #487902",
"1@	c #467903",
"2@	c #779C01",
"3@	c #789B03",
"4@	c #8C1D29",
"5@	c #9B222A",
"6@	c #9B202C",
"7@	c #9A2029",
"8@	c #DA6A44",
"9@	c #FD8248",
"0@	c #F9B695",
"a@	c #F8D7C8",
"b@	c #FBB89C",
"c@	c #FE8347",
"d@	c #DB6F43",
"e@	c #97212D",
"f@	c #9C2229",
"g@	c #9C212C",
"h@	c #8E1D2C",
"i@	c #497802",
"j@	c #588406",
"k@	c #608902",
"l@	c #5F8801",
"m@	c #5E8700",
"n@	c #588005",
"o@	c #547D04",
"p@	c #528004",
"q@	c #6D9501",
"r@	c #6D9203",
"s@	c #6A9101",
"t@	c #507902",
"u@	c #4C7701",
"v@	c #4A7502",
"w@	c #5C8200",
"x@	c #84A901",
"y@	c #83A702",
"z@	c #E53421",
"A@	c #FC3A21",
"B@	c #FB3A1F",
"C@	c #FC3A1D",
"D@	c #FE371F",
"E@	c #FE351D",
"F@	c #F56835",
"G@	c #EF843F",
"H@	c #F56B34",
"I@	c #FD361C",
"J@	c #FD3720",
"K@	c #FC3A1E",
"L@	c #FC3A1F",
"M@	c #EB3620",
"N@	c #6E9201",
"O@	c #537A00",
"P@	c #446F02",
"Q@	c #457302",
"R@	c #4D7504",
"S@	c #4C7604",
"T@	c #446D01",
"U@	c #447302",
"V@	c #6F9702",
"W@	c #6E9001",
"X@	c #6C9006",
"Y@	c #517904",
"Z@	c #4B7401",
"`@	c #5F8301",
" #	c #7F192D",
".#	c #831C2D",
"+#	c #FA321C",
"@#	c #F7311A",
"##	c #FB371E",
"$#	c #FD381D",
"%#	c #F95E31",
"&#	c #F0783C",
"*#	c #F96033",
"=#	c #FC381E",
"-#	c #FD3A20",
";#	c #F63118",
">#	c #EA2E1E",
",#	c #811D2D",
"'#	c #477305",
")#	c #467200",
"!#	c #4C7704",
"~#	c #4C7501",
"{#	c #437300",
"]#	c #487401",
"^#	c #6E9603",
"/#	c #688F00",
"(#	c #507901",
"_#	c #4B7701",
":#	c #5E8203",
"<#	c #EB3721",
"[#	c #FA3A21",
"}#	c #FC3821",
"|#	c #EB210E",
"1#	c #E40F01",
"2#	c #F62F18",
"3#	c #FE3821",
"4#	c #FD381E",
"5#	c #FE381E",
"6#	c #FD391E",
"7#	c #FE361E",
"8#	c #FD391F",
"9#	c #FD381F",
"0#	c #F7321B",
"a#	c #E61003",
"b#	c #E81A07",
"c#	c #F9391F",
"d#	c #F13820",
"e#	c #457001",
"f#	c #487202",
"g#	c #4C7803",
"h#	c #557B04",
"i#	c #487403",
"j#	c #4C7800",
"k#	c #497504",
"l#	c #487201",
"m#	c #467201",
"n#	c #477003",
"o#	c #547903",
"p#	c #EE5330",
"q#	c #FB5931",
"r#	c #FD4F2A",
"s#	c #FD4D2B",
"t#	c #EF2912",
"u#	c #F52F17",
"v#	c #FC391E",
"w#	c #FE391F",
"x#	c #FD3A1F",
"y#	c #FF371E",
"z#	c #F8371C",
"A#	c #E9361B",
"B#	c #EB3B1D",
"C#	c #FC562D",
"D#	c #F3542E",
"E#	c #608A02",
"F#	c #608A04",
"G#	c #5F8901",
"H#	c #699005",
"I#	c #669202",
"J#	c #699300",
"K#	c #487402",
"L#	c #466F02",
"M#	c #447103",
"N#	c #457102",
"O#	c #447204",
"P#	c #457004",
"Q#	c #507802",
"R#	c #EDC16E",
"S#	c #FDC974",
"T#	c #FCA95F",
"U#	c #EB542C",
"V#	c #E60E01",
"W#	c #F62F17",
"X#	c #FF3820",
"Y#	c #FE381F",
"Z#	c #FF381F",
"`#	c #FE3A20",
" $	c #FC5C31",
".$	c #FDA05B",
"+$	c #FDA760",
"@$	c #FECA71",
"#$	c #F5C471",
"$$	c #6E9503",
"%$	c #6C9405",
"&$	c #6B9201",
"*$	c #6C9102",
"=$	c #6F9601",
"-$	c #EDC36F",
";$	c #FDCB70",
">$	c #F0A65D",
",$	c #ED9B5B",
"'$	c #E84F2C",
")$	c #E41002",
"!$	c #F62E1B",
"~$	c #FE3920",
"{$	c #FE3820",
"]$	c #FA5A34",
"^$	c #EF9B58",
"/$	c #F1A35D",
"($	c #FDCB73",
"_$	c #F5C771",
":$	c #EFC171",
"<$	c #FBCC73",
"[$	c #795B43",
"}$	c #5D8705",
"|$	c #C4181A",
"1$	c #E70F03",
"2$	c #F42F17",
"3$	c #FF391F",
"4$	c #FE391E",
"5$	c #FE3A1F",
"6$	c #DA3625",
"7$	c #74563F",
"8$	c #F9CA71",
"9$	c #F4C570",
"0$	c #E7BF6D",
"a$	c #F5CA72",
"b$	c #6E5642",
"c$	c #769E02",
"d$	c #C01416",
"e$	c #E31002",
"f$	c #F12E17",
"g$	c #FA3920",
"h$	c #FC3B21",
"i$	c #FE3D21",
"j$	c #FC3C20",
"k$	c #FA391F",
"l$	c #FA3922",
"m$	c #D43426",
"n$	c #68910A",
"o$	c #694F41",
"p$	c #F1C870",
"q$	c #EEC471",
"r$	c #624941",
"s$	c #66493F",
"t$	c #D2AB63",
"u$	c #DFB96C",
"v$	c #B26837",
"w$	c #9A2D11",
"x$	c #AA3A1A",
"y$	c #AF3F1E",
"z$	c #DC7B19",
"A$	c #FC9B13",
"B$	c #DF7D18",
"C$	c #B0401D",
"D$	c #B2411E",
"E$	c #BD6939",
"F$	c #DFBA6A",
"G$	c #D4AE67",
"H$	c #644B40",
"I$	c #63493C",
"J$	c #E3BC69",
"K$	c #F9CF74",
"L$	c #B4733B",
"M$	c #8A3113",
"N$	c #993C19",
"O$	c #A13F1F",
"P$	c #D68219",
"Q$	c #FAA910",
"R$	c #D98716",
"S$	c #A13F20",
"T$	c #A1411D",
"U$	c #A04121",
"V$	c #BD723C",
"W$	c #FBCE77",
"X$	c #EAC06B",
"Y$	c #6D5541",
"Z$	c #775E49",
"`$	c #617299",
" %	c #587AB2",
".%	c #6392C5",
"+%	c #669DCE",
"@%	c #7699BF",
"#%	c #8194B6",
"$%	c #728CB2",
"%%	c #5F7EB5",
"&%	c #6188BF",
"*%	c #679CCE",
"=%	c #6A8CB4",
"-%	c #785E49",
";%	c #6E5742",
">%	c #3878B3",
",%	c #418BD2",
"'%	c #49A8EE",
")%	c #4EB3FB",
"!%	c #489FE6",
"~%	c #438FD4",
"{%	c #418ED1",
"]%	c #418DD3",
"^%	c #449ADE",
"/%	c #4DB2FC",
"(%	c #449BD6",
"_%	c #3876B4",
":%	c #3F8CD1",
"<%	c #49A7EF",
"[%	c #4EB5FD",
"}%	c #3E86C2",
"|%	c #2F568B",
"1%	c #356FA9",
"2%	c #418DD4",
"3%	c #4399E1",
"4%	c #4CB3FD",
"5%	c #449ADB",
"6%	c #4DB5FD",
"7%	c #80A503",
"8%	c #81A301",
"9%	c #799E02",
"0%	c #408FD4",
"a%	c #449AE2",
"b%	c #4DB4FD",
"c%	c #4DB6FD",
"d%	c #557C02",
"e%	c #577B01",
"f%	c #4D7802",
"g%	c #418FD6",
"h%	c #439ADF",
"i%	c #4CB4FE",
"j%	c #3876B6",
"k%	c #3E8DD2",
"l%	c #49A8EF",
"m%	c #4EB4FC",
"n%	c #4C7801",
"o%	c #4F7900",
"p%	c #447501",
"q%	c #428ED5",
"r%	c #439AE1",
"s%	c #4BB3FE",
"t%	c #439BDB",
"u%	c #3877B6",
"v%	c #3F8CD3",
"w%	c #4BA7EE",
"x%	c #4DB5FF",
"y%	c #4D7503",
"z%	c #527701",
"A%	c #467301",
"B%	c #418ED4",
"C%	c #449AE1",
"D%	c #4DB3FD",
"E%	c #449BD9",
"F%	c #3977B4",
"G%	c #3F8CD2",
"H%	c #47A8F0",
"I%	c #4DB5FC",
"J%	c #4C7706",
"K%	c #517602",
"L%	c #497403",
"M%	c #418ED5",
"N%	c #449AE0",
"O%	c #4EB3FD",
"P%	c #449ADC",
"Q%	c #6475A2",
"R%	c #738AB8",
"S%	c #80A5D1",
"T%	c #85B2DF",
"U%	c #4C7905",
"V%	c #4F7702",
"W%	c #758CBD",
"X%	c #7798C9",
"Y%	c #84B1E2",
"Z%	c #7299C3",
"`%	c #BF6A0A",
" &	c #DF7E00",
".&	c #F39A00",
"+&	c #FCA900",
"@&	c #4D7703",
"#&	c #4E7500",
"$&	c #4E7601",
"%&	c #E48000",
"&&	c #E98F00",
"*&	c #FBA700",
"=&	c #D7910F",
"-&	c #B66718",
";&	c #D97804",
">&	c #E6940D",
",&	c #EEA412",
"'&	c #527D01",
")&	c #527C01",
"!&	c #D77C06",
"~&	c #E0860C",
"{&	c #EFA112",
"]&	c #CD8C1C",
"  . + @ + # $ % & * = - ; > , ' ) ) ! ~ { ] ^ @ / ( _ : < [ } | ",
"1 2 3 4 5 6 7 8 9 0 a 6 b c d e f g h i j k l m n o p q r s t u ",
"} v w x y z A B C D E F G H I J K L M N O P Q R S T U V W X Y Z ",
"`  ...+.@.#.$.%.&.*.=.-.;.>.,.'.'.).f !.~.{.].^./.(._.:.<.[.w }.",
"|.1.2.3.4.5.6.7.8.9.0.a.b.c.d.d.d.e.f.g.h.i.j.k.l.m.n.o.p. .q.r.",
"s.t.u.v.w.x.y.z.A.o.B.C.D.E.F.G.H.I.J.K.L.M.N.O.P.Q.R.S.T.U.8.V.",
"W.X.Y.Z.`. +.+++W.@+#+$+%+&+*+=+-+;+>+,+'+)+!+~+{+]+^+/+(+_+:+<+",
"[+}+~+|+1+2+3+4+5+6+7+8+9+0+a+b+c+d+e+f+g+h+i+j+k+l+m+n+o+p+q+r+",
"s+t+u+v+w+x+y+z+A+B+C+D+E+F+G+H+I+J+K+L+M+N+O+ .2 P+Q+R+S+T+U+V+",
"W+X+Y+Z+`+ @.@+@@@#@$@%@&@*@=@-@;@>@,@'@)@!@~@} {@]@U w.^@/@(@_@",
":@<@[@}@|@1@7+2@3@4@5@6@7@8@9@0@a@b@c@d@e@f@g@h@i@j@k@l@m@n@o@p@",
"q@r@s@t@u@v@w@x@y@z@A@B@C@D@E@F@G@H@I@J@K@L@K@M@N@O@P@Q@R@S@T@U@",
"V@W@X@Y@u@Z@`@ #.#M@B@+#@###$#%#&#*#=#=#-#$#;#>#.#,#'#)#!#~#{#]#",
"^#/#5+(#_#~#:#<#[#}#L@|#1#2#3#4#5#6#7#8#9#0#a#b#c#d#e#f#g#h#i#t+",
"j#Z@k#l#m#n#o#p#q#r#s#t#1#u#v#w#x#-#v#8#y#z#A#B#C#D#E#F#G#H#I#J#",
"K#L#M#N#O#P#Q#R#S#T#H.U#V#W#X#Y#w#Z#5#Z#`# $.$+$@$#$$$%$&$w.*$=$",
"K#L#M#N#O#P#Q#-$;$>$,$'$)$!$~$w#Y#~$w#~${$]$^$/$($_$$$%$&$w.*$=$",
"j#Z@k#l#m#n#o#:$<$[$}$|$1$2$3$4$`#8#~$8#5$6$/@7$8$9$E#F#G#H#I#J#",
"^#/#5+(#_#~#:#0$a$b$c$d$e$f$g$h$i$j$k$l$g$m$n$o$p$q$e#f#g#h#i#t+",
"V@W@X@Y@u@Z@`@r$s$t$u$v$w$x$y$z$A$B$C$C$D$E$F$G$H$I$'#)#!#~#{#]#",
"q@r@s@t@u@v@w@x@y@J$K$L$M$N$O$P$Q$R$S$T$U$V$W$X$N@O@P@Q@R@S@T@U@",
":@<@[@}@|@1@7+2@3@Y$Z$`$ %.%+%@%#%$%%%&%*%=%-%;%i@j@k@l@m@n@o@p@",
"W+X+Y+Z+`+ @.@+@@@#@$@>%,%'%)%!%~%{%]%^%/%(%~@} {@]@U w.^@/@(@_@",
"s+t+u+v+w+x+y+z+A+B+C+_%:%<%[%}%|%1%2%3%4%5%O+ .2 P+Q+R+S+T+U+V+",
"[+}+~+|+1+2+3+4+5+6+7+_%:%<%6%7%8%9%0%a%b%5%i+j+k+l+m+n+o+p+q+r+",
"W.X.Y.Z.`. +.+++W.@+#+_%:%<%c%d%e%f%g%h%i%5%!+~+{+]+^+/+(+_+:+<+",
"s.t.u.v.w.x.y.z.A.o.B.j%k%l%m%n%o%p%q%r%s%t%N.O.P.Q.R.S.T.U.8.V.",
"|.1.2.3.4.5.6.7.8.9.0.u%v%w%x%y%z%A%B%C%D%E%j.k.l.m.n.o.p. .q.r.",
"`  ...+.@.#.$.%.&.*.=.F%G%H%I%J%K%L%M%N%O%P%].^./.(._.:.<.[.w }.",
"} v w x y z A B C D E Q%R%S%T%U%j V%W%X%Y%Z%Q R S T U V W X Y Z ",
"1 2 3 4 5 6 7 8 9 0 a `% &.&+&@&#&$&%&&&*&=&l m n o p q r s t u ",
"  . + @ + # $ % & * = -&;&>&,&'&)&)&!&~&{&]&^ @ / ( _ : < [ } | "};
