/* XPM */
static char * PW_xpm[] = {
"32 32 663 2",
"  	c #2B7300",
". 	c #2C6B02",
"+ 	c #286D01",
"@ 	c #296C01",
"# 	c #286C01",
"$ 	c #367001",
"% 	c #4A7C03",
"& 	c #4F7D00",
"* 	c #507D00",
"= 	c #3C7505",
"- 	c #286B01",
"; 	c #2A6E01",
"> 	c #543E36",
", 	c #715637",
"' 	c #7D5E3E",
") 	c #886B47",
"! 	c #886A47",
"~ 	c #886945",
"{ 	c #765C45",
"] 	c #537D02",
"^ 	c #417502",
"/ 	c #2D6B03",
"( 	c #2C6A01",
"_ 	c #5B9002",
": 	c #719D01",
"< 	c #759802",
"[ 	c #6B9503",
"} 	c #2D6F03",
"| 	c #276A02",
"1 	c #2C7000",
"2 	c #256B01",
"3 	c #2A6602",
"4 	c #2A6800",
"5 	c #286604",
"6 	c #296705",
"7 	c #296603",
"8 	c #346902",
"9 	c #4E7508",
"0 	c #4F7502",
"a 	c #507501",
"b 	c #3A6F07",
"c 	c #2A6A04",
"d 	c #553D33",
"e 	c #73563A",
"f 	c #836648",
"g 	c #907350",
"h 	c #8F7250",
"i 	c #8B6E4A",
"j 	c #755B42",
"k 	c #4F7700",
"l 	c #3D7001",
"m 	c #276801",
"n 	c #276903",
"o 	c #296404",
"p 	c #5A8A05",
"q 	c #6F9302",
"r 	c #6D9003",
"s 	c #649005",
"t 	c #2B6A01",
"u 	c #2B6601",
"v 	c #2A6700",
"w 	c #286700",
"x 	c #286801",
"y 	c #286807",
"z 	c #276900",
"A 	c #266702",
"B 	c #316B03",
"C 	c #4D7906",
"D 	c #517701",
"E 	c #517606",
"F 	c #3A6E05",
"G 	c #553F34",
"H 	c #6B513A",
"I 	c #785F3C",
"J 	c #8A6D4B",
"K 	c #8F7251",
"L 	c #8D704E",
"M 	c #8E714F",
"N 	c #907351",
"O 	c #876C49",
"P 	c #7D6443",
"Q 	c #735C40",
"R 	c #286601",
"S 	c #2A6904",
"T 	c #296302",
"U 	c #598A05",
"V 	c #6F9503",
"W 	c #719301",
"X 	c #669007",
"Y 	c #306A01",
"Z 	c #286603",
"` 	c #2A6A05",
" .	c #276B03",
"..	c #2A6702",
"+.	c #2C6A02",
"@.	c #588605",
"#.	c #5F8804",
"$.	c #608802",
"%.	c #538305",
"&.	c #336B05",
"*.	c #356E05",
"=.	c #346A01",
"-.	c #3E7101",
";.	c #5C4336",
">.	c #725438",
",.	c #7D6041",
"'.	c #8D704F",
").	c #896C4A",
"!.	c #8F7351",
"~.	c #876B47",
"{.	c #886948",
"].	c #7D5F43",
"^.	c #477502",
"/.	c #467404",
"(.	c #457402",
"_.	c #3E7203",
":.	c #3C7301",
"<.	c #3D7301",
"[.	c #3B7301",
"}.	c #276601",
"|.	c #286A03",
"1.	c #296A01",
"2.	c #296500",
"3.	c #2B6903",
"4.	c #689003",
"5.	c #729506",
"6.	c #749402",
"7.	c #618C03",
"8.	c #266503",
"9.	c #296702",
"0.	c #276802",
"a.	c #3F6F01",
"b.	c #4F3830",
"c.	c #62482D",
"d.	c #664B31",
"e.	c #71573C",
"f.	c #775D40",
"g.	c #7E6447",
"h.	c #7C6144",
"i.	c #755A3D",
"j.	c #7B6040",
"k.	c #7C6143",
"l.	c #6E533A",
"m.	c #537A04",
"n.	c #507503",
"o.	c #507A00",
"p.	c #346803",
"q.	c #266704",
"r.	c #276604",
"s.	c #286701",
"t.	c #2B6901",
"u.	c #286901",
"v.	c #266A02",
"w.	c #276701",
"x.	c #2B6C09",
"y.	c #688E01",
"z.	c #6E9303",
"A.	c #6F9504",
"B.	c #5A8B07",
"C.	c #286702",
"D.	c #296802",
"E.	c #417001",
"F.	c #4F3732",
"G.	c #614631",
"H.	c #60452F",
"I.	c #654A35",
"J.	c #72583D",
"K.	c #7B6043",
"L.	c #735A3D",
"M.	c #775B3F",
"N.	c #7C6044",
"O.	c #755B43",
"P.	c #644D36",
"Q.	c #517502",
"R.	c #517705",
"S.	c #4A7800",
"T.	c #336A04",
"U.	c #276A05",
"V.	c #286902",
"W.	c #2A6901",
"X.	c #286705",
"Y.	c #276904",
"Z.	c #306E02",
"`.	c #316900",
" +	c #326B01",
".+	c #648B02",
"++	c #6D8E0A",
"@+	c #6A9206",
"#+	c #578702",
"$+	c #3A6B03",
"%+	c #316B01",
"&+	c #457204",
"*+	c #A15F3A",
"=+	c #C8743F",
"-+	c #9D633A",
";+	c #654A31",
">+	c #6B4F38",
",+	c #6E543C",
"'+	c #6E553C",
")+	c #71563E",
"!+	c #865D3B",
"~+	c #CF793E",
"{+	c #BA6D3C",
"]+	c #487706",
"^+	c #4A7602",
"/+	c #487704",
"(+	c #396D01",
"_+	c #346C01",
":+	c #306C00",
"<+	c #336E01",
"[+	c #296804",
"}+	c #2E6800",
"|+	c #326A00",
"1+	c #4A7907",
"2+	c #4B7703",
"3+	c #306D03",
"4+	c #2E6C03",
"5+	c #2A6B02",
"6+	c #417601",
"7+	c #698E08",
"8+	c #668F03",
"9+	c #659202",
"0+	c #548101",
"a+	c #B7653A",
"b+	c #E67F39",
"c+	c #AF6B3D",
"d+	c #694E38",
"e+	c #614830",
"f+	c #624832",
"g+	c #654B35",
"h+	c #644833",
"i+	c #895530",
"j+	c #EF8543",
"k+	c #D9793E",
"l+	c #286211",
"m+	c #2B6904",
"n+	c #2F6802",
"o+	c #5B8603",
"p+	c #6B9105",
"q+	c #689001",
"r+	c #658C04",
"s+	c #477404",
"t+	c #457002",
"u+	c #497302",
"v+	c #517802",
"w+	c #4E7702",
"x+	c #4E7701",
"y+	c #2E6901",
"z+	c #2C6500",
"A+	c #266705",
"B+	c #3F7303",
"C+	c #709502",
"D+	c #6D9305",
"E+	c #709503",
"F+	c #5A8301",
"G+	c #7B4131",
"H+	c #9C5330",
"I+	c #AD6C43",
"J+	c #C28452",
"K+	c #BF804E",
"L+	c #BB7B49",
"M+	c #BC7B48",
"N+	c #BC7B49",
"O+	c #AF7346",
"P+	c #A25D39",
"Q+	c #925439",
"R+	c #286802",
"S+	c #5E8A00",
"T+	c #6E9502",
"U+	c #6E9505",
"V+	c #6A8F01",
"W+	c #4C7403",
"X+	c #437203",
"Y+	c #487301",
"Z+	c #4F7801",
"`+	c #4D7705",
" @	c #4D7603",
".@	c #2B6A04",
"+@	c #296700",
"@@	c #246501",
"#@	c #3D7101",
"$@	c #6D9200",
"%@	c #6C9001",
"&@	c #6D9300",
"*@	c #537812",
"=@	c #477007",
"-@	c #467105",
";@	c #B8744E",
">@	c #FDA666",
",@	c #FCA662",
"'@	c #F9A05A",
")@	c #FBA05B",
"!@	c #FAA15A",
"~@	c #D48C54",
"{@	c #4C7603",
"]@	c #548201",
"^@	c #266701",
"/@	c #276704",
"(@	c #5C8B0A",
"_@	c #6A9200",
":@	c #497401",
"<@	c #427402",
"[@	c #467300",
"}@	c #5C8401",
"|@	c #588103",
"1@	c #598102",
"2@	c #497B04",
"3@	c #487902",
"4@	c #467903",
"5@	c #779C01",
"6@	c #789B03",
"7@	c #801F31",
"8@	c #9B2A35",
"9@	c #9E2D36",
"0@	c #9C292F",
"a@	c #CF6441",
"b@	c #FC8B50",
"c@	c #FA854F",
"d@	c #FA834B",
"e@	c #FB844C",
"f@	c #FB834B",
"g@	c #E37247",
"h@	c #98232A",
"i@	c #99212B",
"j@	c #9A212A",
"k@	c #8F2229",
"l@	c #497802",
"m@	c #588406",
"n@	c #608902",
"o@	c #5F8801",
"p@	c #5E8700",
"q@	c #588005",
"r@	c #547D04",
"s@	c #528004",
"t@	c #6D9501",
"u@	c #6D9203",
"v@	c #6A9101",
"w@	c #507902",
"x@	c #4C7701",
"y@	c #4A7502",
"z@	c #5C8200",
"A@	c #84A901",
"B@	c #83A702",
"C@	c #D2382B",
"D@	c #F63D25",
"E@	c #FB4429",
"F@	c #FC4629",
"G@	c #FC442C",
"H@	c #FD3F2B",
"I@	c #FB3821",
"J@	c #FB371F",
"K@	c #FC381F",
"L@	c #FD371D",
"M@	c #FC391E",
"N@	c #FB3B1E",
"O@	c #FD3A20",
"P@	c #FD391D",
"Q@	c #EE3820",
"R@	c #6E9201",
"S@	c #537A00",
"T@	c #446F02",
"U@	c #457302",
"V@	c #4D7504",
"W@	c #4C7604",
"X@	c #446D01",
"Y@	c #447302",
"Z@	c #6F9702",
"`@	c #6E9001",
" #	c #6C9006",
".#	c #517904",
"+#	c #4B7401",
"@#	c #5F8301",
"##	c #731E34",
"$#	c #842537",
"%#	c #E23F30",
"&#	c #F73F26",
"*#	c #F43720",
"=#	c #F73B27",
"-#	c #F93D27",
";#	c #FB3A1F",
">#	c #FC391F",
",#	c #FD391F",
"'#	c #FF391F",
")#	c #FE391F",
"!#	c #FD3920",
"~#	c #FD381E",
"{#	c #F7311B",
"]#	c #EB301B",
"^#	c #881C2B",
"/#	c #861C2A",
"(#	c #477305",
"_#	c #467200",
":#	c #4C7704",
"<#	c #4C7501",
"[#	c #437300",
"}#	c #487401",
"|#	c #6E9603",
"1#	c #688F00",
"2#	c #507901",
"3#	c #4B7701",
"4#	c #5E8203",
"5#	c #D23520",
"6#	c #F43B23",
"7#	c #FC442A",
"8#	c #FD442A",
"9#	c #E72413",
"0#	c #DE1304",
"a#	c #EF2A16",
"b#	c #FC381E",
"c#	c #FE381F",
"d#	c #F9331B",
"e#	c #E71104",
"f#	c #E91508",
"g#	c #F8381D",
"h#	c #FA3922",
"i#	c #457001",
"j#	c #487202",
"k#	c #4C7803",
"l#	c #557B04",
"m#	c #487403",
"n#	c #4C7800",
"o#	c #497504",
"p#	c #487201",
"q#	c #467201",
"r#	c #477003",
"s#	c #547903",
"t#	c #D94B2E",
"u#	c #F35631",
"v#	c #FB5636",
"w#	c #FD5534",
"x#	c #EB2F1A",
"y#	c #E10F01",
"z#	c #F12815",
"A#	c #FF381F",
"B#	c #FC3A1F",
"C#	c #F9381D",
"D#	c #E9361A",
"E#	c #EA391C",
"F#	c #FD532D",
"G#	c #FD5630",
"H#	c #608A02",
"I#	c #608A04",
"J#	c #5F8901",
"K#	c #699005",
"L#	c #669202",
"M#	c #699300",
"N#	c #487402",
"O#	c #466F02",
"P#	c #447103",
"Q#	c #457102",
"R#	c #447204",
"S#	c #457004",
"T#	c #507802",
"U#	c #DBB56C",
"V#	c #F8CA75",
"W#	c #FEB16B",
"X#	c #FCA560",
"Y#	c #E95F35",
"Z#	c #E30E02",
"`#	c #F12914",
" $	c #FE391E",
".$	c #FE3A1F",
"+$	c #FD391E",
"@$	c #FC4F2C",
"#$	c #FE9E5A",
"$$	c #FEA45E",
"%$	c #FEC871",
"&$	c #FDCC6F",
"*$	c #6E9503",
"=$	c #6C9405",
"-$	c #6B9201",
";$	c #6C9102",
">$	c #6F9601",
",$	c #DFBB74",
"'$	c #FDCE7D",
")$	c #F2AC67",
"!$	c #ED9B5E",
"~$	c #E65B35",
"{$	c #E20F03",
"]$	c #F12913",
"^$	c #FF3920",
"/$	c #FE3820",
"($	c #FA4D2C",
"_$	c #F0995A",
":$	c #F19F5B",
"<$	c #FDCA72",
"[$	c #FECC75",
"}$	c #DBB76D",
"|$	c #FBCB74",
"1$	c #836548",
"2$	c #5D8705",
"3$	c #BA1A1B",
"4$	c #E51002",
"5$	c #F12A12",
"6$	c #FB391D",
"7$	c #E23425",
"8$	c #64463D",
"9$	c #EEC570",
"0$	c #FECC71",
"a$	c #D1B169",
"b$	c #F0C871",
"c$	c #776044",
"d$	c #769E02",
"e$	c #B4141B",
"f$	c #E31104",
"g$	c #EE2A14",
"h$	c #FA391F",
"i$	c #FA3920",
"j$	c #FA3921",
"k$	c #DD3423",
"l$	c #68910A",
"m$	c #553E3C",
"n$	c #E7C16D",
"o$	c #F3CA73",
"p$	c #594439",
"q$	c #63493F",
"r$	c #C2A163",
"s$	c #E0B86A",
"t$	c #B67440",
"u$	c #9A2D10",
"v$	c #A8391A",
"w$	c #B0411E",
"x$	c #B2401D",
"y$	c #B1411E",
"z$	c #B1401D",
"A$	c #B1411D",
"B$	c #B24022",
"C$	c #B75930",
"D$	c #DDB76B",
"E$	c #D5B368",
"F$	c #664F41",
"G$	c #654D3E",
"H$	c #D3B069",
"I$	c #F9CE73",
"J$	c #BB8245",
"K$	c #8B3013",
"L$	c #99391A",
"M$	c #A0411D",
"N$	c #A2411F",
"O$	c #A2411E",
"P$	c #A3411E",
"Q$	c #A1411E",
"R$	c #B35F31",
"S$	c #F7CE72",
"T$	c #ECC870",
"U$	c #674F42",
"V$	c #755D46",
"W$	c #626D92",
"X$	c #557CB0",
"Y$	c #608EC3",
"Z$	c #679DD0",
"`$	c #6290C3",
" %	c #5F7DB3",
".%	c #607DB2",
"+%	c #607DB3",
"@%	c #6284BA",
"#%	c #689DCF",
"$%	c #6A93B8",
"%%	c #785E4E",
"&%	c #705C49",
"*%	c #578001",
"=%	c #366FAB",
"-%	c #408CD3",
";%	c #48A2EA",
">%	c #4DB3FD",
",%	c #48A4EA",
"'%	c #408ED4",
")%	c #3F8ED3",
"!%	c #418DD2",
"~%	c #4497DD",
"{%	c #4DB2FA",
"]%	c #48A3DF",
"^%	c #3470AA",
"/%	c #408ED3",
"(%	c #47A2EA",
"_%	c #4DB3FE",
":%	c #4391D1",
"<%	c #30568B",
"[%	c #3569A3",
"}%	c #428ED4",
"|%	c #4497DE",
"1%	c #4DB2FD",
"2%	c #47A3E2",
"3%	c #3E8DD3",
"4%	c #46A4EC",
"5%	c #50B3FB",
"6%	c #3B85BE",
"7%	c #81A301",
"8%	c #799E02",
"9%	c #418FD8",
"0%	c #4396DC",
"a%	c #276809",
"b%	c #3F8ED4",
"c%	c #48A2EB",
"d%	c #4CB5FA",
"e%	c #3F83C1",
"f%	c #577B01",
"g%	c #4D7802",
"h%	c #438FD5",
"i%	c #4397DE",
"j%	c #477609",
"k%	c #3570AA",
"l%	c #408DD3",
"m%	c #46A3EB",
"n%	c #4EB5FD",
"o%	c #3C85C0",
"p%	c #4F7900",
"q%	c #447501",
"r%	c #428FD7",
"s%	c #4396DE",
"t%	c #507405",
"u%	c #3670AB",
"v%	c #418DD4",
"w%	c #45A4EA",
"x%	c #4EB4FD",
"y%	c #3E85BE",
"z%	c #527701",
"A%	c #467301",
"B%	c #438ED6",
"C%	c #4CB4FC",
"D%	c #46A3E1",
"E%	c #527907",
"F%	c #3471AA",
"G%	c #3F8DD3",
"H%	c #46A2EA",
"I%	c #4FB3FC",
"J%	c #3E84BF",
"K%	c #517602",
"L%	c #497403",
"M%	c #418FD6",
"N%	c #4296DF",
"O%	c #48A2E1",
"P%	c #5F6E97",
"Q%	c #768ABA",
"R%	c #7EA0CE",
"S%	c #87B1DE",
"T%	c #6583AB",
"U%	c #4F7702",
"V%	c #748DBF",
"W%	c #7694C4",
"X%	c #83B1E1",
"Y%	c #74A0C9",
"Z%	c #B36315",
"`%	c #E08000",
" &	c #F09700",
".&	c #FCA800",
"+&	c #BD7C1D",
"@&	c #4E7500",
"#&	c #4E7601",
"$&	c #E28100",
"%&	c #E78800",
"&&	c #FCA700",
"*&	c #DD990C",
"=&	c #A9601A",
"-&	c #DB7705",
";&	c #E5900F",
">&	c #EEA212",
",&	c #B27722",
"'&	c #527C01",
")&	c #DC7B04",
"!&	c #DB8409",
"~&	c #EEA114",
"{&	c #D19116",
"  . + @ + # $ % & * = - ; > , ' ) ! ~ { ] ^ / @ ( _ : < [ } | 1 ",
"2 3 4 5 6 7 8 9 0 a b 7 c d e f g h i j k l m n o p q r s t u v ",
"| w x y z A B C D E F G H I J K L M N O P Q R S T U V W X Y Z ` ",
" ...+.@.#.$.%.&.*.=.-.;.>.,.g '.).!.M ~.{.].^./.(._.:.<.[.}.x |.",
"1.2.3.4.5.6.7.8.9.0.a.b.c.d.e.f.g.h.i.j.k.l.m.n.o.p.q.r.s...t.u.",
"v.w.x.y.z.A.B.C.D.r.E.F.G.H.I.J.K.L.M.N.O.P.Q.R.S.T.U.V.W.X.9.Y.",
"Z.`. +.+++@+#+$+Z.%+&+*+=+-+;+>+,+'+)+!+~+{+]+^+/+(+_+:+<+[+}+|+",
"1+2+^+3+4+5+6+7+8+9+0+a+b+c+d+e+f+g+h+i+j+k+l+m+n+o+p+q+r+s+t+u+",
"v+w+x+y+z+A+B+C+D+E+F+G+H+I+J+K+L+M+N+O+P+Q+R+..3 S+T+U+V+W+X+Y+",
"Z+`+ @.@+@@@#@$@%@&@*@=@-@;@>@,@'@)@!@~@{@]@^@| /@(@V z._@:@<@[@",
"}@|@1@2@3@4@0+5@6@7@8@9@0@a@b@c@d@e@f@g@h@i@j@k@l@m@n@o@p@q@r@s@",
"t@u@v@w@x@y@z@A@B@C@D@E@F@G@H@I@J@K@L@M@N@O@P@Q@R@S@T@U@V@W@X@Y@",
"Z@`@ #.#x@+#@###$#%#&#*#=#-#;#K@>#,#'#)#!#~#{#]#^#/#(#_#:#<#[#}#",
"|#1#8+2#3#<#4#5#6#7#8#9#0#a#b#b#,#'#'#c#,#d#e#f#g#h#i#j#k#l#m#w+",
"n#+#o#p#q#r#s#t#u#v#w#x#y#z#M@,#'#'#'#A#B#C#D#E#F#G#H#I#J#K#L#M#",
"N#O#P#Q#R#S#T#U#V#W#X#Y#Z#`#M@ $'#'#'#.$+$@$#$$$%$&$*$=$-$z.;$>$",
"N#O#P#Q#R#S#T#,$'$)$!$~${$]$)#^$c#c#c#/$O@($_$:$<$[$*$=$-$z.;$>$",
"n#+#o#p#q#r#s#}$|$1$2$3$4$5$ $'#'#'#'#)#6$7$:@8$9$0$H#I#J#K#L#M#",
"|#1#8+2#3#<#4#a$b$c$d$e$f$g$h$i$j$j$j$i$h$k$l$m$n$o$i#j#k#l#m#w+",
"Z@`@ #.#x@+#@#p$q$r$s$t$u$v$w$x$y$z$y$A$B$C$D$E$F$G$(#_#:#<#[#}#",
"t@u@v@w@x@y@z@A@B@H$I$J$K$L$M$N$O$O$P$Q$N$R$S$T$R@S@T@U@V@W@X@Y@",
"}@|@1@2@3@4@0+5@6@U$V$W$X$Y$Z$`$ %.%+%@%#%$%%%&%l@m@n@o@p@q@r@s@",
"Z+`+ @.@+@@@#@$@%@&@*%=%-%;%>%,%'%)%!%~%{%]%^@| /@(@V z._@:@<@[@",
"v+w+x+y+z+A+B+C+D+E+F+^%/%(%_%:%<%[%}%|%1%2%X...3 S+T+U+V+W+X+Y+",
"1+2+^+3+4+5+6+7+8+9+0+^%3%4%5%6%7%8%9%0%1%2%a%m+n+o+p+q+r+s+t+u+",
"Z.`. +.+++@+#+$+Z.%+&+^%b%c%d%e%f%g%h%i%1%2%j%^+/+(+_+:+<+[+}+|+",
"v.w.x.y.z.A.B.C.D.r.E.k%l%m%n%o%p%q%r%s%_%2%t%R.S.T.U.V.W.X.9.Y.",
"1.2.3.4.5.6.7.8.9.0.a.u%v%w%x%y%z%A%B%0%C%D%E%n.o.p.q.r.s...t.u.",
" ...+.@.#.$.%.&.*.=.-.F%G%H%I%J%K%L%M%N%1%O%^./.(._.:.<.[.}.x |.",
"| w x y z A B C D E F P%Q%R%S%T%k U%V%W%X%Y%R S T U V W X Y Z ` ",
"2 3 4 5 6 7 8 9 0 a b Z%`% &.&+&@&#&$&%&&&*&m n o p q r s t u v ",
"  . + @ + # $ % & * = =&-&;&>&,&'&'&)&!&~&{&/ @ ( _ : < [ } | 1 "};
